<svg width="35" height="35" viewBox="0 0 35 35" fill="none" xmlns="http://www.w3.org/2000/svg">
<g clip-path="url(#clip0_2_5)">
<path fill-rule="evenodd" clip-rule="evenodd" d="M29.476 19.719L29.3932 19.9535L29.2974 20.1635L29.2015 20.3455L29.1057 20.503L28.9924 20.6745L28.9271 20.923L28.8312 21.1715L28.7179 21.3955L28.6047 21.553L28.7354 21.4865L28.8835 21.4095L29.0316 21.3325L29.1623 21.2555L29.293 21.1785L29.4237 21.1015L29.5544 21.0105L29.6851 20.9195L29.8158 20.8285L29.9465 20.7375L30.0772 20.6465L30.2079 20.5555L30.3386 20.4645L30.4518 20.3595L30.5651 20.2545L30.6784 20.1495L30.7916 20.0445L30.9049 19.9395L31.0182 19.8345L31.1314 19.7155L31.2447 19.5965L31.358 19.4775L31.4538 19.3585L31.5497 19.2395L33.0657 17.3285L33.7323 19.565L33.7802 19.761L33.8281 19.957L33.876 20.153L33.9065 20.349L33.937 20.545L33.9675 20.741L33.9849 20.937L34.0024 21.133L34.0198 21.329L34.0372 21.525V22.113L34.0198 22.309L34.0024 22.505L33.9849 22.701L33.9544 22.897L33.9239 23.093L33.8935 23.289L33.8455 23.485L33.7976 23.681L33.7497 23.877L33.7018 24.073L33.6364 24.269L33.5711 24.465L33.5057 24.661L33.423 24.857L33.3402 25.053L33.2574 25.249L33.1616 25.445L32.1988 27.356L31.2229 25.956L31.0748 26.138L30.9267 26.32L30.7786 26.502L30.6304 26.6735L30.4823 26.845L30.4518 26.8695L30.9223 27.2615L31.3449 27.615L31.493 27.734L31.7196 27.93H31.8503L32.4384 28.6755L32.5342 29.211L32.3861 29.694L32.0419 30.1L31.5366 30.401L30.8831 30.5305L30.1817 30.4115L29.6938 30.1245L29.232 29.7255L29.1013 29.6065L28.6962 29.267L28.2736 28.8995L28.1124 29.029L27.8989 29.1725L27.6855 29.316L27.472 29.4595L27.2585 29.603L27.0451 29.7325L26.8316 29.862L26.6051 29.9915L26.3785 30.121L26.152 30.24L25.9254 30.359L25.6989 30.478L25.4724 30.583L25.2284 30.688L24.9191 30.7405L24.6751 30.8455L24.4312 30.9365L24.1872 31.0275L23.9432 31.1185L23.6819 31.2095L23.4205 31.3005L23.1591 31.3775L22.8977 31.4545L22.6363 31.5315L22.3575 31.6085L22.0787 31.675L21.7998 31.7415L21.521 31.808L21.2771 31.8605L21.0636 31.913L20.8676 31.9655L20.6715 32.018L20.4929 32.0845L20.3317 32.151L20.1705 32.228L20.0093 32.319L19.8481 32.424L19.6695 32.543L19.4909 32.6865L19.2949 32.858L19.0988 33.054L18.8854 33.278L18.6588 33.5405L17.4869 34.993L16.2976 33.5545L16.0711 33.292L15.8576 33.068L15.6441 32.872L15.4481 32.7005L15.2695 32.557L15.0909 32.438L14.9122 32.333L14.7511 32.242L14.5899 32.165L14.4113 32.0985L14.2326 32.032L14.0366 31.9795L13.8406 31.927L13.6271 31.8745L13.3831 31.822L13.1043 31.7555L12.8255 31.689L12.5641 31.6225L12.3027 31.5455L12.0413 31.4685L11.7799 31.3915L11.5185 31.3145L11.2572 31.2235L11.0132 31.1325L10.7692 31.0415L10.5253 30.9505L10.2813 30.8595L10.0373 30.7545L9.79338 30.6495L9.54941 30.5445L9.32288 30.4395L9.09634 30.3205L8.8698 30.2015L8.64327 30.0825L8.41673 29.953L8.19019 29.8235L7.96365 29.694L7.75019 29.5645L7.53672 29.421L7.32325 29.2775L7.10978 29.134L6.89632 28.9905L6.73513 28.8715L6.05116 29.4595L5.92046 29.5785L5.31927 30.1035L4.83134 30.3905L4.13866 30.513L3.48519 30.38L2.97984 30.093L2.63567 29.687L2.49191 29.19L2.58775 28.6545L2.89706 28.2625L3.11053 28.0805L3.38935 27.846L3.52004 27.727L3.66816 27.608L3.81628 27.489L3.9644 27.37L4.0951 27.251L4.24322 27.132L4.52203 26.8975L4.56995 26.859L4.53946 26.8205L4.39134 26.649L4.24322 26.4775L4.0951 26.2955L3.94698 26.1135L3.79885 25.9315L3.78143 25.9175L2.78815 27.342L1.79052 25.41L1.69467 25.214L1.6119 25.018L1.52913 24.822L1.44635 24.626L1.38101 24.43L1.29823 24.2585L1.23289 24.0625L1.18496 23.8665L1.13704 23.6705L1.08912 23.4745L1.0412 23.2785L1.0107 23.0825L0.980209 22.8865L0.949714 22.6905L0.932288 22.4945L0.914862 22.2985L0.897436 22.1025V21.5145L0.914862 21.3185L0.932288 21.1225L0.949714 20.9265L0.96714 20.7305L0.997635 20.5345L1.02813 20.3385L1.05863 20.1425L1.10655 19.9465L1.15447 19.7505L1.20239 19.5545L1.85586 17.318L3.37192 19.229L3.46776 19.348L3.5636 19.467L3.67687 19.586L3.79014 19.705L3.90341 19.824L4.01668 19.929L4.12995 20.034L4.24322 20.139L4.35648 20.244L4.46975 20.349L4.58302 20.454L4.71372 20.545L4.84441 20.636L4.97511 20.727L5.1058 20.818L5.23649 20.909L5.36719 21L5.49788 21.091L5.62858 21.168L5.75927 21.245L5.88997 21.322L6.03809 21.399L6.18621 21.476L6.33433 21.553L6.48245 21.63L6.63057 21.6965L6.67849 21.721L6.648 21.6545L6.56522 21.4725L6.49988 21.301L6.43453 21.1295L6.25591 20.9055L6.10779 20.6815L6.01195 20.4575L5.92918 20.2475L5.88125 20.0655L5.85076 19.894L5.82026 19.7505L5.78977 19.698L5.64165 19.4495L5.54581 19.201L5.51531 19.0715H5.48917L5.21036 18.9665L4.96639 18.823L4.75292 18.641L4.59174 18.417L4.47847 18.1685L4.44797 17.892L4.47847 17.6155L4.52639 17.5245L4.47847 17.4195L4.44797 17.143L4.47847 16.8665L4.52639 16.7755L4.47847 16.6705L4.44797 16.394L4.47847 16.1175L4.59174 15.869L4.77035 15.645L4.98382 15.463L5.22778 15.3195L5.5066 15.2285L5.70264 15.162V15.0955L5.73313 14.7945L5.79848 14.532L5.88125 14.2975L5.9771 14.0875L6.07294 13.9055L6.16878 13.762L6.25156 13.657L6.3169 13.3945L6.41275 13.146L6.52601 12.922L6.65671 12.726L6.7874 12.5545L6.9181 12.411L6.98345 12.3445L7.01394 12.2255L7.16206 11.949L7.32325 11.7145L7.50187 11.5045L7.37117 11.4905L7.1577 11.4765L6.91374 11.452L6.65235 11.4135L6.37354 11.361L6.08165 11.284L5.78977 11.179L5.49788 11.0355L5.23649 10.864L0 6.8565L0.910505 5.9815L1.17189 5.747L1.43328 5.5125L1.69467 5.2885L1.95606 5.0785L2.21745 4.8685L2.47884 4.6725L2.74023 4.4765L3.00162 4.2945L3.26301 4.1125L3.5244 3.941L3.76836 3.7695L4.01232 3.612L4.25629 3.4545L4.50025 3.311L5.61987 2.6425L10.0983 7.3255L10.2769 7.5355L10.4251 7.77L10.5383 8.0045L10.6211 8.239L10.669 8.463L10.6995 8.687L10.73 8.897L10.7474 9.093L10.8128 9.0685L10.8607 9.0545L11.0219 8.897L11.2833 8.715L11.5621 8.5715L11.8235 8.4525L12.0675 8.3615L12.2809 8.295L12.4595 8.2425L12.6382 8.204L12.734 8.19H12.7514L12.978 8.0605L13.2699 7.9415L13.4659 7.875L13.3047 7.784L13.0259 7.6125L12.3724 7.168V4.942L13.1217 4.6025L13.3003 4.5255L13.479 4.4485L13.675 4.3715L13.871 4.305L14.0671 4.2385L14.2457 4.186L14.1804 4.0565L14.0976 3.885L14.0017 3.703L13.9538 3.521L13.9059 3.325L13.8754 3.143L13.858 2.933L13.8754 2.646L13.9233 2.359L14.0192 2.0825L14.1499 1.806L14.3111 1.5435L14.4897 1.295L14.7031 1.071L14.9297 0.861L15.1911 0.679L15.4699 0.5075L15.7618 0.364L16.0885 0.2345L16.4327 0.1295L16.7768 0.0525L17.1341 0.014L17.5087 0L17.8834 0.014L18.2406 0.0525L18.5848 0.1295L18.9289 0.2345L19.2557 0.364L19.5475 0.5075L19.8264 0.679L20.0878 0.875L20.3143 1.085L20.5278 1.309L20.7064 1.5435L20.8545 1.806L20.9678 2.0825L21.0505 2.359L21.0985 2.646L21.1159 2.933L21.0985 3.143L21.081 3.339L21.0505 3.535L21.0026 3.717L20.9373 3.899L20.8545 4.081L20.7717 4.2245L20.9198 4.277L21.0985 4.3435L21.2771 4.41L21.4557 4.4765L21.6343 4.5535L21.8129 4.6305L22.5622 4.956V7.231L21.9088 7.6755L21.6299 7.847L21.4993 7.9135L21.5646 7.938L21.7781 8.029L22.0874 8.0815L22.3967 8.1585L22.6755 8.2495L22.902 8.3545L23.1155 8.4595L23.2941 8.5505L23.4727 8.6555L23.5381 8.6695L23.8648 8.7605L24.1567 8.8795L24.3048 8.9565V8.932L24.3223 8.722L24.3528 8.498L24.4007 8.274L24.466 8.0395L24.5619 7.791L24.6751 7.595V7.5425L29.3453 2.6565L30.4693 3.311L30.7132 3.4545L30.9572 3.612L31.2186 3.7695L31.48 3.941L31.7413 4.1125L32.0027 4.2945L32.2641 4.4765L32.5255 4.6725L32.7869 4.8685L33.0483 5.0785L33.3097 5.2885L33.5711 5.5125L33.8325 5.747L34.0938 5.9815L35.0044 6.8565L29.7853 10.8745L29.5239 11.046L29.232 11.1895L28.9401 11.2945L28.6482 11.3715L28.3694 11.424L28.108 11.4625L27.8641 11.487L27.6375 11.5115L27.5243 11.5255L27.5896 11.6305L27.6201 11.7075L27.8162 11.837L28.0427 12.047L28.2213 12.257L28.3694 12.467L28.4827 12.663L28.5655 12.845L28.6308 13.0025L28.6787 13.132L28.7092 13.1565L28.9053 13.3805L29.0534 13.6045L29.1667 13.8285L29.2494 14.0385L29.2974 14.2205L29.3279 14.392L29.3584 14.511L29.4542 14.6405L29.6023 14.9275L29.6982 15.204V15.2285L29.8289 15.253L30.1077 15.358L30.3691 15.5015L30.5825 15.6835L30.7437 15.9075L30.8396 16.156L30.8701 16.4325L30.8396 16.709L30.7916 16.8L30.8396 16.905L30.8701 17.1815L30.8396 17.458L30.7916 17.549L30.8396 17.654L30.8701 17.9305L30.8439 18.2L30.7306 18.4485L30.5695 18.6725L30.356 18.8545L30.112 18.998L29.8332 19.103L29.6197 19.1415V19.166L29.6023 19.4425L29.476 19.719ZM8.33831 23.6425L8.22504 23.5655L8.029 23.394L7.06622 23.695L6.93552 23.7335L7.00087 23.8245L7.09671 23.968L7.19256 24.1115L7.30582 24.255L7.41909 24.3985V24.4125L8.33831 23.6425ZM14.2849 27.5415L14.3982 27.517L14.5115 27.4785L14.6421 27.426L14.7728 27.3595L14.9035 27.2825L15.0342 27.1915L15.1649 27.0865L15.2782 26.9815L15.3915 26.8625L15.4568 26.7855L15.361 26.761L15.3305 26.747L15.0212 26.761L14.677 26.747L14.3503 26.6945L14.0584 26.628L13.797 26.551L13.5705 26.474L13.3744 26.397L13.1784 26.306L12.9344 26.2815L12.6425 26.215L12.3811 26.138L12.1546 26.047L11.9586 25.956L11.7974 25.865L11.6362 25.774L11.4881 25.683L11.4576 25.669L11.1308 25.564L10.852 25.445L10.7562 25.3925L10.6734 25.459L10.5122 25.6025L10.351 25.746L10.1898 25.8895L9.78467 26.243L9.71932 26.2955L9.85001 26.362L9.99813 26.4285L10.1463 26.495L10.2944 26.5615L10.4425 26.628L10.5906 26.6945L10.7518 26.761L10.913 26.8275L11.0742 26.894L11.2354 26.9465L11.3966 26.999L11.5578 27.0515L11.7364 27.104L11.915 27.1565L12.0936 27.209L12.2722 27.2615L12.4508 27.3L12.6469 27.3385L12.8429 27.377L13.039 27.4155L13.235 27.454L13.431 27.4925L13.6445 27.517L13.858 27.5415L14.0192 27.566H14.1804L14.2849 27.5415ZM24.1828 26.7435L24.344 26.677L24.4922 26.6105L24.6403 26.544L24.7884 26.4775L24.9365 26.411L25.0846 26.334L25.2153 26.257L24.2177 25.41L23.9389 25.592L23.647 25.7355L23.3682 25.8545L23.1068 25.9455L22.8803 26.012L22.6668 26.0645L22.4882 26.089H22.4707L22.2442 26.208L21.9523 26.327L21.6735 26.418L21.4121 26.4845L21.1682 26.523L20.9547 26.5475L20.8414 26.5615L20.7587 26.6L20.4493 26.719L20.14 26.796L19.8481 26.8485L19.5693 26.873H19.5214L19.6173 26.978L19.7305 27.083L19.8612 27.188L19.9919 27.279L20.1226 27.356L20.2533 27.4225L20.384 27.475L20.4973 27.5135L20.5931 27.538L20.6759 27.552H20.824L20.9852 27.5275L21.1987 27.503L21.4121 27.4645L21.6082 27.426L21.8042 27.3875L22.0002 27.349L22.1963 27.3105L22.3923 27.272L22.5709 27.2335L22.7496 27.181L22.9282 27.1285L23.1068 27.076L23.2854 27.0235L23.464 26.971L23.6252 26.9185L23.7864 26.866L23.9476 26.7995L24.1828 26.7435ZM27.0189 23.422L26.971 23.499L26.7924 23.709L26.7619 23.7335L27.5417 24.388L27.5591 24.374L27.6724 24.2305L27.7857 24.087L27.8815 23.9435L27.9773 23.8L28.0253 23.723L27.8771 23.6845L27.0189 23.422Z" fill="black"/>
<path fill-rule="evenodd" clip-rule="evenodd" d="M30.5695 18.1615L30.4736 18.3715L30.3255 18.5535L30.1469 18.711L29.9334 18.83L29.7069 18.907L29.3322 18.984L29.3496 19.1555L29.3322 19.404L29.2843 19.6385L29.2015 19.8485L29.1057 20.0445L29.0098 20.216L28.914 20.3595L28.8007 20.517L28.7833 20.5415L28.718 20.8285L28.6221 21.0525L28.5088 21.2485L28.3956 21.4305L27.8728 22.099L28.7354 21.6545L28.8835 21.5775L29.0316 21.5005L29.1797 21.4235L29.3279 21.3465L29.4586 21.2695L29.5892 21.1925L29.7199 21.1015L29.8506 21.0105L29.9813 20.9195L30.112 20.8285L30.2427 20.7375L30.3734 20.6465L30.5041 20.5415L30.6348 20.4365L30.7655 20.3315L30.8788 20.2265L30.992 20.1215L31.1053 20.0165L31.2186 19.8975L31.3318 19.7785L31.4451 19.6595L31.5584 19.5405L31.6716 19.4215L31.7675 19.292L32.9873 17.7485L33.5232 19.5545L33.5711 19.7505L33.619 19.9465L33.6669 20.1425L33.6974 20.3385L33.7279 20.5345L33.7584 20.7305L33.7758 20.9265L33.7933 21.1225L33.8107 21.3185L33.8281 21.5145V22.1025L33.8107 22.2985L33.7933 22.4945L33.7758 22.6905L33.7453 22.8865L33.7148 23.0825L33.6843 23.2785L33.6364 23.4745L33.5885 23.6705L33.5406 23.8665L33.4927 24.0625L33.4273 24.2585L33.362 24.4545L33.2966 24.6505L33.2138 24.8465L33.1311 25.0425L33.0483 25.2385L32.9525 25.4345L32.1726 26.992L31.236 25.6585L31.0225 25.921L30.8744 26.103L30.7263 26.285L30.5782 26.4565L30.43 26.628L30.2819 26.7995L30.1338 26.957L30.735 27.454L31.1576 27.8075L31.3057 27.9265L31.615 28.175H31.7283L32.2162 28.8015L32.299 29.26L32.1683 29.68L31.8764 30.0335L31.4364 30.296L30.8657 30.415L30.2645 30.31L29.8245 30.0475L29.3671 29.6555L29.2364 29.5365L28.8312 29.197L28.2431 28.7L27.8989 28.9485L27.6855 29.092L27.472 29.2355L27.2585 29.379L27.0451 29.5085L26.8316 29.638L26.6181 29.7675L26.4047 29.897L26.1781 30.016L25.9516 30.135L25.725 30.254L25.4985 30.373L25.272 30.478L25.0454 30.583L24.8015 30.688L24.5575 30.793L24.3135 30.884L24.0696 30.975L23.8256 31.066L23.5817 31.157L23.3203 31.234L23.0589 31.311L22.7975 31.388L22.5361 31.465L22.2747 31.542L22.0133 31.6085L21.7345 31.675L21.4557 31.7415L21.2117 31.794L20.9852 31.8465L20.7717 31.899L20.5757 31.9655L20.3796 32.032L20.201 32.109L20.0224 32.186L19.8438 32.277L19.6652 32.382L19.4866 32.5115L19.2905 32.655L19.0945 32.8265L18.881 33.0225L18.6675 33.257L18.441 33.5195L17.4651 34.7375L16.4719 33.5335L16.2453 33.271L16.0188 33.0365L15.8053 32.8405L15.5919 32.669L15.3958 32.5255L15.1998 32.396L15.0212 32.291L14.8425 32.2L14.6639 32.123L14.4853 32.046L14.2893 31.9795L14.0932 31.913L13.8798 31.8605L13.6532 31.808L13.4093 31.7555L13.1479 31.689L12.8865 31.6225L12.6251 31.556L12.3637 31.479L12.1023 31.402L11.8409 31.325L11.5795 31.248L11.3356 31.171L11.0916 31.08L10.8476 30.989L10.6037 30.898L10.3597 30.807L10.1158 30.702L9.8718 30.597L9.64526 30.492L9.41872 30.387L9.19218 30.268L8.96565 30.149L8.73911 30.03L8.51257 29.911L8.2991 29.7815L8.08564 29.652L7.87217 29.5225L7.6587 29.393L7.44523 29.2495L7.23177 29.106L7.0183 28.9625L6.67413 28.714L5.88126 29.4245L5.75056 29.5435L5.16244 30.0545L4.72243 30.317L4.12124 30.422L3.56796 30.317L3.12796 30.0685L2.83172 29.715L2.70102 29.295L2.78379 28.8365L3.06261 28.483L3.25865 28.3115L3.53747 28.077L3.66816 27.958L3.81628 27.839L3.9644 27.72L4.11252 27.601L4.24322 27.482L4.39134 27.363L4.67015 27.1285L4.84877 26.985L4.70065 26.8275L4.55253 26.656L4.40441 26.4845L4.25629 26.313L4.10817 26.131L3.96005 25.949L3.73351 25.6725L2.77072 26.8905L1.99091 25.333L1.89507 25.137L1.8123 24.941L1.72953 24.745L1.64675 24.549L1.5814 24.353L1.53348 24.1955L1.46814 23.9995L1.42021 23.8035L1.37229 23.6075L1.32437 23.4115L1.27645 23.2155L1.24596 23.0195L1.21546 22.8235L1.18496 22.6275L1.16754 22.4315L1.15011 22.274V21.49L1.16754 21.294L1.18496 21.098L1.20239 20.902L1.21982 20.706L1.25031 20.51L1.28081 20.314L1.3113 20.118L1.35922 19.922L1.40715 19.726L1.45507 19.53L1.99091 17.724L3.21073 19.2675L3.30657 19.397L3.41984 19.516L3.53311 19.635L3.64638 19.754L3.75965 19.873L3.87292 19.992L3.98618 20.097L4.09945 20.202L4.21272 20.307L4.34342 20.412L4.47411 20.517L4.6048 20.622L4.7355 20.713L4.86619 20.804L4.99689 20.895L5.12758 20.986L5.25828 21.077L5.37155 21.196L5.50224 21.273L5.65036 21.35L5.79848 21.427L5.9466 21.504L6.09472 21.581L6.24284 21.658L6.39096 21.735L6.53908 21.812L7.22305 22.1375L6.89632 21.5355L6.81354 21.364L6.7482 21.2065L6.70027 21.049L6.68285 21.0105L6.65235 20.986L6.49116 20.776L6.36047 20.566L6.26463 20.37L6.19928 20.174L6.15136 19.992L6.12086 19.8345L6.09037 19.6525L6.04244 19.586L5.88126 19.3515L5.79848 19.117L5.73313 18.8825L5.60244 18.858L5.3759 18.767L5.16244 18.648L4.98382 18.4905L4.8357 18.3085L4.73986 18.0845L4.70936 17.85L4.73986 17.6155L4.8052 17.486L4.73986 17.3425L4.70936 17.108L4.73986 16.8735L4.8052 16.744L4.73986 16.6005L4.70936 16.366L4.73986 16.1315L4.8357 15.9215L4.98382 15.7395L5.16244 15.582L5.3759 15.463L5.60244 15.386L5.9771 15.309L5.95967 15.099L5.99017 14.8225L6.05551 14.574L6.13829 14.35L6.23413 14.154L6.32997 13.9825L6.42582 13.839L6.50859 13.734L6.52601 13.7095L6.59136 13.433L6.6872 13.209L6.80047 12.999L6.91374 12.817L7.00958 12.6875L7.12285 12.558L7.20563 12.467L7.25355 12.3375L7.38424 12.089L7.53236 11.865L7.69355 11.669L7.95494 11.4065L7.41909 11.354L7.19256 11.3295L6.94859 11.305L6.70463 11.2525L6.44324 11.2L6.16443 11.123L5.88561 11.018L5.6068 10.8885L5.38026 10.731L0.309311 6.8425L1.08912 6.097L1.35051 5.8625L1.59447 5.628L1.85586 5.404L2.11725 5.194L2.37864 4.998L2.64003 4.802L2.90142 4.62L3.16281 4.438L3.40677 4.2665L3.65074 4.095L3.8947 3.9375L4.13866 3.78L4.38262 3.6225L4.62659 3.479L5.57194 2.9155L9.90229 7.455L10.0635 7.651L10.1942 7.875L10.29 8.099L10.3728 8.323L10.4207 8.505L10.4512 8.715L10.4817 8.925L10.4991 9.121L10.5166 9.3835L10.8912 9.254L10.974 9.2295L11.17 9.058L11.414 8.8865L11.658 8.757L11.9019 8.652L12.1285 8.575L12.3419 8.5085L12.5205 8.47L12.6817 8.4315L12.7645 8.4175L12.8298 8.4035L13.0912 8.26L13.3526 8.155L13.9408 7.973L13.4354 7.686L13.1566 7.5145L12.5902 7.1295V5.0505L13.2089 4.774L13.3875 4.697L13.5661 4.62L13.7447 4.5535L13.9233 4.487L14.1019 4.4205L14.298 4.354L14.5115 4.2875L14.3328 3.99L14.2501 3.8185L14.1847 3.647L14.1673 3.4755L14.1368 3.2935L14.1194 3.1115L14.1019 2.9155L14.1194 2.639L14.1673 2.3625L14.2501 2.1L14.3633 1.8515L14.5115 1.617L14.6901 1.393L14.8861 1.183L15.1126 0.987L15.3566 0.805L15.618 0.6475L15.8968 0.518L16.1887 0.399L16.498 0.308L16.8247 0.2415L17.1646 0.21L17.5087 0.196L17.8529 0.21L18.197 0.2485L18.5151 0.315L18.8244 0.406L19.1163 0.525L19.3951 0.6685L19.6565 0.826L19.9004 1.008L20.1139 1.204L20.3099 1.414L20.4711 1.638L20.6192 1.8725L20.7325 2.121L20.8153 2.3835L20.8632 2.66L20.8806 2.9365V3.1325L20.8632 3.3145L20.8327 3.4965L20.7848 3.668L20.7194 3.8395L20.6367 4.011L20.4581 4.326L20.8153 4.445L20.9939 4.5115L21.1725 4.578L21.3511 4.6445L21.5297 4.7215L21.7084 4.7985L22.327 5.075V7.154L21.7563 7.525L21.4775 7.6965L21.0375 7.945L21.4295 8.1165L21.6256 8.2075L21.6561 8.2215L22.0002 8.274L22.2791 8.351L22.523 8.442L22.8018 8.5085L22.9979 8.5995L23.1591 8.6905L23.3203 8.7815L23.3682 8.806L23.464 8.8305L23.7559 8.9215L24.0173 9.0265L24.5052 9.275L24.527 8.925L24.5444 8.715L24.5749 8.505L24.6229 8.281L24.6882 8.057L24.784 7.833L24.9147 7.609V7.5845L29.4106 2.877L30.356 3.4265L30.6 3.57L30.8439 3.7275L31.0879 3.885L31.3318 4.0565L31.5758 4.228L31.8198 4.3995L32.0812 4.5815L32.3425 4.7635L32.6039 4.9595L32.8653 5.1695L33.1267 5.3795L33.3881 5.6035L33.6495 5.8275L33.9109 6.062L34.6907 6.8075L29.6415 10.703L29.3976 10.8605L29.1187 10.99L28.8399 11.095L28.5611 11.172L28.2997 11.2245L28.0558 11.263L27.8118 11.2875L27.5853 11.312L27.1453 11.3505L27.3413 11.69L27.4066 11.795L27.6201 11.9385L27.8336 12.1205L28.0122 12.3165L28.1429 12.5125L28.2562 12.6945L28.3389 12.866L28.4043 13.0235L28.4522 13.153L28.4696 13.1915L28.5176 13.244L28.6962 13.454L28.8269 13.664L28.9227 13.874L29.0055 14.07L29.0534 14.252L29.0839 14.4095L29.1144 14.567L29.2102 14.7105L29.3409 14.987L29.4237 15.2495L29.4542 15.379L29.6982 15.4315L29.9247 15.5225L30.1382 15.6415L30.3168 15.799L30.4649 15.995L30.5607 16.205L30.5912 16.4395L30.5607 16.6635L30.4954 16.793L30.5607 16.9365L30.5912 17.171L30.5607 17.395L30.4954 17.5385L30.5607 17.682L30.5912 17.9165L30.5695 18.1615ZM8.66505 23.6285L8.38623 23.4325L8.09435 23.17L6.9878 23.5235L6.61314 23.6425L6.79176 23.919L6.8876 24.0625L7.00087 24.206L7.11414 24.3495L7.22741 24.493L7.3886 24.689L8.66505 23.6285ZM13.8275 27.7235L14.0061 27.748H14.2196L14.3328 27.734L14.4635 27.7095L14.6117 27.657L14.7598 27.5905L14.9079 27.5135L15.056 27.4225L15.2041 27.3175L15.3523 27.2125L15.4829 27.0935L15.5962 26.964L15.8228 26.6875L15.5439 26.6105L15.4481 26.586L15.3653 26.5615L15.0212 26.5755L14.6944 26.5615L14.4025 26.523L14.1412 26.4565L13.8972 26.3795L13.6837 26.3025L13.5051 26.2255L13.2786 26.1205L12.9998 26.096L12.7384 26.0435L12.4944 25.9665L12.2809 25.8755L12.1023 25.7845L11.9411 25.6935L11.7799 25.6025L11.6013 25.4835L11.5185 25.4695L11.2267 25.3785L10.9653 25.2735L10.7039 25.144L10.4904 25.326L10.3292 25.4695L10.168 25.613L10.0068 25.7565L9.84566 25.9L9.58427 26.124L9.35773 26.32L9.5712 26.439L9.71932 26.516L9.86744 26.593L10.0156 26.67L10.1637 26.7365L10.3118 26.803L10.473 26.8695L10.6342 26.936L10.7954 27.0025L10.9566 27.069L11.1177 27.1355L11.2964 27.188L11.475 27.2405L11.6536 27.293L11.8322 27.3455L12.0108 27.398L12.1894 27.4505L12.3855 27.503L12.5815 27.5415L12.7776 27.58L12.9736 27.6185L13.1697 27.657L13.3831 27.6955L13.5966 27.734L13.8275 27.7235ZM23.2723 27.2545L23.451 27.202L23.6296 27.1495L23.8082 27.097L23.9694 27.0305L24.1306 26.964L24.2918 26.8975L24.453 26.831L24.6141 26.7645L24.7623 26.698L24.9104 26.6315L25.0585 26.5545L25.2066 26.4775L25.3547 26.4005L25.5682 26.2815L24.2308 25.13L24.0826 25.2595L23.8213 25.431L23.5599 25.5745L23.2985 25.6795L23.0545 25.7565L22.8411 25.823L22.645 25.8615L22.4838 25.886L22.4185 25.9L22.1571 26.0435L21.8957 26.1485L21.6343 26.2255L21.3903 26.278L21.1638 26.3165L20.9678 26.341L20.8066 26.355L20.7107 26.4075L20.4188 26.5125L20.127 26.579L19.8481 26.6175L19.5868 26.642L19.1468 26.656L19.3602 26.9185L19.4735 27.048L19.6042 27.167L19.7523 27.272L19.9004 27.377L20.0485 27.468L20.1967 27.545L20.3448 27.6115L20.4929 27.664L20.6236 27.6885L20.7369 27.7025H20.9329L21.1115 27.678L21.325 27.6535L21.5385 27.615L21.7519 27.5765L21.948 27.538L22.144 27.4995L22.3401 27.461L22.5361 27.4225L22.7321 27.37L22.9282 27.3175L23.1068 27.265L23.2723 27.2545ZM26.9057 23.184L26.7575 23.408L26.5789 23.604L26.4177 23.7475L27.5417 24.689L27.7203 24.479L27.8336 24.3355L27.9469 24.192L28.0427 24.0485L28.1385 23.905L28.3172 23.6285L27.9251 23.5095L26.9057 23.184Z" fill="white"/>
<path fill-rule="evenodd" clip-rule="evenodd" d="M17.5218 1.988C18.1753 1.988 18.6937 2.4185 18.6937 2.9435C18.6937 3.4685 18.1578 3.899 17.5218 3.899C16.8683 3.899 16.3325 3.4685 16.3325 2.9435C16.3325 2.4185 16.8727 1.988 17.5218 1.988ZM18.4366 26.8765C18.698 26.8765 18.8941 26.6945 18.8941 26.4705V25.9875L19.0073 26.0015C19.4299 26.0155 19.9701 26.026 20.4711 25.739C20.4711 25.739 20.4885 25.739 20.4885 25.725L20.6497 25.711C21.0723 25.6585 21.6125 25.606 22.0482 25.2525C22.0482 25.2525 22.0787 25.2665 22.2921 25.2385C22.5187 25.214 23.2201 25.0285 23.6121 24.6365C23.6426 24.612 23.6601 24.57 23.6775 24.5455L23.8387 24.493C24.0173 24.4405 24.1959 24.374 24.392 24.283C25.2066 24.99 26.0387 25.697 26.849 26.39C25.3983 27.4225 23.4771 28.1575 21.02 28.483C20.0268 28.602 18.7547 27.8425 18.2842 26.873C18.3364 26.8625 18.3887 26.8765 18.4366 26.8765ZM17.9618 26.4565V26.208H17.9792C17.9792 26.1835 17.9792 26.1695 17.9618 26.1415V26.103H17.9923V26.4425C17.9923 26.509 18.0097 26.5615 18.0228 26.614H17.9269C17.9618 26.5755 17.9618 26.523 17.9618 26.4565ZM17.0513 26.4565V26.208H17.0687C17.0687 26.1835 17.0513 26.1415 17.0513 26.117V26.0505H17.0818V26.4705C17.0818 26.537 17.0992 26.5895 17.1123 26.642H17.0164C17.0339 26.5755 17.0513 26.523 17.0513 26.4565ZM10.6995 24.1255L10.7649 24.178C11.0568 24.4265 11.4183 24.7415 12.0195 24.8325L12.3288 25.0425C12.673 25.2525 12.9649 25.4205 13.5835 25.4205L13.7796 25.5395C14.1542 25.711 14.6247 25.9175 15.2433 25.8545C15.3087 25.8545 15.3566 25.83 15.422 25.816L15.618 25.8825C15.7792 25.935 15.9622 26.0015 16.1538 26.04V26.4705C16.1538 26.705 16.3499 26.8765 16.5938 26.8765H16.6592C16.1713 27.832 14.8992 28.5775 13.8885 28.4585C11.4314 28.1575 9.50585 27.398 8.07257 26.3795C8.95693 25.6305 9.83694 24.8745 10.6995 24.1255ZM17.0339 8.218H17.0034V8.036H17.0339V8.218ZM17.9618 8.2565H17.9313V8.0465H17.9618V8.2565ZM28.095 22.806C28.535 22.9495 29.0708 23.093 29.5108 23.2365C29.0882 24.164 28.4522 25.0145 27.6201 25.76C26.788 25.067 25.9734 24.3845 25.1631 23.6915L25.2458 23.639C25.59 23.443 26.0256 23.1805 26.2086 22.722L26.4221 22.617C26.7314 22.3825 27.1365 22.0815 27.2367 21.595V21.5705L27.3326 21.4515C27.594 21.175 27.9033 20.8355 27.9033 20.3385L28.0514 20.167C28.2649 19.866 28.5219 19.488 28.4435 19.0015C28.4435 18.963 28.4261 18.9245 28.3956 18.8825L28.4609 18.753C28.4783 18.7145 28.4914 18.676 28.5088 18.648C28.5088 18.634 28.5263 18.6235 28.5263 18.6235C28.5437 18.599 28.5568 18.571 28.5742 18.5325C28.5742 18.5185 28.5916 18.508 28.5916 18.494C28.609 18.4695 28.609 18.4415 28.6221 18.417C28.6221 18.403 28.6395 18.3925 28.6395 18.3645C28.6395 18.3505 28.657 18.326 28.657 18.298H29.2102C29.5021 18.298 29.7156 18.1405 29.7156 17.9445C29.7156 17.7345 29.489 17.577 29.2102 17.577H28.7049V17.5525H29.2102C29.5021 17.5525 29.7156 17.395 29.7156 17.199C29.7156 16.989 29.5021 16.8315 29.2102 16.8315H28.7876V16.807H29.2102C29.5021 16.807 29.7156 16.6635 29.7156 16.4535C29.7156 16.2435 29.5021 16.086 29.2102 16.086H28.6395V16.0615C28.6395 15.995 28.657 15.288 28.2954 14.8855C28.2954 14.8715 28.2779 14.8715 28.2649 14.861L28.2344 14.7035C28.169 14.364 28.0863 13.944 27.6462 13.5905L27.5809 13.419C27.4502 13.0935 27.3021 12.6735 26.8142 12.3725C26.7837 12.348 26.7488 12.334 26.7009 12.2955L26.653 12.2185L26.605 12.1415C26.4264 11.816 26.2304 11.4485 25.7076 11.2L25.6597 11.1475L25.8209 11.018C26.7314 10.4685 28.1821 10.822 29.0142 10.206L33.436 6.79C32.1334 5.509 30.8308 4.6305 29.5587 3.899L25.7947 7.8505C25.1413 8.5435 25.5813 9.723 25.2589 10.5595L25.1935 10.612L25.1631 10.6365C24.967 10.479 24.7405 10.3495 24.4312 10.2585L24.2656 10.115C23.9737 9.8665 23.5991 9.5515 22.9805 9.4605H22.963L22.7844 9.3415C22.4402 9.1315 22.0177 8.883 21.399 8.883L21.203 8.778C20.8284 8.6065 20.3578 8.4 19.7392 8.463C19.6913 8.463 19.6434 8.477 19.5911 8.5015L19.4299 8.449C19.2513 8.3965 19.0553 8.33 18.8418 8.2915V7.938C19.7392 7.7665 20.6323 7.4025 21.4818 6.8145V5.467C20.6192 5.075 19.7218 4.7985 18.7939 4.669C19.5432 4.3295 20.0311 3.675 20.0311 2.9435C20.0311 1.8305 18.9071 0.903 17.5218 0.903C16.1364 0.889 14.9819 1.82 14.9819 2.9295C14.9819 3.6505 15.4873 4.305 16.2192 4.655C15.2738 4.7845 14.3459 5.061 13.4659 5.467V6.8005C14.311 7.3885 15.2085 7.756 16.1059 7.924V8.33C15.7008 8.316 15.2259 8.33 14.7685 8.5925C14.7685 8.5925 14.7511 8.5925 14.7511 8.6065L14.5899 8.631C14.1673 8.6835 13.6271 8.736 13.1914 9.0895C13.1914 9.0895 12.9954 9.1035 12.8995 9.114C12.5902 9.191 12.0021 9.31 11.6275 9.702C11.597 9.7265 11.5795 9.7685 11.5621 9.793L11.4009 9.8455C11.0088 9.975 10.5209 10.1465 10.2116 10.5665L10.0504 10.6575C10.033 10.6715 10.0025 10.682 9.98506 10.696L9.87179 10.605L9.82387 10.5665C9.49714 9.7405 9.85437 8.5505 9.18782 7.8575L5.38897 3.885C4.11688 4.6305 2.81429 5.495 1.5117 6.776L5.95967 10.2025C6.79176 10.829 8.23811 10.465 9.13555 11.0285L9.34901 11.158C9.23575 11.277 9.12248 11.4205 9.05713 11.6025C9.05713 11.6025 9.0397 11.6025 8.84366 11.7215C8.64762 11.8405 8.14227 12.257 8.029 12.7435V12.768L7.93316 12.873C7.67177 13.1495 7.36246 13.489 7.34503 13.986C7.34503 13.986 7.34503 13.9615 7.21434 14.1435C7.06622 14.3255 6.74384 14.8225 6.82225 15.3195C6.82225 15.358 6.83968 15.3965 6.87018 15.4385L6.80483 15.582L6.75691 15.701C6.75691 15.715 6.73948 15.7255 6.73948 15.7395C6.72205 15.764 6.72205 15.792 6.70899 15.806C6.69156 15.8305 6.69156 15.8445 6.67849 15.8725C6.67849 15.897 6.66106 15.911 6.66106 15.939C6.64364 15.9635 6.64364 15.9915 6.64364 16.0055C6.64364 16.0195 6.62621 16.044 6.62621 16.058H6.10343C5.81155 16.058 5.59808 16.2015 5.59808 16.4115C5.59808 16.6215 5.81155 16.779 6.10343 16.779H6.50859C6.50859 16.793 6.50859 16.793 6.49116 16.8035H6.06858C5.7767 16.8035 5.56323 16.961 5.56323 17.157C5.56323 17.367 5.7767 17.5245 6.06858 17.5245H6.41274V17.549H6.06858C5.7767 17.549 5.56323 17.7065 5.56323 17.9025C5.56323 18.1125 5.78977 18.27 6.06858 18.27H6.55651V18.284C6.53908 18.6235 6.52601 19.0575 6.88324 19.474L6.91374 19.656C6.97909 19.9955 7.04443 20.4015 7.46701 20.755L7.51493 20.937C7.6282 21.2765 7.77632 21.6825 8.26425 21.9835C8.29475 22.008 8.36009 22.05 8.36009 22.05L8.44287 22.2215C8.60406 22.5365 8.81752 22.9285 9.3403 23.177L9.471 23.3205C9.58426 23.4395 9.69753 23.569 9.84565 23.6985C9.01357 24.4055 8.16841 25.1125 7.33632 25.8195C6.50423 25.074 5.88561 24.1955 5.4456 23.282C5.88561 23.1385 6.39096 22.995 6.83097 22.8515C5.11887 22.12 3.5244 21.126 2.33508 19.593C1.74695 21.518 1.92992 23.415 2.88835 25.312C3.14974 24.934 3.4242 24.5525 3.68559 24.1745C4.41747 25.235 5.18422 26.1625 5.98145 26.95C5.24956 27.5765 4.50025 28.2065 3.76836 28.833C3.26301 29.2635 3.9949 29.918 4.5656 29.449C5.28006 28.833 5.98145 28.2205 6.70027 27.6045C8.6694 29.3055 10.9173 30.338 13.6881 30.9925C15.0255 31.3075 16.0493 31.6085 17.4651 33.3865C18.8505 31.6085 19.8917 31.2935 21.2291 30.9925C24.0478 30.338 26.2783 29.2915 28.2474 27.6045L30.3952 29.449C30.9659 29.9215 31.6978 29.253 31.1924 28.8225L28.9445 26.9395C29.7417 26.1415 30.5085 25.2245 31.2403 24.164C31.4843 24.542 31.7457 24.9235 32.0071 25.3015C32.9829 23.4045 33.1616 21.5075 32.5604 19.5825C31.3972 21.0665 29.8027 22.0605 28.095 22.806Z" fill="white"/>
<path fill-rule="evenodd" clip-rule="evenodd" d="M9.34902 11.1475L9.13555 11.018C8.23811 10.4685 6.79176 10.836 5.95967 10.206L1.51606 6.79C2.81865 5.509 4.12123 4.6445 5.39333 3.899L9.1704 7.8505C9.83694 8.5575 9.47971 9.7475 9.80645 10.5595L9.85437 10.598L9.96764 10.689C9.75417 10.822 9.54506 10.9655 9.34902 11.1475ZM17.5218 1.988C18.1753 1.988 18.6937 2.4185 18.6937 2.9435C18.6937 3.4685 18.1578 3.899 17.5218 3.899C16.8683 3.899 16.3325 3.4685 16.3325 2.9435C16.3325 2.4185 16.8727 1.988 17.5218 1.988ZM17.4739 8.0465C18.8244 8.0465 20.2097 7.679 21.4818 6.79V5.467C20.6192 5.075 19.7218 4.7985 18.7939 4.669C19.5432 4.3295 20.0311 3.675 20.0311 2.9435C20.0311 1.8305 18.9071 0.903 17.5218 0.903C16.1364 0.889 14.982 1.82 14.982 2.9295C14.982 3.6505 15.4873 4.305 16.2192 4.655C15.2738 4.7845 14.3459 5.061 13.4659 5.467V6.8005C14.738 7.679 16.1408 8.0465 17.4739 8.0465ZM25.1761 10.6365L25.2066 10.612L25.272 10.5595C25.5987 9.723 25.1587 8.5435 25.8078 7.8505L29.5936 3.885C30.8657 4.6165 32.1683 5.495 33.4709 6.776L29.0229 10.2025C28.1908 10.8185 26.7445 10.465 25.8296 11.0145L25.6684 11.144L25.5856 11.039C25.4549 10.913 25.3242 10.7695 25.1761 10.6365ZM25.1456 23.695L27.6027 25.7635C28.4348 25.018 29.0665 24.1535 29.4934 23.24C29.0534 23.0965 28.5175 22.953 28.0775 22.8095C29.7896 22.078 31.3841 21.084 32.5734 19.551C33.1616 21.476 32.9786 23.373 32.0202 25.27C31.7588 24.892 31.4843 24.5105 31.2534 24.1325C30.539 25.193 29.7548 26.1205 28.9576 26.908L31.2055 28.791C31.7109 29.2215 30.979 29.89 30.4083 29.4175L28.2605 27.573C26.2914 29.274 24.0609 30.3065 21.2422 30.961C19.9048 31.276 18.881 31.577 17.4782 33.355C16.0624 31.577 15.0212 31.262 13.7011 30.961C10.9304 30.3065 8.68683 29.26 6.71334 27.573C5.99888 28.189 5.29749 28.8015 4.57867 29.4175C4.00797 29.89 3.27608 29.2215 3.78143 28.8015C4.51332 28.175 5.26263 27.545 5.99452 26.9185C5.19729 26.1205 4.44797 25.2035 3.69866 24.143C3.43727 24.521 3.16281 24.9025 2.90142 25.2805C1.92121 23.38 1.74259 21.483 2.34379 19.5615C3.53311 21.0805 5.12758 22.0745 6.83968 22.82C6.39968 22.9635 5.89432 23.107 5.45432 23.2505C5.89432 24.178 6.51294 25.0425 7.34503 25.788L9.85437 23.667C10.0504 23.8245 10.2944 23.982 10.6211 24.059L10.7039 24.136C9.8413 24.8815 8.96129 25.627 8.0987 26.3865C9.53199 27.4085 11.4532 28.154 13.9146 28.4655C15.0037 28.5845 16.3891 27.706 16.7812 26.635H18.197C18.5891 27.7095 19.9701 28.5845 21.0288 28.4655C23.4858 28.1505 25.4114 27.405 26.8577 26.3725L24.3963 24.2725C24.6403 24.1535 24.8668 24.01 25.0498 23.7755L25.1456 23.695Z" fill="#D71E25"/>
<path fill-rule="evenodd" clip-rule="evenodd" d="M17.622 11.3575C21.6299 11.3575 24.8842 13.9755 24.8842 17.192C24.8842 20.4085 21.6256 23.0265 17.622 23.0265C13.6184 23.0265 10.3597 20.4085 10.3597 17.192C10.3597 13.9755 13.614 11.3575 17.622 11.3575ZM17.622 9.198C12.1502 9.198 7.68919 12.782 7.68919 17.178C7.68919 21.574 12.1502 25.158 17.622 25.158C23.0937 25.158 27.5548 21.574 27.5548 17.178C27.5548 12.796 23.0937 9.198 17.622 9.198ZM13.5661 23.3415L14.1542 23.2505L13.6184 23.0265L13.6837 22.5295L13.2132 22.869L12.6774 22.645L12.9388 23.0895L12.4988 23.443L13.1348 23.3905L13.4615 23.835C13.4528 23.8385 13.5661 23.3415 13.5661 23.3415ZM15.374 23.5235C15.2128 23.576 14.9994 23.6005 14.9166 23.6005L15.0124 23.3135C15.2259 23.3135 15.3566 23.289 15.5657 23.2085L15.9578 23.2855L15.5526 24.5805L15.0821 24.4895L15.374 23.5235ZM16.9685 24.024C16.7725 24.01 16.7071 23.8945 16.7245 23.8C16.742 23.681 16.8204 23.604 17.0164 23.604C17.2299 23.618 17.2778 23.7335 17.2778 23.828C17.2473 23.9435 17.1645 24.0345 16.9685 24.024ZM16.2366 24.3495L16.694 24.374C16.694 24.451 16.7768 24.5035 16.9075 24.5175C17.1689 24.5315 17.2168 24.36 17.2517 24.1255C17.1558 24.192 17.0382 24.255 16.8291 24.2445C16.6026 24.2305 16.4849 24.178 16.3891 24.101C16.2933 24.024 16.241 23.905 16.2584 23.786C16.2758 23.5095 16.5851 23.3415 17.0251 23.366C17.4826 23.3905 17.6133 23.59 17.6612 23.7055C17.7265 23.835 17.7265 23.982 17.7265 24.1115C17.7091 24.269 17.6612 24.465 17.5 24.6085C17.3214 24.752 17.0948 24.78 16.8814 24.766C16.6548 24.752 16.4588 24.7135 16.3281 24.584C16.2366 24.493 16.2366 24.402 16.2366 24.3495ZM18.5325 23.723C18.4192 23.814 18.2232 23.905 18.1404 23.933L18.0925 23.646C18.2885 23.5795 18.3844 23.527 18.5499 23.3835L18.9551 23.345L19.1685 24.668L18.698 24.7205L18.5325 23.723ZM20.0311 23.814C19.883 23.436 19.9832 23.3555 20.1139 23.317C20.262 23.2785 20.3404 23.3555 20.3753 23.394C20.4406 23.471 20.506 23.6285 20.5365 23.681C20.5539 23.7055 20.6323 23.9155 20.6018 24.0345C20.5844 24.087 20.519 24.1395 20.4537 24.1535C20.2446 24.22 20.1313 24.087 20.0311 23.814ZM19.5606 23.9295C19.6085 24.059 19.7218 24.269 19.9658 24.388C20.127 24.465 20.3404 24.4545 20.5365 24.4125C21.0723 24.283 21.1246 23.9295 20.9939 23.562C20.8981 23.3135 20.7499 23.184 20.6018 23.1175C20.506 23.065 20.323 23.0125 20.0137 23.093C19.8656 23.1315 19.6565 23.212 19.5737 23.38C19.4473 23.576 19.5127 23.814 19.5606 23.9295ZM22.1309 23.2505L22.2442 23.7335L22.5709 23.289L23.207 23.3415L22.767 22.988L23.0284 22.5435L22.4925 22.7675L22.022 22.428L22.0874 22.925L21.5515 23.149L22.1309 23.2505ZM9.83694 18.9735L9.72367 18.634L10.0678 18.5675L10.1811 18.907L9.83694 18.9735ZM9.33159 19.8485L9.11812 19.4705C9.05277 19.495 8.92208 19.5475 8.83931 19.705C8.77396 19.8625 8.79138 20.0445 8.92208 20.2545C9.03535 20.4505 9.16604 20.608 9.42743 20.6745C9.67139 20.741 9.89793 20.699 10.1288 20.622C10.29 20.5695 10.534 20.4505 10.6342 20.244C10.73 20.034 10.6342 19.7995 10.5688 19.67C10.473 19.4985 10.1942 19.096 9.70625 19.264L9.91971 19.642C9.98506 19.628 10.1637 19.5895 10.2769 19.7855C10.4381 20.0725 10.033 20.216 9.93278 20.244C9.6409 20.349 9.36208 20.363 9.24882 20.139C9.1704 20.0305 9.18347 19.9255 9.33159 19.8485ZM11.0263 20.9615L11.3181 20.804L11.0742 20.503L10.7823 20.6605L11.0263 20.9615ZM11.7582 21.903L12.1023 22.204C12.1502 22.1655 12.2809 22.0745 12.2809 21.917C12.2984 21.721 12.1197 21.525 11.989 21.42C11.6797 21.1575 11.3225 21.042 11.0263 21.2485C10.7649 21.4445 10.8956 21.6545 11.0263 21.8225L11.1875 22.071C11.2179 22.1235 11.2702 22.2005 11.1875 22.281C11.1047 22.3335 10.9914 22.3195 10.8956 22.2425C10.7344 22.099 10.8651 21.994 10.913 21.966L10.5688 21.665C10.4381 21.77 10.1942 21.98 10.6647 22.3965C11.0393 22.7115 11.3791 22.6975 11.5752 22.554C11.8366 22.358 11.671 22.1235 11.6057 22.029L11.3791 21.7035C11.3138 21.6125 11.3312 21.56 11.3966 21.5215C11.5447 21.4165 11.6884 21.546 11.7233 21.574C11.9542 21.7595 11.8061 21.8645 11.7582 21.903ZM8.69554 17.087C8.51693 17.1115 8.469 17.2165 8.469 17.3215C8.469 17.57 8.74782 17.6365 9.05713 17.6365C9.15297 17.6365 9.59298 17.6225 9.59298 17.311C9.59298 17.101 9.39694 17.0765 9.33159 17.0765L9.31416 16.6565C9.85001 16.6425 9.91536 17.115 9.91536 17.297C9.91536 17.4405 9.89793 17.689 9.70189 17.8605C9.50585 18.018 9.23139 18.0565 9.04842 18.0565C8.80445 18.0565 8.57792 18.018 8.38187 17.885C8.16841 17.7415 8.12049 17.5455 8.10306 17.3355C8.10306 17.101 8.15098 16.9155 8.2991 16.8C8.44722 16.681 8.59099 16.681 8.65633 16.6705L8.69554 17.087ZM9.13555 16.0405C8.84366 15.988 8.5997 15.869 8.66505 15.61C8.68247 15.519 8.74782 15.4385 8.84366 15.4C8.92644 15.3755 9.05713 15.3475 9.30109 15.386C9.52763 15.4245 9.82387 15.5295 9.75852 15.806C9.68882 16.0685 9.41436 16.093 9.13555 16.0405ZM9.02228 16.4465C8.90901 16.4325 8.58227 16.3555 8.42108 16.1315C8.25989 15.9075 8.30781 15.6345 8.33831 15.5295C8.4995 14.966 9.02228 14.889 9.42743 14.966C10.094 15.085 10.1942 15.5295 10.094 15.855C9.99813 16.2505 9.65833 16.5515 9.02228 16.4465ZM9.30109 14.1295L9.38387 14C9.44921 13.895 9.53199 13.7515 9.72803 13.8285C9.77595 13.8425 9.85872 13.9055 9.8413 14C9.8413 14.0385 9.8108 14.077 9.75852 14.1575L9.67575 14.287L9.30109 14.1295ZM10.3423 14.994L10.5688 14.6265L9.96764 14.392L10.0635 14.2345C10.1593 14.077 10.2421 14.091 10.4381 14.1575C10.5863 14.196 10.6995 14.2345 10.8128 14.2485L11.0568 13.8565C10.9261 13.8425 10.7474 13.79 10.6342 13.7655C10.3728 13.699 10.2421 13.6605 10.0809 13.909H10.0635C10.0809 13.8705 10.1114 13.79 10.1114 13.6745C10.1114 13.5975 10.0635 13.503 9.89793 13.44C9.73674 13.3735 9.61912 13.3875 9.5407 13.4155C9.39258 13.454 9.32723 13.5345 9.18347 13.769L8.79138 14.3955L10.3423 14.994ZM9.75417 12.9675L11.1526 13.7655L11.4445 13.426L10.0461 12.628C10.0504 12.6245 9.75417 12.9675 9.75417 12.9675ZM10.3728 12.2605L11.5795 13.2545L11.8888 13.006L10.9435 12.2325L12.3289 12.6525L12.8168 12.2745L11.61 11.2805L11.3007 11.529L12.1982 12.2605L10.8607 11.8685L10.3728 12.2605ZM12.6687 11.0425L13.3831 11.998L13.8231 11.788L13.1087 10.8325L13.5966 10.598L13.418 10.3635L12.0326 11.0425L12.2112 11.277C12.2156 11.277 12.6687 11.0425 12.6687 11.0425ZM13.8449 10.192L14.3982 11.501L14.8687 11.3715L14.6421 10.836L15.2128 10.6785L15.4394 11.214L15.9273 11.0845L15.374 9.7755L14.8861 9.905L15.0996 10.416L14.5289 10.5735L14.3154 10.0625L13.8449 10.192ZM15.9273 9.6565L16.4501 9.604L16.6461 10.9795L16.1233 11.046L15.9273 9.6565ZM17.5566 10.4405L17.8354 9.8665L18.0489 10.4545L17.5566 10.4405ZM16.8073 10.9655L17.5741 9.59L18.1927 9.604L18.8592 11.004L18.2885 10.99L18.1753 10.7135L17.4608 10.6995L17.3301 10.976L16.8073 10.9655ZM19.4125 9.695L18.942 11.0285L19.3646 11.1335L19.7392 10.101L19.9658 11.277L20.6192 11.4345L21.0897 10.101L20.6672 10.01L20.3099 11.004L20.0834 9.8805C20.079 9.877 19.4125 9.695 19.4125 9.695ZM21.4818 11.291L21.0418 11.095C21.0113 11.1475 20.9286 11.2665 20.9765 11.4205C21.0244 11.6025 21.2858 11.746 21.447 11.8265C21.8391 12.0085 22.2268 12.0225 22.4228 11.76C22.6014 11.5115 22.3923 11.34 22.2094 11.1965L21.9654 11.0005C21.9175 10.962 21.8347 10.8955 21.9 10.8045C21.948 10.738 22.0612 10.7135 22.1919 10.78C22.4054 10.871 22.3052 11.004 22.2747 11.0425L22.7147 11.2525C22.7975 11.123 22.9587 10.8605 22.3401 10.5735C21.8696 10.3495 21.5428 10.4545 21.4121 10.64C21.2335 10.8885 21.4775 11.0705 21.5733 11.151L21.9 11.3995C21.9828 11.466 21.9959 11.5185 21.948 11.5815C21.8521 11.711 21.6561 11.634 21.6212 11.606C21.3511 11.487 21.447 11.3435 21.4818 11.291ZM24.4791 21.091L24.1872 21.406L24.9017 21.616L24.4791 21.091ZM24.4137 20.293L24.1044 20.608L24.3005 20.8565L23.8605 21.315L23.5032 21.224L23.1591 21.5915L24.967 21.9695L25.3417 21.5775L24.4137 20.293ZM25.9254 20.2265L24.6882 19.7435L24.4617 20.111L25.6989 20.594L25.4549 21L25.7643 21.119L26.4787 19.943L26.1694 19.824L25.9254 20.2265ZM25.7338 18.592C25.6684 18.578 25.4724 18.5395 25.3896 18.774C25.3722 18.8125 25.3242 18.984 25.5203 19.0225C25.6031 19.0365 25.6684 19.0225 25.7163 18.9315L25.9298 18.606C25.9951 18.515 26.1433 18.2805 26.5005 18.3435C26.7793 18.396 26.971 18.62 26.8447 19.0505C26.666 19.6 26.3088 19.5475 26.1302 19.523L26.2609 19.131C26.3088 19.145 26.4874 19.1835 26.5528 18.9875C26.5833 18.8685 26.5353 18.7915 26.4395 18.7635C26.3088 18.739 26.2609 18.816 26.226 18.8685L26.0648 19.117C25.9516 19.2885 25.8035 19.495 25.4637 19.432C25.089 19.355 25.0062 19.054 25.1195 18.7005C25.1674 18.557 25.2676 18.3225 25.4767 18.228C25.6379 18.151 25.8035 18.1895 25.8819 18.2035L25.7338 18.592ZM27.0668 17.626L27.0189 18.046L25.2937 17.927L25.3417 17.507L27.0668 17.626ZM27.0363 16.2645L27.0668 16.6705L25.6815 16.737L25.7294 17.3915L25.3852 17.4055L25.3025 16.345C25.3068 16.3415 27.0363 16.2645 27.0363 16.2645ZM26.6268 14.812L26.4787 14.42L25.5334 14.644C25.2545 14.7105 24.784 14.8155 25.0106 15.4805C25.0759 15.652 25.2066 15.9005 25.4506 15.9915C25.5987 16.058 25.8078 16.03 25.9864 15.9775L26.9492 15.7535L26.8185 15.3755L25.8557 15.5995C25.6945 15.638 25.4506 15.666 25.3504 15.4175C25.3199 15.3265 25.333 15.2215 25.3983 15.141C25.4462 15.0885 25.5464 15.064 25.6248 15.036L26.6268 14.812ZM24.7884 13.6605L25.0324 14L25.5377 13.5555L24.7884 13.6605ZM23.843 13.398L24.087 13.7515L24.4442 13.699L24.8015 14.21L24.5575 14.434L24.8363 14.826L25.9777 13.636L25.6684 13.2055C25.6684 13.202 23.843 13.398 23.843 13.398ZM24.3005 12.18L23.9563 12.4285L24.1044 12.558C24.1872 12.635 24.3179 12.754 24.4965 12.6245C24.6577 12.5055 24.5444 12.4005 24.4486 12.3095L24.3005 12.18ZM22.9151 12.6245L23.2593 12.9255L23.7167 12.6L23.9302 12.796C23.9955 12.8625 24.1436 12.992 24.2874 13.0305C24.3702 13.055 24.5967 13.1075 24.8232 12.9395C24.9844 12.8205 25.0367 12.677 25.0019 12.5335C24.9714 12.404 24.8537 12.285 24.7579 12.208L24.2046 11.711L22.9151 12.6245Z" fill="black"/>
<path fill-rule="evenodd" clip-rule="evenodd" d="M2.06933 6.804C3.03211 7.602 4.05589 8.3755 5.01867 9.1595C5.39333 9.408 5.60679 9.7335 6.30383 9.723C6.23848 9.6565 5.95967 9.646 5.89868 9.5795C5.60679 9.3975 5.45867 9.212 5.16679 9.016C4.25628 8.2565 3.21073 7.497 2.30022 6.741C2.11725 6.7235 2.1826 6.79 2.06933 6.804ZM9.52763 10.794C9.20089 10.5455 8.87416 10.311 8.55178 10.0625C8.17712 9.8805 7.98108 10.038 7.60642 10.206C7.88524 9.695 7.85038 9.5795 7.54107 9.303C6.92245 8.7675 6.14264 8.1655 5.70264 7.6265C6.3866 8.0465 7.07057 8.6345 7.73712 9.1035C8.11177 9.275 8.14227 9.3905 8.86109 9.1805C8.68247 9.4675 8.51693 9.653 8.77831 9.926L9.6104 10.71C9.57555 10.7555 9.54506 10.78 9.52763 10.794ZM25.6684 10.8325C25.9951 10.584 26.3349 10.3495 26.6617 10.101C27.0363 9.905 27.2498 10.0765 27.6245 10.2445C27.3457 9.7195 27.3805 9.604 27.6898 9.3275C28.3084 8.778 29.1057 8.176 29.5631 7.6265C28.8617 8.0465 28.1647 8.6485 27.4938 9.1315C27.1191 9.303 27.0886 9.4185 26.3524 9.2085C26.531 9.4955 26.6965 9.681 26.4351 9.954C26.1563 10.2165 25.8819 10.4895 25.6031 10.752C25.6161 10.794 25.6336 10.822 25.6684 10.8325ZM29.3976 4.5395C29.4281 4.6305 29.4934 4.564 29.4934 4.711C28.6613 5.523 27.8336 6.4365 27.0015 7.2625C26.8054 7.525 26.5963 7.6545 26.4003 7.917C26.3175 7.9695 26.3524 8.204 26.2696 8.2565C26.1738 7.707 26.5484 7.483 26.8229 7.1575C27.7029 6.307 28.535 5.39 29.3976 4.5395ZM18.5499 30.0685C24.283 29.701 28.3215 27.3875 30.5999 23.317C30.9267 22.743 29.7199 22.7535 29.232 22.6905L30.796 22.5085C31.1706 22.456 31.8546 21.4235 32.1334 20.937C31.9722 21.329 31.5148 22.4035 31.5453 22.7045C31.5758 23.149 31.7893 23.6215 31.9374 24.1185C31.7588 23.751 31.2708 22.9005 30.8962 23.5025C28.1255 28.105 23.5642 29.988 18.5325 30.3275C18.5151 30.1455 18.5673 30.226 18.5499 30.0685ZM28.3694 27.4505L30.5172 29.2565C30.5825 29.309 30.6479 29.19 30.5825 29.1375L28.4827 27.3315C28.4173 27.426 28.4522 27.398 28.3694 27.4505ZM27.1322 26.1695L24.723 24.0625C24.6751 24.087 24.6272 24.129 24.5749 24.1535L27.0015 26.2605C27.0363 26.2325 27.1322 26.1695 27.1322 26.1695ZM17.5087 28.21V32.004C17.378 31.507 16.4675 30.3555 15.6354 30.289C12.7384 30.079 10.1158 29.1515 7.89831 27.608C6.46502 26.6 5.17986 25.2665 4.13866 23.499C3.764 22.897 3.27607 23.7475 3.09746 24.115C3.24558 23.618 3.45469 23.1455 3.48954 22.701C3.52004 22.386 3.06696 21.3255 2.90142 20.9335C3.16281 21.406 3.8642 22.4525 4.23886 22.505L5.80284 22.687C5.33234 22.7395 4.12559 22.7535 4.4349 23.3135C5.31491 24.9375 6.60007 26.3375 8.14662 27.4225C10.2944 28.952 12.9997 29.897 15.7051 30.0125C16.4806 30.0545 17.2778 28.6545 17.5087 28.21ZM7.85038 26.208C7.85038 26.222 7.93316 26.2745 7.98108 26.299L10.6037 24.0485C10.5383 24.0345 10.473 24.01 10.4251 23.996L7.85038 26.208ZM6.57829 27.489C6.49552 27.4225 6.53037 27.4505 6.46502 27.37L4.19965 29.3055C4.1343 29.358 4.21708 29.477 4.265 29.4245L6.57829 27.489ZM21.0244 6.8705H13.8928V6.727H21.0113V6.8705H21.0244ZM21.0244 5.5475V5.691H14.9689C14.2675 5.691 14.237 5.901 14.1368 6.174H13.9103V5.5475H21.0244ZM15.7487 1.792C15.2913 2.366 14.9994 3.178 15.5875 3.7555C15.3087 3.0485 15.4263 2.3415 15.9142 1.925C15.814 1.8585 15.814 1.8445 15.7487 1.792ZM19.0204 3.675C19.4256 3.2305 19.3297 2.6425 18.8418 2.3275C19.2339 2.8105 19.2339 3.269 18.8244 3.661C18.9246 3.703 19.0204 3.675 19.0204 3.675Z" fill="white"/>
<path fill-rule="evenodd" clip-rule="evenodd" d="M19.639 17.8605C19.5737 17.4405 19.5563 17.0485 19.5563 16.6565C19.5563 15.7395 19.7044 14.8645 19.9004 13.9335L19.9832 13.9475C19.7872 14.8645 19.639 15.7395 19.639 16.6565C19.639 17.0485 19.6695 17.4405 19.7218 17.8605C19.7697 18.2 19.8351 18.5535 19.9353 18.907L19.8525 18.921C19.7567 18.5535 19.6913 18.214 19.639 17.8605Z" fill="black"/>
<path fill-rule="evenodd" clip-rule="evenodd" d="M20.0006 18.907C20.018 19.0645 20.0311 19.222 20.066 19.3795C21.2727 18.739 22.523 18.228 23.8779 17.822C23.8125 17.717 23.7472 17.598 23.7167 17.4965C22.3618 17.808 21.1551 18.291 20.0006 18.907ZM23.2723 16.5235C23.3377 16.695 23.3856 16.849 23.4858 17.0205C22.0874 17.192 20.8153 17.8465 19.7741 18.3435C19.7436 18.186 19.7087 17.9235 19.6913 17.8605C19.6913 17.8605 21.2858 16.891 23.2723 16.5235ZM18.502 15.505C16.8552 15.505 14.1847 16.7755 14.1847 16.7755C14.2326 16.919 14.298 17.052 14.3459 17.1955C15.9404 16.5935 17.9444 15.5995 19.6216 16.1105C19.6216 16.1105 21.3468 15.183 22.8933 15.0115C22.8454 14.777 22.8454 14.658 22.828 14.539C21.4296 14.7735 19.6695 15.6135 19.6521 15.6135C19.1032 15.4385 18.6632 15.505 18.502 15.505ZM19.7872 14.42C19.7872 14.42 21.3511 13.7655 22.7496 13.3595C22.7496 13.531 22.767 13.699 22.767 13.8845C20.8632 14.3675 19.7392 15.036 19.7218 15.036C19.3167 14.854 17.8834 14.959 17.8006 15.022C17.7701 14.8505 17.7353 14.6685 17.7048 14.497C18.3234 14.2765 19.0858 14.224 19.7872 14.42ZM17.5392 13.5275C17.5392 13.5275 17.6046 14 17.622 13.986C18.3364 13.7095 18.9899 13.776 19.822 14.1435C19.8394 14.0665 19.8874 13.804 19.8874 13.818C18.8766 13.202 18.1273 13.398 17.5392 13.5275ZM22.9805 15.4525C23.011 15.6345 23.0632 15.8585 23.0937 15.9635C21.1551 16.331 20.2446 16.8665 19.6085 17.192C17.7701 16.7615 14.7249 18.214 14.7249 18.214C14.677 18.0705 14.6117 17.927 14.5637 17.7695C14.5637 17.7695 17.9531 16.1735 19.5955 16.646C20.6018 16.107 21.643 15.687 22.9805 15.4525ZM14.934 18.774L15.0822 19.2465C15.0822 19.2465 17.8006 17.7275 19.7218 18.095C19.6739 17.9235 19.6913 17.8325 19.6565 17.6505C17.8964 17.3495 14.934 18.774 14.934 18.774ZM19.8046 18.515C18.0446 18.214 15.2433 19.7715 15.2433 19.7715C15.2913 19.929 15.3261 20.0865 15.374 20.2545C15.374 20.2545 18.0446 18.683 19.9004 18.9315C19.8351 18.7635 19.8351 18.711 19.8046 18.515ZM17.6873 19.9535C18.2755 19.719 19.0073 19.4425 19.6434 19.285C19.8046 19.285 19.8394 19.3375 19.7392 19.481C19.0858 19.901 18.3408 20.1495 17.6525 20.398C17.6394 20.2545 17.6525 20.111 17.6873 19.9535ZM24.2177 18.396C24.3005 18.5395 24.3658 18.6445 24.4965 18.802C22.266 19.481 20.0355 20.9475 18.3582 21.3675C18.1317 21.392 18.0141 21.3535 17.757 21.014C19.7697 20.5555 21.4818 19.2745 24.2177 18.396ZM15.422 20.7655C15.1301 19.089 13.7447 15.442 12.8647 14.497C15.0647 13.4505 17.1297 12.719 18.7285 12.8345C19.9483 12.9115 19.9353 13.489 19.883 13.9195C20.6802 13.58 21.5297 13.2265 22.8323 12.887C22.7365 15.085 23.2375 17.2165 24.8842 19.2465C22.9282 19.6385 21.2684 21.0245 19.4953 21.4725C17.3127 22.022 17.5741 20.412 17.6568 19.733C16.938 19.915 16.0885 20.3455 15.422 20.7655Z" fill="black"/>
<path fill-rule="evenodd" clip-rule="evenodd" d="M12.9126 14.511C13.3831 15.036 14.0366 16.436 14.1673 16.7615C15.3871 16.2785 16.5111 15.7535 17.879 15.5575C17.7483 14.6405 17.5697 13.8565 17.4085 12.9535C16.4632 13.0305 14.6901 13.6605 12.9126 14.511Z" fill="#D71E25"/>
<path fill-rule="evenodd" clip-rule="evenodd" d="M16.9032 14.8365C16.8727 13.489 14.1847 13.489 14.2152 14.8365C14.2457 16.184 16.938 16.184 16.9032 14.8365Z" fill="white"/>
<path fill-rule="evenodd" clip-rule="evenodd" d="M15.7966 14.287C15.7966 14.287 15.7008 14.287 15.7138 14.3115H15.6964V14.336H15.7269C15.7269 14.336 15.7443 14.322 15.7443 14.336C15.7618 14.322 15.7748 14.3115 15.7923 14.3115V14.287H15.7966ZM14.5419 14.9415V14.917C14.5419 14.917 14.5419 14.903 14.5594 14.903V14.889C14.5768 14.8505 14.5419 14.8505 14.5899 14.812C14.6073 14.812 14.6378 14.798 14.6378 14.7875C14.6378 14.7875 14.6552 14.7875 14.6552 14.7735L14.7206 14.749C14.7206 14.7245 14.738 14.672 14.738 14.644C14.7554 14.63 14.738 14.6195 14.738 14.6055H14.7206C14.7206 14.5915 14.7031 14.5915 14.7031 14.5915V14.5775H14.7206V14.5635H14.738V14.5495H14.7206C14.7206 14.5495 14.7206 14.5355 14.7031 14.5355V14.525C14.7336 14.511 14.799 14.4725 14.8338 14.5005C14.8513 14.5005 14.982 14.5145 14.995 14.476H15.0124L15.0299 14.462C15.0299 14.448 15.0473 14.4375 15.0299 14.4235H15.0124V14.4095H14.995V14.3955H14.9776V14.371L15.1388 14.3185V14.3045H15.1562C15.1562 14.2905 15.1562 14.2905 15.1736 14.2905V14.2765H15.1911V14.2625C15.2085 14.2625 15.2216 14.2765 15.239 14.2765C15.239 14.2765 15.239 14.2905 15.2564 14.2765C15.2564 14.2905 15.2564 14.301 15.2738 14.301C15.2564 14.301 15.2433 14.3255 15.2433 14.3255V14.378C15.2608 14.378 15.2608 14.392 15.2608 14.392C15.2433 14.378 15.2608 14.392 15.2608 14.406H15.2782C15.2608 14.406 15.2608 14.406 15.2782 14.42C15.2956 14.42 15.3087 14.406 15.3261 14.406V14.392C15.3435 14.392 15.374 14.378 15.3915 14.3675V14.343C15.3915 14.343 15.4089 14.343 15.4089 14.329C15.4263 14.329 15.4089 14.315 15.4089 14.315C15.4263 14.301 15.4917 14.2765 15.5047 14.2905L15.5527 14.2765V14.2625C15.5527 14.2625 15.5701 14.2485 15.5831 14.2485V14.2345L15.6006 14.2205V14.182C15.6006 14.182 15.618 14.182 15.618 14.168L15.6354 14.154V14.14H15.6659V14.154C15.6659 14.154 15.6833 14.168 15.6833 14.1785V14.203C15.6833 14.203 15.7008 14.217 15.7008 14.2275C15.7182 14.2275 15.7313 14.2415 15.7487 14.2415V14.266C15.7487 14.28 15.7008 14.3185 15.7008 14.3185C15.7008 14.3185 15.7008 14.3325 15.6833 14.3325V14.357H15.6659V14.371H15.6833C15.6833 14.371 15.7008 14.371 15.7008 14.385H15.7182C15.7182 14.399 15.7182 14.399 15.7356 14.385H15.753C15.7835 14.371 15.8184 14.3605 15.8358 14.3325L15.8532 14.3185C15.8707 14.3185 15.9186 14.28 15.9186 14.3045C15.936 14.3045 15.9665 14.2905 15.9665 14.2905H15.9839C16.0014 14.2905 16.0319 14.2765 16.0493 14.2905V14.3045L16.0798 14.3185C16.0798 14.3185 16.1451 14.294 16.1451 14.3045L16.1756 14.2905C16.1931 14.3045 16.241 14.2765 16.2715 14.2765C16.2715 14.2905 16.302 14.2625 16.3194 14.2765H16.3673C16.3673 14.2765 16.3847 14.2905 16.3978 14.2765L16.4283 14.2905C16.4283 14.3045 16.4588 14.3045 16.4762 14.2905C16.4762 14.3045 16.5067 14.2905 16.5241 14.2905C16.5241 14.2905 16.5416 14.3045 16.5416 14.2905C16.5416 14.3045 16.559 14.3045 16.559 14.3045H16.5764C16.5764 14.3185 16.5939 14.329 16.5939 14.329C16.5939 14.3535 16.6113 14.4585 16.5764 14.4585C16.5764 14.4725 16.5764 14.483 16.559 14.483V14.497C16.5416 14.497 16.5416 14.511 16.5416 14.511V14.5355H16.5241L16.5067 14.56C16.5067 14.56 16.5067 14.574 16.4893 14.5845V14.5985H16.4719C16.4719 14.6125 16.4544 14.623 16.4544 14.637L16.4239 14.651V14.728C16.4239 14.742 16.4414 14.7805 16.4239 14.7945C16.4239 14.819 16.4065 14.847 16.4065 14.8715C16.3891 14.8855 16.4065 14.924 16.3891 14.938V14.952C16.3891 14.952 16.3891 14.966 16.3717 14.966C16.3891 14.952 16.3717 14.966 16.3717 14.98C16.3717 14.98 16.3717 14.994 16.3542 14.994C16.3542 15.008 16.3368 15.008 16.3368 15.0185V15.0325L16.3194 15.0465V15.071L16.302 15.085C16.2845 15.085 16.2845 15.099 16.2845 15.099C16.2671 15.099 16.1887 15.113 16.1887 15.1235C16.1713 15.1235 16.1408 15.1375 16.1408 15.148C16.1234 15.148 16.058 15.1725 16.0449 15.1865C16.0275 15.1865 16.0275 15.2005 16.0275 15.211L16.0101 15.225C16.0101 15.225 15.9927 15.239 15.9927 15.2495V15.2635L15.9752 15.2775L15.9578 15.316C15.9578 15.3545 15.9752 15.393 15.9578 15.435C15.9404 15.435 15.9404 15.449 15.9404 15.449V15.463C15.923 15.463 15.923 15.477 15.923 15.4875C15.923 15.4735 15.923 15.463 15.923 15.4875V15.512L15.9055 15.526L15.8881 15.54L15.8707 15.554V15.568H15.8532V15.5435H15.8707V15.5295C15.8881 15.5295 15.8881 15.5155 15.8881 15.5155C15.8881 15.5015 15.8881 15.5015 15.9055 15.491L15.875 15.505V15.519C15.8576 15.519 15.8576 15.533 15.8576 15.533V15.547H15.8402C15.8402 15.561 15.8228 15.5995 15.8228 15.5995V15.6135C15.8228 15.6275 15.8228 15.6275 15.8053 15.638L15.7879 15.652V15.6275C15.8053 15.6275 15.7574 15.589 15.7574 15.589V15.575L15.7269 15.561H15.6833C15.6833 15.547 15.6659 15.547 15.6659 15.547H15.6006C15.6006 15.533 15.6311 15.5085 15.6311 15.4945C15.6485 15.4945 15.6485 15.4805 15.6616 15.4805C15.6616 15.4805 15.679 15.4805 15.679 15.4665H15.6964V15.4525C15.7138 15.4525 15.7138 15.414 15.7269 15.414C15.7269 15.414 15.7443 15.4 15.7443 15.3895C15.7443 15.3895 15.7618 15.3895 15.7618 15.3755C15.7792 15.3755 15.7792 15.3615 15.7923 15.3615V15.323L15.7748 15.309C15.7574 15.309 15.7443 15.295 15.7443 15.309L15.6311 15.295C15.6136 15.295 15.6006 15.295 15.5831 15.309V15.2705H15.5657C15.5657 15.2565 15.5483 15.2565 15.5483 15.2565C15.5483 15.2565 15.5309 15.2565 15.5309 15.2425C15.5134 15.2425 15.4829 15.2565 15.4481 15.2565C15.4307 15.232 15.4481 15.1655 15.4176 15.1515C15.4176 15.113 15.3697 15.085 15.3697 15.0605L15.3523 15.0465H15.3348C15.3174 15.0465 15.3043 15.0465 15.2695 15.0605L15.2521 15.008C15.2346 15.008 15.1867 15.022 15.1562 15.022H15.1388C15.1388 15.008 15.1214 15.022 15.1214 15.008C15.1039 15.008 15.0909 15.008 15.0909 14.994C15.0734 14.994 15.0255 14.994 15.0255 14.98H15.0081L14.9776 14.9135V14.8995C14.9602 14.8995 14.9471 14.8995 14.9122 14.9135C14.9122 14.9135 14.8948 14.9275 14.8948 14.938C14.8948 14.938 14.8774 14.938 14.8774 14.952L14.8469 14.9765V14.9905L14.8295 15.0045H14.812C14.7946 15.0185 14.7641 15.0185 14.7467 15.0185H14.7293V14.98L14.6814 14.994L14.6639 15.008C14.6465 15.008 14.6334 15.022 14.6334 15.008H14.6029C14.6029 14.994 14.6029 14.994 14.5855 15.008C14.5855 14.994 14.5855 14.9835 14.5681 14.9835C14.5594 14.9415 14.5419 14.9415 14.5419 14.9415Z" fill="black"/>
<path fill-rule="evenodd" clip-rule="evenodd" d="M14.3633 16.289V16.485L14.5245 16.3275L14.7685 16.38L14.6204 16.2225L14.7685 16.065L14.5419 16.1175L14.3808 15.96L14.3633 16.156L14.1368 16.2085L14.3633 16.289ZM13.5661 14.7595V14.9555L13.7273 14.798L13.9712 14.8505L13.8231 14.693L13.9538 14.5355L13.7273 14.588L13.5661 14.4305L13.5487 14.6265L13.3221 14.679L13.5661 14.7595ZM16.7725 13.58V13.776L16.9337 13.6185L17.1776 13.671L17.0295 13.5135L17.1602 13.356L16.9337 13.4085L16.7725 13.251L16.755 13.447L16.5285 13.4995L16.7725 13.58ZM17.2299 15.281V15.477L17.3911 15.3195L17.635 15.372L17.4869 15.2145L17.635 15.057L17.4085 15.1095L17.2473 14.952L17.2299 15.148L17.0034 15.2005L17.2299 15.281Z" fill="white"/>
<path fill-rule="evenodd" clip-rule="evenodd" d="M15.4394 22.7535C15.422 22.701 12.8168 16.1315 12.1328 14.406L12.7035 14.2625C13.5356 16.2785 16.2192 22.8585 16.2845 22.988C16.1408 22.974 15.4873 22.7675 15.4394 22.7535Z" fill="black"/>
<path fill-rule="evenodd" clip-rule="evenodd" d="M28.548 17.374C28.5175 17.3355 28.4653 17.283 28.4348 17.2445L28.2736 17.0485H28.1908C28.0775 16.8525 28.0296 16.618 28.0296 16.3695C28.0296 16.2505 28.047 16.1455 28.047 16.03C28.095 16.0685 28.1429 16.0965 28.1429 16.0965C28.2387 16.163 28.3564 16.24 28.4043 16.3065C28.5524 16.5305 28.6003 16.737 28.6003 16.947C28.596 17.087 28.5829 17.2305 28.548 17.374ZM28.2867 18.697C28.3999 18.4625 28.5306 18.2 28.5306 17.899C28.5306 17.808 28.5132 17.717 28.4827 17.6225C28.3694 17.5315 28.2692 17.4265 28.1734 17.3355C28.0775 17.584 27.9948 17.8325 27.9948 18.0565C27.9948 18.1475 28.0122 18.228 28.0253 18.305C28.0427 18.3715 28.0732 18.4345 28.1211 18.515L28.2344 18.6865C28.2344 18.7005 28.2518 18.7005 28.2518 18.711C28.2736 18.697 28.2867 18.697 28.2867 18.697ZM27.8815 20.097C27.8815 20.097 27.8641 20.111 27.8641 20.1215C27.7813 19.95 27.716 19.782 27.7029 19.691C27.7029 19.6525 27.6855 19.614 27.6855 19.572C27.6855 19.2955 27.8336 18.97 28.0122 18.669C28.0601 18.76 28.1255 18.8405 28.1908 18.9315C28.2082 18.97 28.2213 18.998 28.2213 19.0225C28.2387 19.075 28.2387 19.1275 28.2387 19.194C28.2562 19.5475 28.0601 19.8345 27.8815 20.097ZM27.1975 21.3255C27.4415 21.063 27.7203 20.7515 27.7203 20.3175C27.7203 20.2405 27.6724 20.1355 27.607 20.041C27.607 20.041 27.5896 19.9885 27.5591 19.936C27.2977 20.251 27.0712 20.6045 27.0712 20.916V20.9685C27.0668 20.986 27.1148 21.21 27.1975 21.3255ZM26.2696 22.505L26.2522 22.519C26.2522 22.4665 26.2348 22.414 26.2348 22.3615C26.2348 22.2565 26.2522 22.1515 26.2652 22.0745C26.3306 21.7875 26.6094 21.5005 26.9187 21.21C26.9666 21.301 27.0146 21.3675 27.032 21.5355V21.588C26.9187 22.008 26.5789 22.2705 26.2696 22.505ZM26.091 22.0465C26.1738 21.679 26.5136 21.3395 26.8882 21.014V20.937C26.8882 20.531 27.215 20.111 27.5068 19.747C27.5068 19.747 27.5243 19.733 27.5243 19.7225C27.4589 19.3445 27.6855 18.9105 27.9294 18.494C27.8989 18.4415 27.8815 18.389 27.8641 18.3505C27.7508 18.011 27.8815 17.577 28.0427 17.1745L28.0253 17.1605C27.7987 16.821 27.8292 16.009 27.8946 15.8655C27.5853 15.526 27.5199 15.001 27.5025 14.637L27.4546 14.5985C27.1104 14.322 26.9492 13.867 26.8185 13.4085C26.8011 13.4085 26.8011 13.3945 26.788 13.3945C26.3959 13.16 26.1694 12.7155 25.9734 12.271C25.9734 12.271 25.8601 12.2185 25.7947 12.194C25.3547 11.984 25.0934 11.62 24.8668 11.2385C24.8494 11.2385 24.8363 11.2245 24.8189 11.2245C24.3615 11.1055 23.9563 10.752 23.5817 10.3985H23.5642C23.0937 10.332 22.6363 10.031 22.2137 9.7195H22.1309C21.643 9.7195 21.1202 9.485 20.6323 9.2225L20.6149 9.2085C20.127 9.261 19.5737 9.065 19.0858 8.883C19.0204 8.897 18.9551 8.9215 18.9071 8.9355C18.5151 9.0125 18.0446 8.9355 17.5871 8.8165H17.5697C17.1471 8.9985 16.5416 8.974 15.9578 8.9215L15.9447 8.925C15.5701 9.135 15.0168 9.1875 14.481 9.2015C14.4635 9.2155 14.4505 9.24 14.433 9.254C13.8972 9.674 12.9344 9.7265 12.9344 9.7265C12.917 9.7405 12.917 9.751 12.9039 9.765C12.612 10.066 12.0588 10.2375 11.5185 10.381C11.4881 10.4335 11.4706 10.472 11.4358 10.5105C11.1918 10.836 10.7213 11.06 10.2639 11.242C10.2639 11.2665 10.2465 11.2945 10.2465 11.3085C9.93714 11.949 9.18783 12.278 9.18783 12.278C9.18783 12.292 9.1704 12.3165 9.1704 12.3165C9.08763 12.6945 8.7304 13.0375 8.37316 13.349V13.426C8.37316 13.818 8.08128 14.224 7.75454 14.616C7.75454 14.616 7.73712 14.63 7.73712 14.6405C7.80247 15.0325 7.5585 15.477 7.33196 15.869C7.36246 15.9215 7.37989 15.974 7.39731 16.0125C7.51058 16.38 7.36682 16.8245 7.18384 17.255C7.37989 17.5945 7.34503 18.053 7.29711 18.4975L7.31454 18.5115C7.57593 18.8265 7.64128 19.285 7.6587 19.74L7.70662 19.7785C8.06385 20.0655 8.21197 20.552 8.30782 20.9825C8.6999 21.217 8.90901 21.6615 9.10505 22.106L9.25317 22.183C9.65833 22.365 9.93714 22.757 10.1637 23.1245C10.1942 23.1245 10.2116 23.1385 10.2465 23.1385C10.717 23.2575 11.1265 23.6215 11.4663 23.9645H11.4968C11.9847 24.031 12.4421 24.3425 12.8342 24.6435H12.8821C13.3701 24.6435 13.8754 24.878 14.3633 25.1405C14.3633 25.1405 14.3808 25.1545 14.3938 25.1545C14.8992 25.102 15.4525 25.298 15.9404 25.494C16.0232 25.4695 16.0885 25.4555 16.1538 25.4415C16.5764 25.3505 17.0992 25.4555 17.6046 25.585C17.6351 25.571 17.6525 25.5605 17.6873 25.5465C18.1099 25.3645 18.7155 25.389 19.2992 25.4415C19.2992 25.4415 19.3167 25.4415 19.3167 25.4275C19.6913 25.2175 20.2446 25.179 20.7804 25.151C20.7979 25.137 20.8109 25.1125 20.8284 25.0985C21.1725 24.822 21.7563 24.7065 22.327 24.6155L22.3575 24.64C22.3749 24.626 22.3749 24.6155 22.388 24.6155C22.6973 24.3005 23.2506 24.1185 23.7559 23.989C23.7864 23.9365 23.8038 23.898 23.8387 23.8595C24.0652 23.5445 24.4747 23.2855 25.0106 23.128C25.0106 23.1035 25.028 23.0755 25.028 23.0615C25.1108 22.5295 26.091 22.0465 26.091 22.0465ZM26.0256 22.6625C25.8645 23.0825 25.4898 23.303 25.1631 23.499C25.1151 23.2645 25.1805 23.121 25.1805 23.121C25.1805 23.107 25.1805 23.0965 25.1979 23.0965C25.3112 22.7955 25.6553 22.5225 26.03 22.2705V22.3755C26.03 22.442 26.0474 22.4945 26.0474 22.547C26.0474 22.5995 26.0431 22.6345 26.0256 22.6625ZM23.7777 24.325C23.7603 24.311 23.7777 24.3005 23.7777 24.2865L23.843 24.115C23.8735 24.038 23.9258 23.9715 23.9563 23.919C24.1349 23.6705 24.5096 23.4745 24.9322 23.303C24.9801 23.4325 24.9496 23.527 24.9017 23.6705C24.6098 24.0485 24.1698 24.192 23.7777 24.325ZM23.5163 24.4545L23.4684 24.5315C23.1242 24.885 22.6711 24.99 22.2486 25.081C22.2486 25.081 22.2311 25.081 22.2181 25.095C22.3008 24.9375 22.3967 24.794 22.4969 24.703C22.7234 24.4545 23.1634 24.297 23.6209 24.1675C23.6165 24.2585 23.5163 24.4545 23.5163 24.4545ZM22.1004 24.8745C22.0525 24.9795 22.0046 25.0705 21.9218 25.137C21.5472 25.438 21.0897 25.5045 20.6846 25.557C20.7151 25.5325 20.7499 25.347 20.946 25.2035C21.2248 24.9935 21.6779 24.878 22.1658 24.7975C22.1309 24.822 22.1004 24.8745 22.1004 24.8745ZM20.3404 25.62C19.9004 25.8545 19.4299 25.8545 19.0204 25.844H18.9899C19.0204 25.8195 19.0378 25.7915 19.0727 25.767C19.186 25.676 19.2992 25.585 19.3994 25.5325C19.6913 25.361 20.1487 25.3225 20.6062 25.298C20.5539 25.4485 20.4537 25.515 20.3404 25.62ZM18.9725 25.62C18.9071 25.6725 18.8592 25.725 18.7939 25.7775C18.7634 25.7915 18.746 25.816 18.7111 25.83C18.2406 26.026 17.7832 25.9735 17.3911 25.921C17.4216 25.907 17.4564 25.8825 17.4869 25.8545L17.7309 25.725V25.648C17.7309 25.648 17.7483 25.648 17.7483 25.634C18.0925 25.4905 18.5804 25.5045 19.0683 25.529C19.0204 25.578 18.9725 25.62 18.9725 25.62ZM17.0208 25.907C16.498 25.998 16.0754 25.8685 15.6833 25.7355C15.6833 25.7355 15.6659 25.7215 15.6528 25.7215C15.8315 25.6445 16.0275 25.578 16.1756 25.5395C16.5198 25.473 16.9424 25.5395 17.3824 25.6445C17.2647 25.725 17.1341 25.816 17.0208 25.907ZM15.5701 25.578C15.4568 25.6305 15.3261 25.683 15.2259 25.697C14.6726 25.7635 14.2501 25.5675 13.8754 25.396C13.8754 25.396 13.858 25.382 13.8449 25.382C14.041 25.3295 14.237 25.277 14.3808 25.263C14.7728 25.2245 15.2433 25.368 15.6659 25.5255L15.5701 25.578ZM13.5966 25.277C13.0433 25.277 12.6512 25.0425 12.3114 24.8465C12.3114 24.8465 12.294 24.8465 12.294 24.8325C12.3593 24.8185 12.4073 24.8185 12.4726 24.808L12.734 24.7695H12.8473C13.2394 24.7695 13.6619 24.9515 14.0671 25.1615C14.0192 25.1755 13.9538 25.186 13.9538 25.186C13.8275 25.2385 13.6968 25.277 13.5966 25.277ZM12.0675 24.689C11.5142 24.6505 11.1875 24.3355 10.8956 24.087L10.8781 24.073C10.9435 24.073 10.9914 24.073 11.0568 24.059H11.2049C11.2877 24.059 11.353 24.073 11.4183 24.073C11.793 24.1255 12.1677 24.36 12.5249 24.6225C12.4421 24.689 12.1982 24.703 12.0675 24.689ZM10.6821 23.919C10.1593 23.7895 9.88486 23.4885 9.6409 23.226C9.73674 23.1875 10.1463 23.2505 10.1463 23.2505C10.5209 23.3415 10.8607 23.6285 11.1744 23.919C11.0437 23.9575 10.8128 23.9435 10.6821 23.919ZM9.44486 23.016C8.97436 22.792 8.79139 22.442 8.6302 22.127C8.6302 22.127 8.61277 22.113 8.61277 22.1025C8.83931 22.155 9.01792 22.2215 9.13555 22.274C9.46229 22.4315 9.70625 22.7325 9.90229 23.058C9.72367 23.107 9.65833 23.079 9.44486 23.016ZM8.36881 21.8365C7.9288 21.56 7.79811 21.196 7.68484 20.867V20.853C7.73276 20.8775 7.78068 20.8915 7.84603 20.9055C7.97672 20.958 8.08999 21.0105 8.17277 21.063C8.48208 21.245 8.67812 21.5985 8.83931 21.98C8.79139 21.966 8.72604 21.9555 8.72604 21.9555C8.5997 21.903 8.45158 21.875 8.36881 21.8365ZM7.62385 20.6325C7.23177 20.3175 7.16642 19.9395 7.10107 19.6V19.586C7.14899 19.6105 7.18384 19.6245 7.23177 19.6525L7.47573 19.782H7.49315C7.52365 19.796 7.54108 19.8205 7.5585 19.8345C7.83732 20.0585 7.98108 20.4505 8.08128 20.8145C8.06385 20.8005 8.03336 20.8005 8.01593 20.79C7.92009 20.7515 7.81989 20.713 7.70662 20.671C7.65434 20.6605 7.63692 20.6465 7.62385 20.6325ZM7.03572 19.3375C6.79176 19.0505 6.74384 18.7495 6.74384 18.4625V18.214C6.76127 18.228 6.79176 18.2385 6.80919 18.2665C6.95731 18.3715 7.07058 18.4765 7.13592 18.543C7.34939 18.7915 7.41474 19.1695 7.42781 19.551C7.33196 19.4845 7.20127 19.432 7.08365 19.369C7.06622 19.3655 7.05315 19.3515 7.03572 19.3375ZM6.57829 17.402C6.57829 17.598 6.62621 17.808 6.75691 18.004C6.77433 18.0285 6.7874 18.0425 6.82226 18.0705C6.8876 18.123 6.95295 18.1615 7.0183 18.214C7.08365 18.2665 7.06622 18.2525 7.11414 18.2805C7.13157 18.151 7.14464 18.004 7.14464 17.8885C7.14464 17.654 7.11414 17.43 6.99652 17.262H6.97909L6.8179 17.066C6.75255 16.9995 6.70463 16.947 6.65671 16.884V16.898C6.62621 17.0485 6.57829 17.22 6.57829 17.402ZM6.97038 15.624C6.97038 15.624 6.97038 15.61 6.9878 15.61C6.9878 15.624 7.00523 15.6345 7.00523 15.6345L7.088 15.764C7.13592 15.869 7.18384 15.946 7.20127 16.0125C7.23177 16.0895 7.23177 16.17 7.23177 16.261C7.23177 16.4955 7.14899 16.772 7.03572 17.0345C6.95295 16.9435 6.87453 16.8525 6.77433 16.758C6.77433 16.744 6.75691 16.7335 6.75691 16.7335C6.72641 16.6285 6.70899 16.5235 6.70899 16.4185C6.72641 16.121 6.85711 15.8585 6.97038 15.624ZM7.37553 14.21C7.37553 14.21 7.39296 14.196 7.39296 14.1855C7.47573 14.343 7.52365 14.5005 7.54108 14.616C7.54108 14.6545 7.5585 14.693 7.5585 14.735C7.5585 15.022 7.39731 15.351 7.23177 15.638C7.18384 15.547 7.1185 15.456 7.05315 15.3755C7.03572 15.351 7.02265 15.309 7.02265 15.2845C7.00523 15.232 7.00523 15.1655 7.00523 15.113C7.00087 14.7595 7.19691 14.4585 7.37553 14.21ZM8.0595 12.978C8.10742 13.069 8.14227 13.1075 8.19019 13.3175V13.37C8.19019 13.685 7.96366 14.0245 7.70227 14.35C7.65434 14.3115 7.55415 14.049 7.55415 13.972C7.54108 13.5555 7.81553 13.2405 8.0595 12.978ZM8.97436 11.816L8.99178 11.802C8.99178 11.8545 9.00921 11.907 9.00921 11.9595C9.00921 12.0645 8.99179 12.1695 8.97872 12.2465C8.91337 12.5475 8.63455 12.8345 8.32524 13.111C8.14663 12.9535 8.21197 12.6805 8.21197 12.6805C8.32089 12.2325 8.66505 12.0365 8.97436 11.816ZM9.23575 11.6585C9.39694 11.2385 9.7716 11.018 10.0983 10.822C10.1637 11.004 10.0809 11.2 10.0809 11.2C10.0809 11.214 10.0809 11.214 10.0635 11.2245C9.95021 11.5255 9.60605 11.788 9.23139 12.0505C9.15297 11.907 9.21832 11.683 9.23575 11.6585ZM10.3597 10.6365C10.6385 10.2585 11.0742 10.1115 11.4663 9.982C11.4663 9.982 11.4837 9.982 11.4968 9.968C11.4968 9.982 11.4793 9.9925 11.4793 10.0065L11.414 10.164C11.3661 10.255 11.3312 10.3215 11.3007 10.374C11.109 10.6365 10.717 10.8325 10.3249 10.99C10.3074 10.8745 10.2944 10.8325 10.3597 10.6365ZM11.7102 9.9295L11.7407 9.8525L11.7886 9.7755C12.1328 9.422 12.5859 9.317 12.9954 9.226H13.0259C12.93 9.3975 12.8298 9.541 12.7471 9.618C12.5205 9.8665 12.0805 10.024 11.6231 10.1535C11.6623 10.0625 11.6754 10.0345 11.7102 9.9295ZM13.1435 9.4465C13.1914 9.3415 13.2568 9.2225 13.3221 9.17C13.6968 8.869 14.2021 8.8025 14.6247 8.75C14.5419 8.8935 14.3459 9.0755 14.3459 9.0755L14.3154 9.1C14.0366 9.324 13.5835 9.4255 13.0956 9.52C13.1261 9.485 13.1435 9.4465 13.1435 9.4465ZM14.9166 8.701C15.3566 8.4525 15.8271 8.4665 16.254 8.477H16.2845L16.2192 8.5295C16.0885 8.6485 15.9578 8.7395 15.875 8.778C15.5831 8.9495 15.1257 9.002 14.6683 9.0125C14.7554 8.925 14.8382 8.806 14.9166 8.701ZM16.2845 8.687C16.3499 8.6345 16.3978 8.582 16.4632 8.5295C16.4937 8.5155 16.5111 8.491 16.5459 8.491C16.9511 8.3195 17.3432 8.3335 17.7004 8.372C17.6525 8.3965 17.6176 8.4245 17.5697 8.449L17.3257 8.5785L17.3432 8.708C17.0164 8.785 16.6113 8.785 16.2018 8.7465C16.2061 8.7535 16.2845 8.687 16.2845 8.687ZM17.5871 8.6345C17.6699 8.596 17.7832 8.5295 17.8964 8.4525C17.8311 8.477 17.7483 8.5295 17.6699 8.5715C17.6699 8.5715 17.622 8.596 17.5566 8.624C17.5741 8.624 17.5741 8.624 17.5871 8.6345ZM18.2406 8.414L18.2232 8.3895C18.6458 8.351 19.0204 8.4805 19.3646 8.5855H19.382C19.3646 8.5855 19.3515 8.5995 19.3515 8.5995L19.125 8.6905C19.0291 8.715 18.9464 8.743 18.881 8.757C18.5717 8.8235 18.197 8.771 17.805 8.68C17.9618 8.61 18.1099 8.505 18.2406 8.414ZM19.7697 8.61C20.323 8.5575 20.7456 8.7395 21.1202 8.911L21.1377 8.925C20.9242 8.9915 20.7325 9.044 20.6018 9.0545C20.2097 9.093 19.7567 8.9495 19.3297 8.792C19.443 8.7535 19.6565 8.6485 19.6565 8.6485C19.7044 8.624 19.7392 8.61 19.7697 8.61ZM21.3816 9.0265C21.9349 9.0265 22.327 9.261 22.6668 9.457C22.6668 9.457 22.6842 9.471 22.6973 9.471C22.4707 9.5095 22.2747 9.5375 22.144 9.5375C21.7519 9.5375 21.3293 9.3555 20.9068 9.1455C20.9547 9.1315 21.02 9.107 21.02 9.107C21.1725 9.079 21.2858 9.0265 21.3816 9.0265ZM22.8018 9.618C22.8672 9.604 22.9151 9.604 22.963 9.618C23.5163 9.695 23.843 9.9715 24.1524 10.22L24.1698 10.234C24.1044 10.234 24.0391 10.234 23.9737 10.248H23.8256C23.7603 10.248 23.6949 10.234 23.6296 10.234C23.2549 10.1815 22.8628 9.947 22.4882 9.6705C22.5884 9.6565 22.6842 9.6425 22.8018 9.618ZM24.3135 10.388H24.344C24.8799 10.5175 25.1761 10.8325 25.4201 11.1195V11.1335H25.224C25.0759 11.1195 24.9627 11.109 24.8799 11.081C24.5052 10.99 24.1654 10.7135 23.8518 10.4125C24.0042 10.402 24.1524 10.402 24.3135 10.388ZM25.5856 11.305C26.0736 11.529 26.2696 11.879 26.4308 12.194C26.4308 12.194 26.4482 12.208 26.4482 12.2185C26.2522 12.166 26.0561 12.1135 25.9254 12.047C25.5682 11.8755 25.3373 11.5745 25.1282 11.263H25.1587C25.272 11.277 25.4027 11.2875 25.5334 11.2875C25.5508 11.291 25.5682 11.305 25.5856 11.305ZM26.7096 12.481C27.1496 12.7575 27.2977 13.1215 27.411 13.4505V13.4645C27.3631 13.44 27.2977 13.426 27.2498 13.412L27.1191 13.3595C27.0363 13.321 26.971 13.293 26.9231 13.2685C26.6138 13.0865 26.4003 12.733 26.2391 12.3515C26.3045 12.3655 26.3698 12.39 26.3698 12.39C26.4961 12.404 26.6268 12.4285 26.7096 12.481ZM27.5068 13.6745C27.912 13.9895 27.9773 14.3815 28.0427 14.707C28.0122 14.693 27.9599 14.6685 27.9294 14.6545L27.668 14.525C27.6375 14.511 27.6201 14.4865 27.5853 14.4725C27.3064 14.2485 27.1627 13.8845 27.0494 13.503C27.1801 13.5555 27.3108 13.608 27.4546 13.6605C27.4763 13.6605 27.4894 13.6745 27.5068 13.6745ZM28.1429 14.9695C28.1429 14.9555 28.1255 14.9555 28.1124 14.945C27.9643 14.8785 27.8336 14.8155 27.7203 14.749C27.7508 15.0885 27.8162 15.4945 28.0645 15.771C28.1472 15.862 28.291 15.981 28.4566 16.0965V15.9145C28.4522 15.61 28.4173 15.281 28.1429 14.9695ZM28.7267 17.4405C28.792 17.115 28.8574 16.695 28.596 16.2645L28.6439 16.0685C28.6439 16.002 28.6613 15.295 28.2997 14.8925C28.2997 14.8785 28.2823 14.8785 28.2692 14.868L28.2387 14.7105C28.1734 14.371 28.0906 13.951 27.6506 13.5975L27.5853 13.426C27.4546 13.1005 27.3064 12.6805 26.8185 12.3795C26.788 12.355 26.7532 12.341 26.7053 12.3025L26.6573 12.2255L26.6094 12.1485C26.4308 11.823 26.2348 11.4555 25.712 11.207L25.5813 11.0495C25.3373 10.773 25.0106 10.4335 24.4399 10.276L24.2787 10.1325C23.9868 9.884 23.6121 9.569 22.9935 9.478H22.9761L22.7975 9.359C22.4533 9.149 22.0307 8.9005 21.4121 8.9005L21.2161 8.7955C20.8414 8.624 20.3709 8.4175 19.7523 8.4805C19.7044 8.4805 19.6565 8.4945 19.6042 8.519L19.443 8.4665C19.0509 8.337 18.5804 8.19 18.0097 8.2845H17.9618C17.5392 8.232 17.0164 8.1655 16.4806 8.3755L16.254 8.3615C15.8315 8.3475 15.2913 8.337 14.7728 8.624C14.7728 8.624 14.7554 8.624 14.7554 8.638L14.5942 8.6625C14.1716 8.715 13.6314 8.7675 13.1958 9.121C13.1958 9.121 12.9998 9.135 12.9039 9.1455C12.5946 9.2225 12.0065 9.3415 11.6318 9.7335C11.6013 9.758 11.5839 9.8 11.5665 9.8245L11.4053 9.849C11.0132 9.9785 10.5253 10.15 10.216 10.57L10.0548 10.661C9.71061 10.857 9.27496 11.1195 9.09198 11.5885C9.09198 11.5885 9.07456 11.5885 8.87852 11.7075C8.68247 11.8265 8.17712 12.243 8.06385 12.7295V12.754L7.96801 12.859C7.70662 13.1355 7.39731 13.475 7.37989 13.972C7.37989 13.972 7.37989 13.9475 7.24919 14.1295C7.10107 14.3115 6.77869 14.8085 6.85711 15.3055C6.85711 15.344 6.87453 15.3825 6.90503 15.4245L6.83968 15.568C6.69156 15.869 6.51295 16.2365 6.61314 16.681C6.61314 16.681 6.5478 16.7335 6.5173 16.877C6.48681 17.0205 6.36918 17.6365 6.63057 18.067L6.61314 18.249C6.59572 18.5885 6.58265 19.0225 6.93988 19.439L6.97038 19.621C7.03572 19.9605 7.10107 20.3665 7.52365 20.72L7.57157 20.902C7.68484 21.2415 7.83296 21.6475 8.32089 21.9485C8.35138 21.973 8.41673 22.015 8.41673 22.015L8.4995 22.1865C8.66069 22.5015 8.87416 22.8935 9.39694 23.142L9.52763 23.2855C9.7716 23.562 10.0809 23.9015 10.669 24.059L10.8302 24.1885C11.1221 24.437 11.4837 24.752 12.0849 24.843L12.3942 25.053C12.7384 25.263 13.0302 25.431 13.6489 25.431L13.8449 25.55C14.2196 25.7215 14.6901 25.928 15.3087 25.865C15.374 25.865 15.422 25.8405 15.4873 25.8265L15.6833 25.893C16.0754 26.0225 16.5808 26.18 17.182 26.0645H17.1994L17.3606 26.089C17.7832 26.1415 18.2885 26.208 18.8418 25.998L19.0858 26.012C19.5083 26.026 20.0485 26.0365 20.5495 25.7495C20.5495 25.7495 20.567 25.7495 20.567 25.7355L20.7282 25.7215C21.1507 25.669 21.6909 25.6165 22.1266 25.263C22.1266 25.263 22.1571 25.277 22.3705 25.249C22.5971 25.2245 23.2985 25.039 23.6906 24.647C23.7211 24.6225 23.7385 24.5805 23.7559 24.556L23.9171 24.5035C24.3092 24.374 24.7971 24.2025 25.1064 23.7825L25.285 23.6775C25.6292 23.4815 26.0648 23.219 26.2478 22.7605L26.4613 22.6555C26.7706 22.421 27.1758 22.12 27.2759 21.6335V21.609L27.3718 21.49C27.6332 21.2135 27.9425 20.874 27.9425 20.377L28.0906 20.2055C28.3041 19.9045 28.5611 19.5265 28.4827 19.04C28.4827 19.0015 28.4653 18.963 28.4348 18.921L28.5001 18.7915C28.6482 18.4905 28.8443 18.1125 28.7267 17.668V17.4405Z" fill="black"/>
<path fill-rule="evenodd" clip-rule="evenodd" d="M16.254 26.4565V25.333C16.254 25.137 16.4022 24.9935 16.5982 24.9935H16.6156C16.8117 24.9935 16.9598 25.137 16.9598 25.333V26.4565C16.9598 26.6525 16.8117 26.782 16.6156 26.782H16.5982C16.3978 26.796 16.254 26.6525 16.254 26.4565ZM18.0925 26.4565V25.333C18.0925 25.137 18.2406 24.9935 18.4366 24.9935H18.4541C18.6501 24.9935 18.7982 25.137 18.7982 25.333V26.4565C18.7982 26.6525 18.6501 26.782 18.4541 26.782H18.4366C18.2406 26.796 18.0925 26.6525 18.0925 26.4565ZM17.182 26.4565V25.333C17.182 25.137 17.3301 24.9935 17.5261 24.9935H17.5436C17.7396 24.9935 17.8877 25.137 17.8877 25.333V26.4565C17.8877 26.6525 17.7396 26.782 17.5436 26.782H17.5261C17.3301 26.796 17.182 26.6525 17.182 26.4565ZM29.2015 18.214H27.8031C27.5591 18.214 27.3805 18.095 27.3805 17.9375V17.9235C27.3805 17.766 27.5591 17.647 27.8031 17.647H29.2015C29.4455 17.647 29.6067 17.766 29.6067 17.9235V17.9375C29.6067 18.095 29.4455 18.214 29.2015 18.214ZM29.2015 16.7335H27.8031C27.5591 16.7335 27.3805 16.6145 27.3805 16.457V16.443C27.3805 16.2855 27.5591 16.1665 27.8031 16.1665H29.2015C29.4455 16.1665 29.6067 16.2855 29.6067 16.443V16.457C29.6067 16.618 29.4455 16.7335 29.2015 16.7335ZM29.2015 17.4685H27.8031C27.5591 17.4685 27.3805 17.3495 27.3805 17.192V17.178C27.3805 17.0205 27.5591 16.9015 27.8031 16.9015H29.2015C29.4455 16.9015 29.6067 17.0205 29.6067 17.178V17.192C29.6067 17.3495 29.4455 17.4685 29.2015 17.4685ZM18.746 7.8505V8.974C18.746 9.184 18.5978 9.3275 18.4018 9.3275H18.3844C18.1883 9.3275 18.0402 9.184 18.0402 8.974V7.8505C18.0402 7.6545 18.1883 7.511 18.3844 7.511H18.4018C18.5978 7.511 18.746 7.6545 18.746 7.8505ZM16.5459 7.511C16.7594 7.511 16.9032 7.6545 16.9032 7.8505V8.974C16.9032 9.184 16.755 9.3275 16.559 9.3275H16.5416C16.3455 9.3275 16.1974 9.184 16.1974 8.974V7.8505C16.2061 7.6545 16.3499 7.511 16.5459 7.511ZM17.8311 7.8505V8.974C17.8311 9.184 17.683 9.3275 17.4869 9.3275H17.4695C17.2735 9.3275 17.1253 9.184 17.1253 8.974V7.8505C17.1253 7.6545 17.2735 7.511 17.4695 7.511H17.4869C17.6873 7.511 17.8311 7.6545 17.8311 7.8505ZM6.07294 16.107H7.47137C7.73276 16.107 7.89395 16.226 7.89395 16.3835V16.3975C7.89395 16.555 7.71533 16.674 7.47137 16.674H6.07294C5.82898 16.674 5.65036 16.555 5.65036 16.3975V16.38C5.65036 16.2365 5.82898 16.107 6.07294 16.107ZM6.07294 17.584H7.47137C7.73276 17.584 7.89395 17.703 7.89395 17.8605V17.8745C7.89395 18.032 7.71533 18.151 7.47137 18.151H6.07294C5.82898 18.151 5.65036 18.032 5.65036 17.8745V17.8605C5.65036 17.717 5.82898 17.584 6.07294 17.584ZM6.07294 16.8525H7.47137C7.73276 16.8525 7.89395 16.9715 7.89395 17.129V17.143C7.89395 17.3005 7.71533 17.4195 7.47137 17.4195H6.07294C5.82898 17.4195 5.65036 17.3005 5.65036 17.143V17.129C5.65036 16.9715 5.82898 16.8525 6.07294 16.8525Z" fill="white"/>
<path fill-rule="evenodd" clip-rule="evenodd" d="M17.7832 26.1415V26.467C17.7832 26.6105 17.6873 26.7295 17.5392 26.7295C17.378 26.7295 17.2778 26.6245 17.2778 26.467V25.3435C17.2778 25.186 17.3737 25.067 17.5218 25.067C17.683 25.067 17.7832 25.186 17.7832 25.3435V26.1415ZM18.698 26.1695V26.4565C18.698 26.6 18.5848 26.719 18.4541 26.719C18.2929 26.719 18.1927 26.614 18.1927 26.4565V25.333C18.1927 25.1755 18.2885 25.0565 18.4366 25.0565C18.5978 25.0565 18.698 25.1755 18.698 25.333V26.1695ZM16.302 8.113V7.8505C16.302 7.707 16.4152 7.588 16.5459 7.588C16.7071 7.588 16.8073 7.707 16.8073 7.8505V8.974C16.8073 9.1315 16.7115 9.2505 16.5634 9.2505C16.4022 9.2505 16.302 9.1315 16.302 8.974V8.113ZM17.2299 8.099V7.8505C17.2299 7.707 17.3432 7.588 17.4739 7.588C17.6351 7.588 17.7353 7.707 17.7353 7.8505V8.974C17.7353 9.1315 17.6394 9.2505 17.4913 9.2505C17.3301 9.2505 17.2299 9.1315 17.2299 8.974V8.099ZM18.1404 8.113V7.8505C18.1404 7.707 18.2537 7.588 18.3844 7.588C18.5456 7.588 18.6458 7.707 18.6458 7.8505V8.974C18.6458 9.1315 18.5499 9.2505 18.4018 9.2505C18.2406 9.2505 18.1404 9.1315 18.1404 8.974V8.113ZM28.7789 17.7275H29.2015C29.3801 17.7275 29.5283 17.8185 29.5283 17.9235C29.5283 18.053 29.3976 18.1335 29.2015 18.1335H27.8031C27.607 18.1335 27.4589 18.0565 27.4589 17.9375C27.4589 17.808 27.607 17.7275 27.8031 17.7275H28.7789ZM28.8094 16.982H29.2015C29.3801 16.982 29.5283 17.073 29.5283 17.178C29.5283 17.3075 29.3976 17.388 29.2015 17.388H27.8031C27.607 17.388 27.4589 17.311 27.4589 17.192C27.4589 17.0625 27.607 16.982 27.8031 16.982H28.8094ZM28.8269 16.2505H29.2015C29.3801 16.2505 29.5283 16.3275 29.5283 16.4465C29.5283 16.5655 29.3976 16.6565 29.2015 16.6565H27.8031C27.607 16.6565 27.4589 16.5795 27.4589 16.4605C27.4589 16.331 27.607 16.2505 27.8031 16.2505H28.8269ZM6.43453 18.081H6.0773C5.89868 18.081 5.75056 17.99 5.75056 17.885C5.75056 17.7555 5.89868 17.675 6.0773 17.675H7.47573C7.67177 17.675 7.81989 17.752 7.81989 17.871C7.81989 18.0005 7.67177 18.081 7.47573 18.081H6.43453ZM6.46502 17.3355H6.07294C5.89432 17.3355 5.7462 17.2445 5.7462 17.1395C5.7462 17.01 5.89432 16.9295 6.07294 16.9295H7.47137C7.66741 16.9295 7.81553 17.0065 7.81553 17.1255C7.81553 17.255 7.66741 17.3355 7.47137 17.3355H6.46502ZM6.49988 16.59H6.0773C5.89868 16.59 5.75056 16.499 5.75056 16.394C5.75056 16.2645 5.89868 16.184 6.0773 16.184H7.47573C7.67177 16.184 7.81989 16.261 7.81989 16.38C7.81989 16.5095 7.67177 16.59 7.47573 16.59H6.49988ZM16.8552 26.117V26.4565C16.8552 26.6 16.742 26.719 16.6113 26.719C16.4501 26.719 16.3499 26.614 16.3499 26.4565V25.333C16.3499 25.1755 16.4457 25.0565 16.5939 25.0565C16.755 25.0565 16.8552 25.1755 16.8552 25.333V26.117ZM17.9792 26.208C17.9792 26.1835 17.9792 26.1695 17.9618 26.1415V25.3295C17.9618 25.095 17.7657 24.9095 17.5218 24.9095C17.2604 24.9095 17.0644 25.0915 17.0644 25.3295V26.453C17.0644 26.6875 17.2604 26.859 17.5044 26.859C17.7657 26.859 17.9618 26.677 17.9618 26.453L17.9792 26.208ZM18.8897 26.208V25.3435C18.8897 25.109 18.6937 24.9235 18.4497 24.9235C18.1883 24.9235 17.9923 25.1055 17.9923 25.3435V26.467C17.9923 26.7015 18.1883 26.873 18.4323 26.873C18.6937 26.873 18.8897 26.691 18.8897 26.467V26.208ZM16.5634 7.4445C16.302 7.4445 16.1059 7.6265 16.1059 7.8505V8.974C16.1059 9.2085 16.302 9.394 16.5459 9.394C16.8073 9.394 17.0034 9.212 17.0034 8.974V7.8505C17.0034 7.616 16.8247 7.4445 16.5634 7.4445ZM17.4913 7.4445C17.2299 7.4445 17.0339 7.6265 17.0339 7.8505V8.974C17.0339 9.2085 17.2299 9.394 17.4739 9.394C17.7353 9.394 17.9313 9.212 17.9313 8.974V7.8505C17.9313 7.616 17.7353 7.4445 17.4913 7.4445ZM18.4018 7.4445C18.1404 7.4445 17.9444 7.6265 17.9444 7.8505V8.974C17.9444 9.2085 18.1404 9.394 18.3844 9.394C18.6458 9.394 18.8418 9.212 18.8418 8.974V7.8505C18.8418 7.616 18.6632 7.4445 18.4018 7.4445ZM29.2015 17.5735H27.8031C27.5112 17.5735 27.2803 17.731 27.2803 17.927C27.2803 18.137 27.5068 18.2945 27.8031 18.2945H29.2015C29.4934 18.2945 29.7069 18.137 29.7069 17.941C29.7069 17.7275 29.4934 17.5735 29.2015 17.5735ZM29.2015 16.8385H27.8031C27.5112 16.8385 27.2803 16.982 27.2803 17.192C27.2803 17.402 27.5068 17.5595 27.8031 17.5595H29.2015C29.4934 17.5595 29.7069 17.402 29.7069 17.206C29.7069 16.982 29.4934 16.8385 29.2015 16.8385ZM29.2015 16.093H27.8031C27.5112 16.093 27.2803 16.2365 27.2803 16.4465C27.2803 16.6565 27.5068 16.814 27.8031 16.814H29.2015C29.4934 16.814 29.7069 16.6705 29.7069 16.4605C29.7069 16.2505 29.4934 16.093 29.2015 16.093ZM7.47573 17.521H6.0773C5.78541 17.521 5.57195 17.6785 5.57195 17.8745C5.57195 18.0845 5.79848 18.242 6.0773 18.242H7.47573C7.76761 18.242 7.99851 18.0845 7.99851 17.8885C7.99851 17.6645 7.76761 17.521 7.47573 17.521ZM7.47573 16.7755H6.0773C5.78541 16.7755 5.57195 16.933 5.57195 17.129C5.57195 17.339 5.78541 17.4965 6.0773 17.4965H7.47573C7.76761 17.4965 7.99851 17.339 7.99851 17.143C7.99851 16.9295 7.76761 16.7755 7.47573 16.7755ZM7.47573 16.0405H6.0773C5.78541 16.0405 5.57195 16.184 5.57195 16.394C5.57195 16.604 5.78541 16.7615 6.0773 16.7615H7.47573C7.78504 16.7615 7.99851 16.618 7.99851 16.408C7.99851 16.184 7.76761 16.0405 7.47573 16.0405ZM17.0687 26.208C17.0687 26.1835 17.0513 26.1415 17.0513 26.117V25.3435C17.0513 25.109 16.8727 24.9235 16.6113 24.9235C16.3499 24.9235 16.1538 25.1055 16.1538 25.3435V26.467C16.1538 26.7015 16.3499 26.873 16.5939 26.873C16.8552 26.873 17.0513 26.691 17.0513 26.467V26.2185L17.0687 26.208ZM11.9368 13.2685L11.8714 14.616L13.0912 14.1715L11.9368 13.2685Z" fill="black"/>
<path fill-rule="evenodd" clip-rule="evenodd" d="M11.9542 14.525L12.9475 14.1575L11.9847 13.412L11.9542 14.525ZM11.854 13.2685V13.125L13.2219 14.1855L11.7886 14.7105L11.854 13.2685Z" fill="black"/>
<path fill-rule="evenodd" clip-rule="evenodd" d="M14.9166 21.3395L15.6311 21.5495L15.9883 22.4525L15.2738 22.2425L14.9166 21.3395ZM14.1019 19.2325L13.7578 18.368L14.3938 18.55L14.7511 19.439L14.1019 19.2325ZM12.8996 16.226L12.5728 15.351L13.1435 15.533L13.5182 16.422L12.8996 16.226Z" fill="white"/>
</g>
<defs>
<clipPath id="clip0_2_5">
<rect width="35" height="35" fill="white"/>
</clipPath>
</defs>
</svg>
