<svg width="40" height="40" viewBox="0 0 40 40" fill="none" xmlns="http://www.w3.org/2000/svg">
<g clip-path="url(#clip0_2_5)">
<path fill-rule="evenodd" clip-rule="evenodd" d="M33.6868 22.536L33.5922 22.804L33.4827 23.044L33.3732 23.252L33.2636 23.432L33.1342 23.628L33.0595 23.912L32.95 24.196L32.8205 24.452L32.6911 24.632L32.8404 24.556L33.0097 24.468L33.179 24.38L33.3284 24.292L33.4777 24.204L33.6271 24.116L33.7764 24.012L33.9258 23.908L34.0752 23.804L34.2245 23.7L34.3739 23.596L34.5233 23.492L34.6726 23.388L34.8021 23.268L34.9315 23.148L35.061 23.028L35.1904 22.908L35.3199 22.788L35.4493 22.668L35.5788 22.532L35.7082 22.396L35.8377 22.26L35.9472 22.124L36.0568 21.988L37.7894 19.804L38.5512 22.36L38.6059 22.584L38.6607 22.808L38.7155 23.032L38.7503 23.256L38.7852 23.48L38.82 23.704L38.8399 23.928L38.8598 24.152L38.8798 24.376L38.8997 24.6V25.272L38.8798 25.496L38.8598 25.72L38.8399 25.944L38.8051 26.168L38.7702 26.392L38.7354 26.616L38.6806 26.84L38.6258 27.064L38.5711 27.288L38.5163 27.512L38.4416 27.736L38.3669 27.96L38.2923 28.184L38.1977 28.408L38.1031 28.632L38.0085 28.856L37.8989 29.08L36.7986 31.264L35.6833 29.664L35.5141 29.872L35.3448 30.08L35.1755 30.288L35.0062 30.484L34.8369 30.68L34.8021 30.708L35.3398 31.156L35.8228 31.56L35.992 31.696L36.2509 31.92H36.4003L37.0724 32.772L37.182 33.384L37.0127 33.936L36.6194 34.4L36.0418 34.744L35.295 34.892L34.4934 34.756L33.9358 34.428L33.408 33.972L33.2586 33.836L32.7956 33.448L32.3127 33.028L32.1285 33.176L31.8845 33.34L31.6405 33.504L31.3966 33.668L31.1526 33.832L30.9086 33.98L30.6647 34.128L30.4058 34.276L30.1469 34.424L29.888 34.56L29.6291 34.696L29.3702 34.832L29.1113 34.952L28.8325 35.072L28.479 35.132L28.2001 35.252L27.9213 35.356L27.6425 35.46L27.3637 35.564L27.065 35.668L26.7662 35.772L26.4675 35.86L26.1688 35.948L25.87 36.036L25.5514 36.124L25.2328 36.2L24.9141 36.276L24.5955 36.352L24.3167 36.412L24.0727 36.472L23.8486 36.532L23.6246 36.592L23.4205 36.668L23.2362 36.744L23.052 36.832L22.8678 36.936L22.6836 37.056L22.4795 37.192L22.2753 37.356L22.0513 37.552L21.8272 37.776L21.5833 38.032L21.3244 38.332L19.9851 39.992L18.6258 38.348L18.3669 38.048L18.123 37.792L17.879 37.568L17.655 37.372L17.4508 37.208L17.2467 37.072L17.0426 36.952L16.8584 36.848L16.6741 36.76L16.47 36.684L16.2659 36.608L16.0418 36.548L15.8178 36.488L15.5738 36.428L15.295 36.368L14.9763 36.292L14.6577 36.216L14.359 36.14L14.0602 36.052L13.7615 35.964L13.4628 35.876L13.1641 35.788L12.8653 35.684L12.5865 35.58L12.3077 35.476L12.0289 35.372L11.7501 35.268L11.4712 35.148L11.1924 35.028L10.9136 34.908L10.6547 34.788L10.3958 34.652L10.1369 34.516L9.87802 34.38L9.61912 34.232L9.36022 34.084L9.10132 33.936L8.85736 33.788L8.61339 33.624L8.36943 33.46L8.12547 33.296L7.8815 33.132L7.69729 32.996L6.91561 33.668L6.76624 33.804L6.07916 34.404L5.52153 34.732L4.7299 34.872L3.98307 34.72L3.40553 34.392L3.0122 33.928L2.8479 33.36L2.95743 32.748L3.31093 32.3L3.55489 32.092L3.87354 31.824L4.0229 31.688L4.19218 31.552L4.36146 31.416L4.53074 31.28L4.68011 31.144L4.84939 31.008L5.16804 30.74L5.2228 30.696L5.18795 30.652L5.01867 30.456L4.84939 30.26L4.68011 30.052L4.51083 29.844L4.34155 29.636L4.32163 29.62L3.18646 31.248L2.0463 29.04L1.93677 28.816L1.84217 28.592L1.74757 28.368L1.65297 28.144L1.57829 27.92L1.48369 27.724L1.40901 27.5L1.35424 27.276L1.29948 27.052L1.24471 26.828L1.18994 26.604L1.15509 26.38L1.12024 26.156L1.08539 25.932L1.06547 25.708L1.04556 25.484L1.02564 25.26V24.588L1.04556 24.364L1.06547 24.14L1.08539 23.916L1.1053 23.692L1.14015 23.468L1.17501 23.244L1.20986 23.02L1.26463 22.796L1.31939 22.572L1.37416 22.348L2.12099 19.792L3.85362 21.976L3.96316 22.112L4.07269 22.248L4.20214 22.384L4.33159 22.52L4.46104 22.656L4.59049 22.776L4.71994 22.896L4.84939 23.016L4.97884 23.136L5.10829 23.256L5.23774 23.376L5.3871 23.48L5.53647 23.584L5.68583 23.688L5.8352 23.792L5.98457 23.896L6.13393 24L6.2833 24.104L6.43266 24.192L6.58203 24.28L6.73139 24.368L6.90067 24.456L7.06995 24.544L7.23923 24.632L7.40851 24.72L7.57779 24.796L7.63256 24.824L7.59771 24.748L7.50311 24.54L7.42843 24.344L7.35375 24.148L7.14961 23.892L6.98033 23.636L6.8708 23.38L6.7762 23.14L6.72143 22.932L6.68658 22.736L6.65173 22.572L6.61688 22.512L6.4476 22.228L6.33806 21.944L6.30321 21.796H6.27334L5.95469 21.676L5.67588 21.512L5.43191 21.304L5.2477 21.048L5.11825 20.764L5.0834 20.448L5.11825 20.132L5.17301 20.028L5.11825 19.908L5.0834 19.592L5.11825 19.276L5.17301 19.172L5.11825 19.052L5.0834 18.736L5.11825 18.42L5.2477 18.136L5.45183 17.88L5.69579 17.672L5.97461 17.508L6.29325 17.404L6.5173 17.328V17.252L6.55215 16.908L6.62684 16.608L6.72143 16.34L6.83097 16.1L6.9405 15.892L7.05004 15.728L7.14463 15.608L7.21932 15.308L7.32885 15.024L7.4583 14.768L7.60767 14.544L7.75703 14.348L7.9064 14.184L7.98108 14.108L8.01593 13.972L8.18521 13.656L8.36943 13.388L8.57356 13.148L8.4242 13.132L8.18023 13.116L7.90142 13.088L7.60269 13.044L7.28404 12.984L6.95046 12.896L6.61688 12.776L6.2833 12.612L5.98457 12.416L0 7.836L1.04058 6.836L1.33931 6.568L1.63804 6.3L1.93677 6.044L2.2355 5.804L2.53423 5.564L2.83296 5.34L3.13169 5.116L3.43042 4.908L3.72915 4.7L4.02788 4.504L4.3067 4.308L4.58551 4.128L4.86433 3.948L5.14314 3.784L6.4227 3.02L11.541 8.372L11.7451 8.612L11.9144 8.88L12.0438 9.148L12.1384 9.416L12.1932 9.672L12.228 9.928L12.2629 10.168L12.2828 10.392L12.3575 10.364L12.4122 10.348L12.5965 10.168L12.8952 9.96L13.2138 9.796L13.5126 9.66L13.7914 9.556L14.0353 9.48L14.2395 9.42L14.4436 9.376L14.5531 9.36H14.5731L14.832 9.212L15.1655 9.076L15.3896 9L15.2054 8.896L14.8867 8.7L14.1399 8.192V5.648L14.9963 5.26L15.2004 5.172L15.4045 5.084L15.6286 4.996L15.8526 4.92L16.0767 4.844L16.2808 4.784L16.2061 4.636L16.1115 4.44L16.002 4.232L15.9472 4.024L15.8925 3.8L15.8576 3.592L15.8377 3.352L15.8576 3.024L15.9124 2.696L16.0219 2.38L16.1713 2.064L16.3555 1.764L16.5596 1.48L16.8036 1.224L17.0625 0.984L17.3612 0.776L17.6799 0.58L18.0134 0.416L18.3869 0.268L18.7802 0.148L19.1735 0.06L19.5818 0.016L20.01 0L20.4381 0.016L20.8464 0.06L21.2397 0.148L21.6331 0.268L22.0065 0.416L22.3401 0.58L22.6587 0.776L22.9574 1L23.2163 1.24L23.4603 1.496L23.6644 1.764L23.8337 2.064L23.9632 2.38L24.0578 2.696L24.1125 3.024L24.1324 3.352L24.1125 3.592L24.0926 3.816L24.0578 4.04L24.003 4.248L23.9283 4.456L23.8337 4.664L23.7391 4.828L23.9084 4.888L24.1125 4.964L24.3167 5.04L24.5208 5.116L24.7249 5.204L24.9291 5.292L25.7854 5.664V8.264L25.0386 8.772L24.7199 8.968L24.5706 9.044L24.6453 9.072L24.8892 9.176L25.2427 9.236L25.5962 9.324L25.9149 9.428L26.1738 9.548L26.4177 9.668L26.6219 9.772L26.826 9.892L26.9007 9.908L27.2741 10.012L27.6077 10.148L27.7769 10.236V10.208L27.7969 9.968L27.8317 9.712L27.8865 9.456L27.9612 9.188L28.0707 8.904L28.2001 8.68V8.62L33.5375 3.036L34.822 3.784L35.1008 3.948L35.3796 4.128L35.6784 4.308L35.9771 4.504L36.2758 4.7L36.5746 4.908L36.8733 5.116L37.172 5.34L37.4707 5.564L37.7695 5.804L38.0682 6.044L38.3669 6.3L38.6657 6.568L38.9644 6.836L40.005 7.836L34.0403 12.428L33.7416 12.624L33.408 12.788L33.0744 12.908L32.7408 12.996L32.4222 13.056L32.1235 13.1L31.8447 13.128L31.5858 13.156L31.4563 13.172L31.531 13.292L31.5658 13.38L31.7899 13.528L32.0488 13.768L32.2529 14.008L32.4222 14.248L32.5517 14.472L32.6463 14.68L32.7209 14.86L32.7757 15.008L32.8106 15.036L33.0346 15.292L33.2039 15.548L33.3333 15.804L33.4279 16.044L33.4827 16.252L33.5175 16.448L33.5524 16.584L33.6619 16.732L33.8312 17.06L33.9408 17.376V17.404L34.0901 17.432L34.4088 17.552L34.7075 17.716L34.9515 17.924L35.1357 18.18L35.2452 18.464L35.2801 18.78L35.2452 19.096L35.1904 19.2L35.2452 19.32L35.2801 19.636L35.2452 19.952L35.1904 20.056L35.2452 20.176L35.2801 20.492L35.2502 20.8L35.1207 21.084L34.9365 21.34L34.6926 21.548L34.4137 21.712L34.0951 21.832L33.8511 21.876V21.904L33.8312 22.22L33.6868 22.536ZM9.5295 27.02L9.40005 26.932L9.176 26.736L8.07568 27.08L7.92631 27.124L8.001 27.228L8.11053 27.392L8.22006 27.556L8.34951 27.72L8.47896 27.884V27.9L9.5295 27.02ZM16.3256 31.476L16.4551 31.448L16.5845 31.404L16.7339 31.344L16.8832 31.268L17.0326 31.18L17.182 31.076L17.3313 30.956L17.4608 30.836L17.5902 30.7L17.6649 30.612L17.5554 30.584L17.5205 30.568L17.167 30.584L16.7737 30.568L16.4003 30.508L16.0667 30.432L15.768 30.344L15.5091 30.256L15.285 30.168L15.061 30.064L14.7822 30.036L14.4486 29.96L14.1499 29.872L13.891 29.768L13.6669 29.664L13.4827 29.56L13.2985 29.456L13.1292 29.352L13.0943 29.336L12.7209 29.216L12.4023 29.08L12.2928 29.02L12.1982 29.096L12.0139 29.26L11.8297 29.424L11.6455 29.588L11.1825 29.992L11.1078 30.052L11.2572 30.128L11.4264 30.204L11.5957 30.28L11.765 30.356L11.9343 30.432L12.1036 30.508L12.2878 30.584L12.472 30.66L12.6562 30.736L12.8404 30.796L13.0246 30.856L13.2089 30.916L13.413 30.976L13.6171 31.036L13.8213 31.096L14.0254 31.156L14.2295 31.2L14.4536 31.244L14.6776 31.288L14.9017 31.332L15.1257 31.376L15.3498 31.42L15.5937 31.448L15.8377 31.476L16.0219 31.504H16.2061L16.3256 31.476ZM27.6375 30.564L27.8218 30.488L27.991 30.412L28.1603 30.336L28.3296 30.26L28.4989 30.184L28.6682 30.096L28.8175 30.008L27.6774 29.04L27.3587 29.248L27.0251 29.412L26.7065 29.548L26.4078 29.652L26.1489 29.728L25.9049 29.788L25.7008 29.816H25.6809L25.422 29.952L25.0884 30.088L24.7697 30.192L24.471 30.268L24.1922 30.312L23.9482 30.34L23.8188 30.356L23.7242 30.4L23.3707 30.536L23.0172 30.624L22.6836 30.684L22.3649 30.712H22.3102L22.4197 30.832L22.5492 30.952L22.6985 31.072L22.8479 31.176L22.9973 31.264L23.1466 31.34L23.296 31.4L23.4254 31.444L23.535 31.472L23.6296 31.488H23.7989L23.9831 31.46L24.227 31.432L24.471 31.388L24.695 31.344L24.9191 31.3L25.1431 31.256L25.3672 31.212L25.5912 31.168L25.7954 31.124L25.9995 31.064L26.2036 31.004L26.4078 30.944L26.6119 30.884L26.816 30.824L27.0002 30.764L27.1845 30.704L27.3687 30.628L27.6375 30.564ZM30.8788 26.768L30.824 26.856L30.6199 27.096L30.585 27.124L31.4762 27.872L31.4961 27.856L31.6256 27.692L31.755 27.528L31.8646 27.364L31.9741 27.2L32.0289 27.112L31.8596 27.068L30.8788 26.768Z" fill="black"/>
<path fill-rule="evenodd" clip-rule="evenodd" d="M34.9365 20.756L34.827 20.996L34.6577 21.204L34.4536 21.384L34.2096 21.52L33.9507 21.608L33.5225 21.696L33.5424 21.892L33.5225 22.176L33.4678 22.444L33.3732 22.684L33.2636 22.908L33.1541 23.104L33.0446 23.268L32.9151 23.448L32.8952 23.476L32.8205 23.804L32.711 24.06L32.5815 24.284L32.4521 24.492L31.8546 25.256L32.8404 24.748L33.0097 24.66L33.179 24.572L33.3483 24.484L33.5175 24.396L33.6669 24.308L33.8163 24.22L33.9656 24.116L34.115 24.012L34.2644 23.908L34.4137 23.804L34.5631 23.7L34.7125 23.596L34.8618 23.476L35.0112 23.356L35.1606 23.236L35.29 23.116L35.4195 22.996L35.5489 22.876L35.6784 22.74L35.8078 22.604L35.9373 22.468L36.0667 22.332L36.1962 22.196L36.3057 22.048L37.6998 20.284L38.3122 22.348L38.3669 22.572L38.4217 22.796L38.4765 23.02L38.5113 23.244L38.5462 23.468L38.581 23.692L38.6009 23.916L38.6209 24.14L38.6408 24.364L38.6607 24.588V25.26L38.6408 25.484L38.6209 25.708L38.6009 25.932L38.5661 26.156L38.5312 26.38L38.4964 26.604L38.4416 26.828L38.3869 27.052L38.3321 27.276L38.2773 27.5L38.2026 27.724L38.128 27.948L38.0533 28.172L37.9587 28.396L37.8641 28.62L37.7695 28.844L37.6599 29.068L36.7687 30.848L35.6983 29.324L35.4543 29.624L35.285 29.832L35.1158 30.04L34.9465 30.236L34.7772 30.432L34.6079 30.628L34.4386 30.808L35.1257 31.376L35.6087 31.78L35.7779 31.916L36.1314 32.2H36.2609L36.8185 32.916L36.9131 33.44L36.7638 33.92L36.4302 34.324L35.9273 34.624L35.2751 34.76L34.588 34.64L34.0851 34.34L33.5624 33.892L33.413 33.756L32.95 33.368L32.2778 32.8L31.8845 33.084L31.6405 33.248L31.3966 33.412L31.1526 33.576L30.9086 33.724L30.6647 33.872L30.4207 34.02L30.1767 34.168L29.9178 34.304L29.6589 34.44L29.4 34.576L29.1411 34.712L28.8822 34.832L28.6234 34.952L28.3445 35.072L28.0657 35.192L27.7869 35.296L27.5081 35.4L27.2293 35.504L26.9505 35.608L26.6517 35.696L26.353 35.784L26.0543 35.872L25.7555 35.96L25.4568 36.048L25.1581 36.124L24.8394 36.2L24.5208 36.276L24.242 36.336L23.9831 36.396L23.7391 36.456L23.5151 36.532L23.291 36.608L23.0869 36.696L22.8827 36.784L22.6786 36.888L22.4745 37.008L22.2703 37.156L22.0463 37.32L21.8223 37.516L21.5783 37.74L21.3343 38.008L21.0754 38.308L19.9602 39.7L18.825 38.324L18.5661 38.024L18.3072 37.756L18.0632 37.532L17.8193 37.336L17.5952 37.172L17.3712 37.024L17.167 36.904L16.9629 36.8L16.7588 36.712L16.5546 36.624L16.3306 36.548L16.1065 36.472L15.8626 36.412L15.6037 36.352L15.3249 36.292L15.0261 36.216L14.7274 36.14L14.4287 36.064L14.1299 35.976L13.8312 35.888L13.5325 35.8L13.2338 35.712L12.9549 35.624L12.6761 35.52L12.3973 35.416L12.1185 35.312L11.8397 35.208L11.5609 35.088L11.282 34.968L11.0231 34.848L10.7642 34.728L10.5054 34.592L10.2465 34.456L9.98755 34.32L9.72865 34.184L9.48469 34.036L9.24073 33.888L8.99676 33.74L8.7528 33.592L8.50884 33.428L8.26487 33.264L8.02091 33.1L7.62758 32.816L6.72143 33.628L6.57207 33.764L5.89992 34.348L5.39706 34.648L4.70998 34.768L4.07767 34.648L3.57481 34.364L3.23624 33.96L3.08688 33.48L3.18148 32.956L3.50012 32.552L3.72417 32.356L4.04282 32.088L4.19218 31.952L4.36146 31.816L4.53074 31.68L4.70002 31.544L4.84939 31.408L5.01867 31.272L5.33731 31.004L5.54145 30.84L5.37217 30.66L5.20289 30.464L5.03361 30.268L4.86433 30.072L4.69504 29.864L4.52576 29.656L4.26686 29.34L3.16654 30.732L2.27533 28.952L2.16579 28.728L2.0712 28.504L1.9766 28.28L1.882 28.056L1.80732 27.832L1.75255 27.652L1.67787 27.428L1.6231 27.204L1.56833 26.98L1.51357 26.756L1.4588 26.532L1.42395 26.308L1.3891 26.084L1.35424 25.86L1.33433 25.636L1.31441 25.456V24.56L1.33433 24.336L1.35424 24.112L1.37416 23.888L1.39407 23.664L1.42893 23.44L1.46378 23.216L1.49863 22.992L1.5534 22.768L1.60816 22.544L1.66293 22.32L2.27533 20.256L3.6694 22.02L3.77894 22.168L3.90839 22.304L4.03784 22.44L4.16729 22.576L4.29674 22.712L4.42619 22.848L4.55564 22.968L4.68509 23.088L4.81454 23.208L4.9639 23.328L5.11327 23.448L5.26263 23.568L5.412 23.672L5.56136 23.776L5.71073 23.88L5.86009 23.984L6.00946 24.088L6.13891 24.224L6.28827 24.312L6.45755 24.4L6.62683 24.488L6.79611 24.576L6.9654 24.664L7.13468 24.752L7.30396 24.84L7.47324 24.928L8.25491 25.3L7.8815 24.612L7.7869 24.416L7.71222 24.236L7.65745 24.056L7.63754 24.012L7.60269 23.984L7.41847 23.744L7.2691 23.504L7.15957 23.28L7.08489 23.056L7.03012 22.848L6.99527 22.668L6.96042 22.46L6.90565 22.384L6.72143 22.116L6.62683 21.848L6.55215 21.58L6.40279 21.552L6.14389 21.448L5.89992 21.312L5.69579 21.132L5.52651 20.924L5.41698 20.668L5.38212 20.4L5.41698 20.132L5.49166 19.984L5.41698 19.82L5.38212 19.552L5.41698 19.284L5.49166 19.136L5.41698 18.972L5.38212 18.704L5.41698 18.436L5.52651 18.196L5.69579 17.988L5.89992 17.808L6.14389 17.672L6.40279 17.584L6.83097 17.496L6.81105 17.256L6.8459 16.94L6.92059 16.656L7.01518 16.4L7.12472 16.176L7.23425 15.98L7.34379 15.816L7.43838 15.696L7.4583 15.668L7.53298 15.352L7.64252 15.096L7.77197 14.856L7.90142 14.648L8.01095 14.5L8.1404 14.352L8.235 14.248L8.28977 14.1L8.43913 13.816L8.60841 13.56L8.79263 13.336L9.09136 13.036L8.47896 12.976L8.22006 12.948L7.94125 12.92L7.66243 12.86L7.3637 12.8L7.04506 12.712L6.72641 12.592L6.40777 12.444L6.14887 12.264L0.353497 7.82L1.24471 6.968L1.54344 6.7L1.82225 6.432L2.12098 6.176L2.41972 5.936L2.71845 5.712L3.01718 5.488L3.31591 5.28L3.61464 5.072L3.89345 4.876L4.17227 4.68L4.45108 4.5L4.7299 4.32L5.00871 4.14L5.28753 3.976L6.36794 3.332L11.3169 8.52L11.5011 8.744L11.6505 9L11.76 9.256L11.8546 9.512L11.9094 9.72L11.9442 9.96L11.9791 10.2L11.999 10.424L12.0189 10.724L12.4471 10.576L12.5417 10.548L12.7657 10.352L13.0446 10.156L13.3234 10.008L13.6022 9.888L13.8611 9.8L14.1051 9.724L14.3092 9.68L14.4934 9.636L14.588 9.62L14.6627 9.604L14.9614 9.44L15.2601 9.32L15.9323 9.112L15.3547 8.784L15.0361 8.588L14.3888 8.148V5.772L15.0958 5.456L15.3 5.368L15.5041 5.28L15.7082 5.204L15.9124 5.128L16.1165 5.052L16.3406 4.976L16.5845 4.9L16.3804 4.56L16.2858 4.364L16.2111 4.168L16.1912 3.972L16.1563 3.764L16.1364 3.556L16.1165 3.332L16.1364 3.016L16.1912 2.7L16.2858 2.4L16.4152 2.116L16.5845 1.848L16.7886 1.592L17.0127 1.352L17.2716 1.128L17.5504 0.92L17.8491 0.74L18.1678 0.592L18.5014 0.456L18.8549 0.352L19.2283 0.276L19.6166 0.24L20.01 0.224L20.4033 0.24L20.7966 0.284L21.1601 0.36L21.5136 0.464L21.8471 0.6L22.1658 0.764L22.4645 0.944L22.7433 1.152L22.9873 1.376L23.2113 1.616L23.3956 1.872L23.5648 2.14L23.6943 2.424L23.7889 2.724L23.8437 3.04L23.8636 3.356V3.58L23.8437 3.788L23.8088 3.996L23.754 4.192L23.6794 4.388L23.5848 4.584L23.3806 4.944L23.7889 5.08L23.993 5.156L24.1972 5.232L24.4013 5.308L24.6054 5.396L24.8096 5.484L25.5166 5.8V8.176L24.8643 8.6L24.5457 8.796L24.0428 9.08L24.4909 9.276L24.715 9.38L24.7498 9.396L25.1431 9.456L25.4618 9.544L25.7406 9.648L26.0592 9.724L26.2833 9.828L26.4675 9.932L26.6517 10.036L26.7065 10.064L26.816 10.092L27.1496 10.196L27.4483 10.316L28.006 10.6L28.0309 10.2L28.0508 9.96L28.0856 9.72L28.1404 9.464L28.2151 9.208L28.3246 8.952L28.474 8.696V8.668L33.6121 3.288L34.6926 3.916L34.9714 4.08L35.2502 4.26L35.529 4.44L35.8078 4.636L36.0866 4.832L36.3654 5.028L36.6642 5.236L36.9629 5.444L37.2616 5.668L37.5604 5.908L37.8591 6.148L38.1578 6.404L38.4566 6.66L38.7553 6.928L39.6465 7.78L33.876 12.232L33.5972 12.412L33.2786 12.56L32.9599 12.68L32.6413 12.768L32.3425 12.828L32.0637 12.872L31.7849 12.9L31.526 12.928L31.0231 12.972L31.2472 13.36L31.3219 13.48L31.5658 13.644L31.8098 13.852L32.0139 14.076L32.1633 14.3L32.2928 14.508L32.3874 14.704L32.462 14.884L32.5168 15.032L32.5367 15.076L32.5915 15.136L32.7956 15.376L32.945 15.616L33.0545 15.856L33.1491 16.08L33.2039 16.288L33.2387 16.468L33.2736 16.648L33.3831 16.812L33.5325 17.128L33.6271 17.428L33.6619 17.576L33.9408 17.636L34.1997 17.74L34.4436 17.876L34.6477 18.056L34.817 18.28L34.9266 18.52L34.9614 18.788L34.9266 19.044L34.8519 19.192L34.9266 19.356L34.9614 19.624L34.9266 19.88L34.8519 20.044L34.9266 20.208L34.9614 20.476L34.9365 20.756ZM9.90291 27.004L9.58427 26.78L9.25068 26.48L7.98606 26.884L7.55788 27.02L7.76201 27.336L7.87154 27.5L8.00099 27.664L8.13044 27.828L8.25989 27.992L8.44411 28.216L9.90291 27.004ZM15.8028 31.684L16.007 31.712H16.2509L16.3804 31.696L16.5297 31.668L16.699 31.608L16.8683 31.532L17.0376 31.444L17.2069 31.34L17.3761 31.22L17.5454 31.1L17.6948 30.964L17.8242 30.816L18.0831 30.5L17.7645 30.412L17.655 30.384L17.5604 30.356L17.167 30.372L16.7936 30.356L16.46 30.312L16.1613 30.236L15.8825 30.148L15.6385 30.06L15.4344 29.972L15.1755 29.852L14.8569 29.824L14.5581 29.764L14.2793 29.676L14.0353 29.572L13.8312 29.468L13.647 29.364L13.4628 29.26L13.2586 29.124L13.1641 29.108L12.8305 29.004L12.5317 28.884L12.233 28.736L11.989 28.944L11.8048 29.108L11.6206 29.272L11.4364 29.436L11.2522 29.6L10.9534 29.856L10.6945 30.08L10.9385 30.216L11.1078 30.304L11.2771 30.392L11.4464 30.48L11.6156 30.556L11.7849 30.632L11.9691 30.708L12.1533 30.784L12.3376 30.86L12.5218 30.936L12.706 31.012L12.9101 31.072L13.1143 31.132L13.3184 31.192L13.5225 31.252L13.7267 31.312L13.9308 31.372L14.1548 31.432L14.3789 31.476L14.6029 31.52L14.827 31.564L15.051 31.608L15.295 31.652L15.539 31.696L15.8028 31.684ZM26.597 31.148L26.8011 31.088L27.0052 31.028L27.2094 30.968L27.3936 30.892L27.5778 30.816L27.762 30.74L27.9462 30.664L28.1304 30.588L28.2997 30.512L28.469 30.436L28.6383 30.348L28.8076 30.26L28.9768 30.172L29.2208 30.036L27.6923 28.72L27.523 28.868L27.2243 29.064L26.9256 29.228L26.6268 29.348L26.348 29.436L26.1041 29.512L25.88 29.556L25.6958 29.584L25.6211 29.6L25.3224 29.764L25.0236 29.884L24.7249 29.972L24.4461 30.032L24.1872 30.076L23.9632 30.104L23.7789 30.12L23.6694 30.18L23.3358 30.3L23.0022 30.376L22.6836 30.42L22.3849 30.448L21.882 30.464L22.126 30.764L22.2554 30.912L22.4048 31.048L22.5741 31.168L22.7433 31.288L22.9126 31.392L23.0819 31.48L23.2512 31.556L23.4205 31.616L23.5698 31.644L23.6993 31.66H23.9233L24.1275 31.632L24.3714 31.604L24.6154 31.56L24.8593 31.516L25.0834 31.472L25.3074 31.428L25.5315 31.384L25.7555 31.34L25.9796 31.28L26.2036 31.22L26.4078 31.16L26.597 31.148ZM30.7493 26.496L30.58 26.752L30.3759 26.976L30.1917 27.14L31.4762 28.216L31.6804 27.976L31.8098 27.812L31.9393 27.648L32.0488 27.484L32.1583 27.32L32.3625 27.004L31.9144 26.868L30.7493 26.496Z" fill="white"/>
<path fill-rule="evenodd" clip-rule="evenodd" d="M20.0249 2.272C20.7717 2.272 21.3642 2.764 21.3642 3.364C21.3642 3.964 20.7518 4.456 20.0249 4.456C19.2781 4.456 18.6657 3.964 18.6657 3.364C18.6657 2.764 19.283 2.272 20.0249 2.272ZM21.0704 30.716C21.3692 30.716 21.5932 30.508 21.5932 30.252V29.7L21.7227 29.716C22.2056 29.732 22.823 29.744 23.3956 29.416C23.3956 29.416 23.4155 29.416 23.4155 29.4L23.5997 29.384C24.0826 29.324 24.7 29.264 25.1979 28.86C25.1979 28.86 25.2328 28.876 25.4767 28.844C25.7356 28.816 26.5372 28.604 26.9853 28.156C27.0202 28.128 27.0401 28.08 27.06 28.052L27.2442 27.992C27.4483 27.932 27.6525 27.856 27.8765 27.752C28.8076 28.56 29.7585 29.368 30.6846 30.16C29.0266 31.34 26.831 32.18 24.0229 32.552C22.8877 32.688 21.4339 31.82 20.8962 30.712C20.9559 30.7 21.0157 30.716 21.0704 30.716ZM20.5278 30.236V29.952H20.5477C20.5477 29.924 20.5477 29.908 20.5278 29.876V29.832H20.5626V30.22C20.5626 30.296 20.5825 30.356 20.5975 30.416H20.4879C20.5278 30.372 20.5278 30.312 20.5278 30.236ZM19.4872 30.236V29.952H19.5071C19.5071 29.924 19.4872 29.876 19.4872 29.848V29.772H19.522V30.252C19.522 30.328 19.5419 30.388 19.5569 30.448H19.4473C19.4673 30.372 19.4872 30.312 19.4872 30.236ZM12.228 27.572L12.3027 27.632C12.6363 27.916 13.0495 28.276 13.7366 28.38L14.0901 28.62C14.4834 28.86 14.817 29.052 15.524 29.052L15.7481 29.188C16.1762 29.384 16.714 29.62 17.421 29.548C17.4956 29.548 17.5504 29.52 17.6251 29.504L17.8491 29.58C18.0334 29.64 18.2425 29.716 18.4615 29.76V30.252C18.4615 30.52 18.6856 30.716 18.9644 30.716H19.0391C18.4814 31.808 17.0276 32.66 15.8725 32.524C13.0645 32.18 10.8638 31.312 9.22579 30.148C10.2365 29.292 11.2422 28.428 12.228 27.572ZM19.4673 9.392H19.4324V9.184H19.4673V9.392ZM20.5278 9.436H20.4929V9.196H20.5278V9.436ZM32.1085 26.064C32.6114 26.228 33.2238 26.392 33.7267 26.556C33.2437 27.616 32.5168 28.588 31.5658 29.44C30.6149 28.648 29.6838 27.868 28.7578 27.076L28.8524 27.016C29.2457 26.792 29.7436 26.492 29.9527 25.968L30.1967 25.848C30.5502 25.58 31.0132 25.236 31.1277 24.68V24.652L31.2372 24.516C31.536 24.2 31.8895 23.812 31.8895 23.244L32.0587 23.048C32.3027 22.704 32.5965 22.272 32.5068 21.716C32.5068 21.672 32.4869 21.628 32.4521 21.58L32.5268 21.432C32.5467 21.388 32.5616 21.344 32.5815 21.312C32.5815 21.296 32.6014 21.284 32.6014 21.284C32.6214 21.256 32.6363 21.224 32.6562 21.18C32.6562 21.164 32.6761 21.152 32.6761 21.136C32.696 21.108 32.696 21.076 32.711 21.048C32.711 21.032 32.7309 21.02 32.7309 20.988C32.7309 20.972 32.7508 20.944 32.7508 20.912H33.3831C33.7167 20.912 33.9607 20.732 33.9607 20.508C33.9607 20.268 33.7018 20.088 33.3831 20.088H32.8056V20.06H33.3831C33.7167 20.06 33.9607 19.88 33.9607 19.656C33.9607 19.416 33.7167 19.236 33.3831 19.236H32.9002V19.208H33.3831C33.7167 19.208 33.9607 19.044 33.9607 18.804C33.9607 18.564 33.7167 18.384 33.3831 18.384H32.7309V18.356C32.7309 18.28 32.7508 17.472 32.3376 17.012C32.3376 16.996 32.3176 16.996 32.3027 16.984L32.2679 16.804C32.1932 16.416 32.0986 15.936 31.5957 15.532L31.521 15.336C31.3717 14.964 31.2024 14.484 30.6448 14.14C30.6099 14.112 30.5701 14.096 30.5153 14.052L30.4605 13.964L30.4058 13.876C30.2016 13.504 29.9776 13.084 29.3801 12.8L29.3254 12.74L29.5096 12.592C30.5502 11.964 32.2081 12.368 33.1591 11.664L38.2126 7.76C36.7239 6.296 35.2352 5.292 33.7814 4.456L29.4797 8.972C28.7329 9.764 29.2357 11.112 28.8673 12.068L28.7926 12.128L28.7578 12.156C28.5337 11.976 28.2748 11.828 27.9213 11.724L27.7321 11.56C27.3986 11.276 26.9704 10.916 26.2634 10.812H26.2435L26.0393 10.676C25.646 10.436 25.1631 10.152 24.4561 10.152L24.232 10.032C23.8038 9.836 23.2661 9.6 22.5591 9.672C22.5044 9.672 22.4496 9.688 22.3898 9.716L22.2056 9.656C22.0015 9.596 21.7774 9.52 21.5335 9.476V9.072C22.5591 8.876 23.5798 8.46 24.5507 7.788V6.248C23.5648 5.8 22.5392 5.484 21.4787 5.336C22.3351 4.948 22.8927 4.2 22.8927 3.364C22.8927 2.092 21.6082 1.032 20.0249 1.032C18.4416 1.016 17.1222 2.08 17.1222 3.348C17.1222 4.172 17.6998 4.92 18.5362 5.32C17.4558 5.468 16.3953 5.784 15.3896 6.248V7.772C16.3555 8.444 17.3811 8.864 18.4068 9.056V9.52C17.9437 9.504 17.401 9.52 16.8783 9.82C16.8783 9.82 16.8583 9.82 16.8583 9.836L16.6741 9.864C16.1912 9.924 15.5738 9.984 15.0759 10.388C15.0759 10.388 14.8519 10.404 14.7423 10.416C14.3888 10.504 13.7167 10.64 13.2885 11.088C13.2537 11.116 13.2338 11.164 13.2138 11.192L13.0296 11.252C12.5815 11.4 12.0239 11.596 11.6704 12.076L11.4862 12.18C11.4663 12.196 11.4314 12.208 11.4115 12.224L11.282 12.12L11.2273 12.076C10.8539 11.132 11.2621 9.772 10.5004 8.98L6.15882 4.44C4.705 5.292 3.21633 6.28 1.72766 7.744L6.81105 11.66C7.76201 12.376 9.41498 11.96 10.4406 12.604L10.6846 12.752C10.5551 12.888 10.4257 13.052 10.351 13.26C10.351 13.26 10.3311 13.26 10.107 13.396C9.883 13.532 9.30545 14.008 9.176 14.564V14.592L9.06647 14.712C8.76774 15.028 8.41424 15.416 8.39432 15.984C8.39432 15.984 8.39432 15.956 8.24496 16.164C8.07568 16.372 7.70724 16.94 7.79686 17.508C7.79686 17.552 7.81678 17.596 7.85163 17.644L7.77695 17.808L7.72218 17.944C7.72218 17.96 7.70226 17.972 7.70226 17.988C7.68235 18.016 7.68235 18.048 7.66741 18.064C7.6475 18.092 7.6475 18.108 7.63256 18.14C7.63256 18.168 7.61264 18.184 7.61264 18.216C7.59273 18.244 7.59273 18.276 7.59273 18.292C7.59273 18.308 7.57281 18.336 7.57281 18.352H6.97535C6.64177 18.352 6.39781 18.516 6.39781 18.756C6.39781 18.996 6.64177 19.176 6.97535 19.176H7.43839C7.43839 19.192 7.43839 19.192 7.41847 19.204H6.93552C6.60194 19.204 6.35798 19.384 6.35798 19.608C6.35798 19.848 6.60194 20.028 6.93552 20.028H7.32885V20.056H6.93552C6.60194 20.056 6.35798 20.236 6.35798 20.46C6.35798 20.7 6.61688 20.88 6.93552 20.88H7.49315V20.896C7.47324 21.284 7.4583 21.78 7.86657 22.256L7.90142 22.464C7.9761 22.852 8.05078 23.316 8.53373 23.72L8.5885 23.928C8.71795 24.316 8.88723 24.78 9.44486 25.124C9.47971 25.152 9.55439 25.2 9.55439 25.2L9.64899 25.396C9.83321 25.756 10.0772 26.204 10.6746 26.488L10.824 26.652C10.9534 26.788 11.0829 26.936 11.2522 27.084C10.3012 27.892 9.33532 28.7 8.38436 29.508C7.43341 28.656 6.72641 27.652 6.22355 26.608C6.72641 26.444 7.30396 26.28 7.80682 26.116C5.85014 25.28 4.02788 24.144 2.66866 22.392C1.99651 24.592 2.20563 26.76 3.30097 28.928C3.5997 28.496 3.91337 28.06 4.2121 27.628C5.04854 28.84 5.92482 29.9 6.83595 30.8C5.9995 31.516 5.14314 32.236 4.3067 32.952C3.72915 33.444 4.5656 34.192 5.21782 33.656C6.03435 32.952 6.83595 32.252 7.65745 31.548C9.90789 33.492 12.477 34.672 15.6435 35.42C17.172 35.78 18.342 36.124 19.9602 38.156C21.5434 36.124 22.7334 35.764 24.2619 35.42C27.4832 34.672 30.0324 33.476 32.2828 31.548L34.7374 33.656C35.3896 34.196 36.226 33.432 35.6485 32.94L33.0794 30.788C33.9905 29.876 34.8668 28.828 35.7033 27.616C35.9821 28.048 36.2808 28.484 36.5795 28.916C37.6948 26.748 37.8989 24.58 37.2118 22.38C35.8825 24.076 34.0602 25.212 32.1085 26.064Z" fill="white"/>
<path fill-rule="evenodd" clip-rule="evenodd" d="M10.6846 12.74L10.4406 12.592C9.41499 11.964 7.76201 12.384 6.81105 11.664L1.73264 7.76C3.22131 6.296 4.70998 5.308 6.1638 4.456L10.4805 8.972C11.2422 9.78 10.834 11.14 11.2074 12.068L11.2621 12.112L11.3916 12.216C11.1476 12.368 10.9086 12.532 10.6846 12.74ZM20.0249 2.272C20.7717 2.272 21.3642 2.764 21.3642 3.364C21.3642 3.964 20.7518 4.456 20.0249 4.456C19.2781 4.456 18.6657 3.964 18.6657 3.364C18.6657 2.764 19.283 2.272 20.0249 2.272ZM19.9701 9.196C21.5136 9.196 23.0968 8.776 24.5507 7.76V6.248C23.5649 5.8 22.5392 5.484 21.4787 5.336C22.3351 4.948 22.8927 4.2 22.8927 3.364C22.8927 2.092 21.6082 1.032 20.0249 1.032C18.4416 1.016 17.1222 2.08 17.1222 3.348C17.1222 4.172 17.6998 4.92 18.5362 5.32C17.4558 5.468 16.3953 5.784 15.3896 6.248V7.772C16.8434 8.776 18.4466 9.196 19.9701 9.196ZM28.7727 12.156L28.8076 12.128L28.8822 12.068C29.2557 11.112 28.7528 9.764 29.4946 8.972L33.8213 4.44C35.2751 5.276 36.7638 6.28 38.2524 7.744L33.169 11.66C32.2181 12.364 30.5651 11.96 29.5195 12.588L29.3353 12.736L29.2407 12.616C29.0914 12.472 28.942 12.308 28.7727 12.156ZM28.7379 27.08L31.5459 29.444C32.4969 28.592 33.2188 27.604 33.7067 26.56C33.2039 26.396 32.5915 26.232 32.0886 26.068C34.0453 25.232 35.8676 24.096 37.2268 22.344C37.8989 24.544 37.6898 26.712 36.5945 28.88C36.2957 28.448 35.9821 28.012 35.7182 27.58C34.9017 28.792 34.0055 29.852 33.0944 30.752L35.6634 32.904C36.241 33.396 35.4045 34.16 34.7523 33.62L32.2977 31.512C30.0473 33.456 27.4981 34.636 24.2768 35.384C22.7483 35.744 21.5783 36.088 19.9751 38.12C18.357 36.088 17.167 35.728 15.6585 35.384C12.4919 34.636 9.92781 33.44 7.67239 31.512C6.85586 32.216 6.05427 32.916 5.23276 33.62C4.58053 34.16 3.74409 33.396 4.32163 32.916C5.15808 32.2 6.01444 31.48 6.85088 30.764C5.93976 29.852 5.0834 28.804 4.22703 27.592C3.9283 28.024 3.61464 28.46 3.31591 28.892C2.19567 26.72 1.99154 24.552 2.67862 22.356C4.03784 24.092 5.86009 25.228 7.81678 26.08C7.31392 26.244 6.73637 26.408 6.23351 26.572C6.73637 27.632 7.44337 28.62 8.39432 29.472L11.2621 27.048C11.4862 27.228 11.765 27.408 12.1384 27.496L12.233 27.584C11.2472 28.436 10.2415 29.288 9.25566 30.156C10.8937 31.324 13.0894 32.176 15.9024 32.532C17.1471 32.668 18.7304 31.664 19.1785 30.44H20.7966C21.2447 31.668 22.823 32.668 24.0329 32.532C26.8409 32.172 29.0416 31.32 30.6945 30.14L27.8815 27.74C28.1603 27.604 28.4192 27.44 28.6283 27.172L28.7379 27.08Z" fill="#D71E25"/>
<path fill-rule="evenodd" clip-rule="evenodd" d="M20.1394 12.98C24.7199 12.98 28.4391 15.972 28.4391 19.648C28.4391 23.324 24.715 26.316 20.1394 26.316C15.5639 26.316 11.8397 23.324 11.8397 19.648C11.8397 15.972 15.5589 12.98 20.1394 12.98ZM20.1394 10.512C13.886 10.512 8.78765 14.608 8.78765 19.632C8.78765 24.656 13.886 28.752 20.1394 28.752C26.3928 28.752 31.4912 24.656 31.4912 19.632C31.4912 14.624 26.3928 10.512 20.1394 10.512ZM15.5041 26.676L16.1762 26.572L15.5639 26.316L15.6385 25.748L15.1008 26.136L14.4884 25.88L14.7872 26.388L14.2843 26.792L15.0112 26.732L15.3846 27.24C15.3747 27.244 15.5041 26.676 15.5041 26.676ZM17.5703 26.884C17.3861 26.944 17.1421 26.972 17.0475 26.972L17.1571 26.644C17.401 26.644 17.5504 26.616 17.7894 26.524L18.2375 26.612L17.7745 28.092L17.2367 27.988L17.5703 26.884ZM19.3926 27.456C19.1685 27.44 19.0938 27.308 19.1138 27.2C19.1337 27.064 19.2233 26.976 19.4473 26.976C19.6913 26.992 19.7461 27.124 19.7461 27.232C19.7112 27.364 19.6166 27.468 19.3926 27.456ZM18.5561 27.828L19.0789 27.856C19.0789 27.944 19.1735 28.004 19.3229 28.02C19.6216 28.036 19.6764 27.84 19.7162 27.572C19.6067 27.648 19.4722 27.72 19.2333 27.708C18.9744 27.692 18.8399 27.632 18.7304 27.544C18.6209 27.456 18.5611 27.32 18.581 27.184C18.6009 26.868 18.9544 26.676 19.4573 26.704C19.9801 26.732 20.1294 26.96 20.1842 27.092C20.2589 27.24 20.2589 27.408 20.2589 27.556C20.239 27.736 20.1842 27.96 20 28.124C19.7959 28.288 19.537 28.32 19.293 28.304C19.0341 28.288 18.8101 28.244 18.6607 28.096C18.5561 27.992 18.5561 27.888 18.5561 27.828ZM21.18 27.112C21.0505 27.216 20.8265 27.32 20.7319 27.352L20.6771 27.024C20.9012 26.948 21.0107 26.888 21.1999 26.724L21.6629 26.68L21.9069 28.192L21.3692 28.252L21.18 27.112ZM22.8927 27.216C22.7234 26.784 22.8379 26.692 22.9873 26.648C23.1566 26.604 23.2462 26.692 23.286 26.736C23.3607 26.824 23.4354 27.004 23.4703 27.064C23.4902 27.092 23.5798 27.332 23.5449 27.468C23.525 27.528 23.4503 27.588 23.3757 27.604C23.1367 27.68 23.0072 27.528 22.8927 27.216ZM22.355 27.348C22.4098 27.496 22.5392 27.736 22.818 27.872C23.0022 27.96 23.2462 27.948 23.4703 27.9C24.0826 27.752 24.1424 27.348 23.993 26.928C23.8835 26.644 23.7142 26.496 23.5449 26.42C23.4354 26.36 23.2263 26.3 22.8728 26.392C22.7035 26.436 22.4645 26.528 22.3699 26.72C22.2255 26.944 22.3002 27.216 22.355 27.348ZM25.2925 26.572L25.422 27.124L25.7954 26.616L26.5223 26.676L26.0194 26.272L26.3181 25.764L25.7057 26.02L25.168 25.632L25.2427 26.2L24.6303 26.456L25.2925 26.572ZM11.2422 21.684L11.1128 21.296L11.5061 21.22L11.6355 21.608L11.2422 21.684ZM10.6647 22.684L10.4207 22.252C10.346 22.28 10.1967 22.34 10.1021 22.52C10.0274 22.7 10.0473 22.908 10.1967 23.148C10.3261 23.372 10.4755 23.552 10.7742 23.628C11.053 23.704 11.3119 23.656 11.5758 23.568C11.76 23.508 12.0388 23.372 12.1533 23.136C12.2629 22.896 12.1533 22.628 12.0787 22.48C11.9691 22.284 11.6505 21.824 11.0929 22.016L11.3368 22.448C11.4115 22.432 11.6156 22.388 11.7451 22.612C11.9293 22.94 11.4663 23.104 11.3518 23.136C11.0182 23.256 10.6995 23.272 10.5701 23.016C10.4805 22.892 10.4954 22.772 10.6647 22.684ZM12.6014 23.956L12.935 23.776L12.6562 23.432L12.3226 23.612L12.6014 23.956ZM13.4379 25.032L13.8312 25.376C13.886 25.332 14.0353 25.228 14.0353 25.048C14.0553 24.824 13.8511 24.6 13.7018 24.48C13.3483 24.18 12.94 24.048 12.6014 24.284C12.3027 24.508 12.4521 24.748 12.6014 24.94L12.7857 25.224C12.8205 25.284 12.8803 25.372 12.7857 25.464C12.6911 25.524 12.5616 25.508 12.4521 25.42C12.2679 25.256 12.4172 25.136 12.472 25.104L12.0787 24.76C11.9293 24.88 11.6505 25.12 12.1882 25.596C12.6164 25.956 13.0047 25.94 13.2288 25.776C13.5275 25.552 13.3383 25.284 13.2636 25.176L13.0047 24.804C12.93 24.7 12.95 24.64 13.0246 24.596C13.1939 24.476 13.3582 24.624 13.3981 24.656C13.6619 24.868 13.4927 24.988 13.4379 25.032ZM9.93776 19.528C9.73363 19.556 9.67886 19.676 9.67886 19.796C9.67886 20.08 9.99751 20.156 10.351 20.156C10.4605 20.156 10.9634 20.14 10.9634 19.784C10.9634 19.544 10.7394 19.516 10.6647 19.516L10.6448 19.036C11.2572 19.02 11.3318 19.56 11.3318 19.768C11.3318 19.932 11.3119 20.216 11.0879 20.412C10.8638 20.592 10.5502 20.636 10.341 20.636C10.0622 20.636 9.80333 20.592 9.57929 20.44C9.33532 20.276 9.28056 20.052 9.26064 19.812C9.26064 19.544 9.31541 19.332 9.48469 19.2C9.65397 19.064 9.81827 19.064 9.89295 19.052L9.93776 19.528ZM10.4406 18.332C10.107 18.272 9.82823 18.136 9.90291 17.84C9.92283 17.736 9.99751 17.644 10.107 17.6C10.2016 17.572 10.351 17.54 10.6298 17.584C10.8887 17.628 11.2273 17.748 11.1526 18.064C11.0729 18.364 10.7593 18.392 10.4406 18.332ZM10.3112 18.796C10.1817 18.78 9.80831 18.692 9.6241 18.436C9.43988 18.18 9.49465 17.868 9.5295 17.748C9.71372 17.104 10.3112 17.016 10.7742 17.104C11.536 17.24 11.6505 17.748 11.536 18.12C11.4264 18.572 11.0381 18.916 10.3112 18.796ZM10.6298 16.148L10.7244 16C10.7991 15.88 10.8937 15.716 11.1177 15.804C11.1725 15.82 11.2671 15.892 11.2472 16C11.2472 16.044 11.2123 16.088 11.1526 16.18L11.058 16.328L10.6298 16.148ZM11.8198 17.136L12.0787 16.716L11.3916 16.448L11.5011 16.268C11.6107 16.088 11.7053 16.104 11.9293 16.18C12.0986 16.224 12.228 16.268 12.3575 16.284L12.6363 15.836C12.4869 15.82 12.2828 15.76 12.1533 15.732C11.8546 15.656 11.7053 15.612 11.521 15.896H11.5011C11.521 15.852 11.5559 15.76 11.5559 15.628C11.5559 15.54 11.5011 15.432 11.3119 15.36C11.1277 15.284 10.9933 15.3 10.9037 15.332C10.7344 15.376 10.6597 15.468 10.4954 15.736L10.0473 16.452L11.8198 17.136ZM11.1476 14.82L12.7458 15.732L13.0794 15.344L11.4812 14.432C11.4862 14.428 11.1476 14.82 11.1476 14.82ZM11.8546 14.012L13.2338 15.148L13.5873 14.864L12.5068 13.98L14.0901 14.46L14.6477 14.028L13.2686 12.892L12.9151 13.176L13.9408 14.012L12.4122 13.564L11.8546 14.012ZM14.4785 12.62L15.295 13.712L15.7979 13.472L14.9813 12.38L15.539 12.112L15.3348 11.844L13.7516 12.62L13.9557 12.888C13.9607 12.888 14.4785 12.62 14.4785 12.62ZM15.8228 11.648L16.4551 13.144L16.9928 12.996L16.7339 12.384L17.3861 12.204L17.645 12.816L18.2026 12.668L17.5703 11.172L17.0127 11.32L17.2567 11.904L16.6044 12.084L16.3605 11.5L15.8228 11.648ZM18.2026 11.036L18.8001 10.976L19.0241 12.548L18.4267 12.624L18.2026 11.036ZM20.0647 11.932L20.3834 11.276L20.6273 11.948L20.0647 11.932ZM19.2084 12.532L20.0846 10.96L20.7916 10.976L21.5534 12.576L20.9012 12.56L20.7717 12.244L19.9552 12.228L19.8058 12.544L19.2084 12.532ZM22.1857 11.08L21.648 12.604L22.1309 12.724L22.5591 11.544L22.818 12.888L23.5648 13.068L24.1026 11.544L23.6196 11.44L23.2114 12.576L22.9525 11.292C22.9475 11.288 22.1857 11.08 22.1857 11.08ZM24.5507 12.904L24.0478 12.68C24.0129 12.74 23.9183 12.876 23.9731 13.052C24.0279 13.26 24.3266 13.424 24.5108 13.516C24.9589 13.724 25.402 13.74 25.6261 13.44C25.8302 13.156 25.5912 12.96 25.3821 12.796L25.1033 12.572C25.0485 12.528 24.9539 12.452 25.0286 12.348C25.0834 12.272 25.2128 12.244 25.3622 12.32C25.6062 12.424 25.4917 12.576 25.4568 12.62L25.9597 12.86C26.0543 12.712 26.2385 12.412 25.5315 12.084C24.9938 11.828 24.6204 11.948 24.471 12.16C24.2669 12.444 24.5457 12.652 24.6552 12.744L25.0286 13.028C25.1232 13.104 25.1382 13.164 25.0834 13.236C24.9739 13.384 24.7498 13.296 24.71 13.264C24.4013 13.128 24.5108 12.964 24.5507 12.904ZM27.9761 24.104L27.6425 24.464L28.459 24.704L27.9761 24.104ZM27.9014 23.192L27.5479 23.552L27.772 23.836L27.2691 24.36L26.8608 24.256L26.4675 24.676L28.5337 25.108L28.9619 24.66L27.9014 23.192ZM29.6291 23.116L28.2151 22.564L27.9562 22.984L29.3702 23.536L29.0914 24L29.4449 24.136L30.2614 22.792L29.9079 22.656L29.6291 23.116ZM29.41 21.248C29.3353 21.232 29.1113 21.188 29.0167 21.456C28.9968 21.5 28.942 21.696 29.166 21.74C29.2606 21.756 29.3353 21.74 29.3901 21.636L29.6341 21.264C29.7087 21.16 29.878 20.892 30.2863 20.964C30.6049 21.024 30.824 21.28 30.6796 21.772C30.4755 22.4 30.0672 22.34 29.8631 22.312L30.0124 21.864C30.0672 21.88 30.2713 21.924 30.346 21.7C30.3809 21.564 30.3261 21.476 30.2166 21.444C30.0672 21.416 30.0124 21.504 29.9726 21.564L29.7884 21.848C29.6589 22.044 29.4897 22.28 29.1013 22.208C28.6731 22.12 28.5785 21.776 28.708 21.372C28.7628 21.208 28.8773 20.94 29.1163 20.832C29.3005 20.744 29.4897 20.788 29.5793 20.804L29.41 21.248ZM30.9335 20.144L30.8788 20.624L28.9071 20.488L28.9619 20.008L30.9335 20.144ZM30.8987 18.588L30.9335 19.052L29.3503 19.128L29.405 19.876L29.0117 19.892L28.9171 18.68C28.9221 18.676 30.8987 18.588 30.8987 18.588ZM30.4307 16.928L30.2614 16.48L29.181 16.736C28.8623 16.812 28.3246 16.932 28.5835 17.692C28.6582 17.888 28.8076 18.172 29.0864 18.276C29.2557 18.352 29.4946 18.32 29.6988 18.26L30.7991 18.004L30.6497 17.572L29.5494 17.828C29.3652 17.872 29.0864 17.904 28.9719 17.62C28.937 17.516 28.952 17.396 29.0266 17.304C29.0814 17.244 29.1959 17.216 29.2855 17.184L30.4307 16.928ZM28.3296 15.612L28.6084 16L29.186 15.492L28.3296 15.612ZM27.2492 15.312L27.528 15.716L27.9363 15.656L28.3445 16.24L28.0657 16.496L28.3844 16.944L29.6888 15.584L29.3353 15.092C29.3353 15.088 27.2492 15.312 27.2492 15.312ZM27.772 13.92L27.3786 14.204L27.5479 14.352C27.6425 14.44 27.7919 14.576 27.996 14.428C28.1802 14.292 28.0508 14.172 27.9412 14.068L27.772 13.92ZM26.1887 14.428L26.582 14.772L27.1048 14.4L27.3488 14.624C27.4234 14.7 27.5927 14.848 27.757 14.892C27.8516 14.92 28.1105 14.98 28.3694 14.788C28.5536 14.652 28.6134 14.488 28.5736 14.324C28.5387 14.176 28.4043 14.04 28.2947 13.952L27.6624 13.384L26.1887 14.428Z" fill="black"/>
<path fill-rule="evenodd" clip-rule="evenodd" d="M2.36495 7.776C3.46527 8.688 4.6353 9.572 5.73562 10.468C6.1638 10.752 6.40777 11.124 7.20438 11.112C7.1297 11.036 6.81105 11.024 6.74135 10.948C6.40777 10.74 6.23849 10.528 5.9049 10.304C4.86433 9.436 3.6694 8.568 2.62883 7.704C2.41972 7.684 2.4944 7.76 2.36495 7.776ZM10.8887 12.336C10.5153 12.052 10.1419 11.784 9.77346 11.5C9.34528 11.292 9.12123 11.472 8.69305 11.664C9.0117 11.08 8.97187 10.948 8.61837 10.632C7.91138 10.02 7.02016 9.332 6.5173 8.716C7.29898 9.196 8.08066 9.868 8.84242 10.404C9.2706 10.6 9.30545 10.732 10.127 10.492C9.92283 10.82 9.73363 11.032 10.0324 11.344L10.9833 12.24C10.9435 12.292 10.9086 12.32 10.8887 12.336ZM29.3353 12.38C29.7087 12.096 30.0971 11.828 30.4705 11.544C30.8987 11.32 31.1426 11.516 31.5708 11.708C31.2522 11.108 31.292 10.976 31.6455 10.66C32.3525 10.032 33.2636 9.344 33.7864 8.716C32.9848 9.196 32.1882 9.884 31.4215 10.436C30.9933 10.632 30.9584 10.764 30.117 10.524C30.3211 10.852 30.5103 11.064 30.2116 11.376C29.893 11.676 29.5793 11.988 29.2606 12.288C29.2756 12.336 29.2955 12.368 29.3353 12.38ZM33.5972 5.188C33.6321 5.292 33.7067 5.216 33.7067 5.384C32.7558 6.312 31.8098 7.356 30.8588 8.3C30.6348 8.6 30.3958 8.748 30.1718 9.048C30.0772 9.108 30.117 9.376 30.0224 9.436C29.9129 8.808 30.3411 8.552 30.6547 8.18C31.6604 7.208 32.6114 6.16 33.5972 5.188ZM21.1999 34.364C27.7521 33.944 32.3674 31.3 34.9714 26.648C35.3448 25.992 33.9656 26.004 33.408 25.932L35.1954 25.724C35.6236 25.664 36.4053 24.484 36.7239 23.928C36.5397 24.376 36.0169 25.604 36.0518 25.948C36.0866 26.456 36.3306 26.996 36.4999 27.564C36.2957 27.144 35.7381 26.172 35.3099 26.86C32.1434 32.12 26.9305 34.272 21.18 34.66C21.1601 34.452 21.2198 34.544 21.1999 34.364ZM32.4222 31.372L34.8768 33.436C34.9515 33.496 35.0261 33.36 34.9515 33.3L32.5517 31.236C32.477 31.344 32.5168 31.312 32.4222 31.372ZM31.0082 29.908L28.2549 27.5C28.2001 27.528 28.1454 27.576 28.0856 27.604L30.8588 30.012C30.8987 29.98 31.0082 29.908 31.0082 29.908ZM20.01 32.24V36.576C19.8606 36.008 18.82 34.692 17.8691 34.616C14.5581 34.376 11.5609 33.316 9.02664 31.552C7.3886 30.4 5.91984 28.876 4.7299 26.856C4.30172 26.168 3.74409 27.14 3.53995 27.56C3.70924 26.992 3.94822 26.452 3.98805 25.944C4.0229 25.584 3.5051 24.372 3.31591 23.924C3.61464 24.464 4.41623 25.66 4.84441 25.72L6.63181 25.928C6.0941 25.988 4.71496 26.004 5.06846 26.644C6.07418 28.5 7.54294 30.1 9.31043 31.34C11.765 33.088 14.8569 34.168 17.9487 34.3C18.835 34.348 19.7461 32.748 20.01 32.24ZM8.97187 29.952C8.97187 29.968 9.06647 30.028 9.12123 30.056L12.1185 27.484C12.0438 27.468 11.9691 27.44 11.9144 27.424L8.97187 29.952ZM7.51805 31.416C7.42345 31.34 7.46328 31.372 7.3886 31.28L4.7996 33.492C4.72492 33.552 4.81952 33.688 4.87428 33.628L7.51805 31.416ZM24.0279 7.852H15.8775V7.688H24.0129V7.852H24.0279ZM24.0279 6.34V6.504H17.1073C16.3057 6.504 16.2708 6.744 16.1563 7.056H15.8974V6.34H24.0279ZM17.9985 2.048C17.4757 2.704 17.1421 3.632 17.8143 4.292C17.4956 3.484 17.6301 2.676 18.1877 2.2C18.0732 2.124 18.0732 2.108 17.9985 2.048ZM21.7376 4.2C22.2006 3.692 22.0911 3.02 21.5335 2.66C21.9816 3.212 21.9816 3.736 21.5136 4.184C21.6281 4.232 21.7376 4.2 21.7376 4.2Z" fill="white"/>
<path fill-rule="evenodd" clip-rule="evenodd" d="M22.4446 20.412C22.3699 19.932 22.35 19.484 22.35 19.036C22.35 17.988 22.5193 16.988 22.7433 15.924L22.8379 15.94C22.6139 16.988 22.4446 17.988 22.4446 19.036C22.4446 19.484 22.4795 19.932 22.5392 20.412C22.594 20.8 22.6687 21.204 22.7832 21.608L22.6886 21.624C22.579 21.204 22.5044 20.816 22.4446 20.412Z" fill="black"/>
<path fill-rule="evenodd" clip-rule="evenodd" d="M22.8579 21.608C22.8778 21.788 22.8927 21.968 22.9325 22.148C24.3117 21.416 25.7406 20.832 27.289 20.368C27.2143 20.248 27.1397 20.112 27.1048 19.996C25.5564 20.352 24.1772 20.904 22.8579 21.608ZM26.597 18.884C26.6716 19.08 26.7264 19.256 26.8409 19.452C25.2427 19.648 23.7889 20.396 22.599 20.964C22.5641 20.784 22.5243 20.484 22.5044 20.412C22.5044 20.412 24.3266 19.304 26.597 18.884ZM21.1451 17.72C19.2631 17.72 16.2111 19.172 16.2111 19.172C16.2659 19.336 16.3406 19.488 16.3953 19.652C18.2176 18.964 20.5078 17.828 22.4247 18.412C22.4247 18.412 24.3963 17.352 26.1638 17.156C26.109 16.888 26.109 16.752 26.0891 16.616C24.4909 16.884 22.4795 17.844 22.4595 17.844C21.8322 17.644 21.3294 17.72 21.1451 17.72ZM22.6139 16.48C22.6139 16.48 24.4013 15.732 25.9995 15.268C25.9995 15.464 26.0194 15.656 26.0194 15.868C23.8437 16.42 22.5591 17.184 22.5392 17.184C22.0762 16.976 20.4381 17.096 20.3435 17.168C20.3087 16.972 20.2689 16.764 20.234 16.568C20.941 16.316 21.8123 16.256 22.6139 16.48ZM20.0448 15.46C20.0448 15.46 20.1195 16 20.1394 15.984C20.9559 15.668 21.7028 15.744 22.6537 16.164C22.6736 16.076 22.7284 15.776 22.7284 15.792C21.5733 15.088 20.717 15.312 20.0448 15.46ZM26.2634 17.66C26.2982 17.868 26.358 18.124 26.3928 18.244C24.1772 18.664 23.1367 19.276 22.4098 19.648C20.3087 19.156 16.8285 20.816 16.8285 20.816C16.7737 20.652 16.699 20.488 16.6443 20.308C16.6443 20.308 20.5178 18.484 22.3948 19.024C23.5449 18.408 24.7349 17.928 26.2634 17.66ZM17.0675 21.456L17.2367 21.996C17.2367 21.996 20.3435 20.26 22.5392 20.68C22.4844 20.484 22.5044 20.38 22.4645 20.172C20.4531 19.828 17.0675 21.456 17.0675 21.456ZM22.6338 21.16C20.6224 20.816 17.421 22.596 17.421 22.596C17.4757 22.776 17.5156 22.956 17.5703 23.148C17.5703 23.148 20.6224 21.352 22.7433 21.636C22.6687 21.444 22.6687 21.384 22.6338 21.16ZM20.2141 22.804C20.8862 22.536 21.7227 22.22 22.4496 22.04C22.6338 22.04 22.6736 22.1 22.5591 22.264C21.8123 22.744 20.9609 23.028 20.1743 23.312C20.1593 23.148 20.1743 22.984 20.2141 22.804ZM27.6774 21.024C27.772 21.188 27.8467 21.308 27.996 21.488C25.4469 22.264 22.8977 23.94 20.9808 24.42C20.7219 24.448 20.5875 24.404 20.2938 24.016C22.594 23.492 24.5507 22.028 27.6774 21.024ZM17.6251 23.732C17.2915 21.816 15.7082 17.648 14.7025 16.568C17.2168 15.372 19.5768 14.536 21.404 14.668C22.7981 14.756 22.7832 15.416 22.7234 15.908C23.6346 15.52 24.6054 15.116 26.0941 14.728C25.9846 17.24 26.5571 19.676 28.4391 21.996C26.2036 22.444 24.3067 24.028 22.2803 24.54C19.7859 25.168 20.0846 23.328 20.1792 22.552C19.3577 22.76 18.3869 23.252 17.6251 23.732Z" fill="black"/>
<path fill-rule="evenodd" clip-rule="evenodd" d="M14.7573 16.584C15.295 17.184 16.0418 18.784 16.1912 19.156C17.5853 18.604 18.8698 18.004 20.4332 17.78C20.2838 16.732 20.0797 15.836 19.8954 14.804C18.815 14.892 16.7886 15.612 14.7573 16.584Z" fill="#D71E25"/>
<path fill-rule="evenodd" clip-rule="evenodd" d="M19.3179 16.956C19.283 15.416 16.2111 15.416 16.246 16.956C16.2808 18.496 19.3577 18.496 19.3179 16.956Z" fill="white"/>
<path fill-rule="evenodd" clip-rule="evenodd" d="M18.0533 16.328C18.0533 16.328 17.9437 16.328 17.9587 16.356H17.9388V16.384H17.9736C17.9736 16.384 17.9935 16.368 17.9935 16.384C18.0134 16.368 18.0284 16.356 18.0483 16.356V16.328H18.0533ZM16.6194 17.076V17.048C16.6194 17.048 16.6194 17.032 16.6393 17.032V17.016C16.6592 16.972 16.6194 16.972 16.6741 16.928C16.694 16.928 16.7289 16.912 16.7289 16.9C16.7289 16.9 16.7488 16.9 16.7488 16.884L16.8235 16.856C16.8235 16.828 16.8434 16.768 16.8434 16.736C16.8633 16.72 16.8434 16.708 16.8434 16.692H16.8235C16.8235 16.676 16.8036 16.676 16.8036 16.676V16.66H16.8235V16.644H16.8434V16.628H16.8235C16.8235 16.628 16.8235 16.612 16.8036 16.612V16.6C16.8384 16.584 16.9131 16.54 16.9529 16.572C16.9729 16.572 17.1222 16.588 17.1372 16.544H17.1571L17.177 16.528C17.177 16.512 17.1969 16.5 17.177 16.484H17.1571V16.468H17.1372V16.452H17.1172V16.424L17.3015 16.364V16.348H17.3214C17.3214 16.332 17.3214 16.332 17.3413 16.332V16.316H17.3612V16.3C17.3811 16.3 17.3961 16.316 17.416 16.316C17.416 16.316 17.416 16.332 17.4359 16.316C17.4359 16.332 17.4359 16.344 17.4558 16.344C17.4359 16.344 17.421 16.372 17.421 16.372V16.432C17.4409 16.432 17.4409 16.448 17.4409 16.448C17.421 16.432 17.4409 16.448 17.4409 16.464H17.4608C17.4409 16.464 17.4409 16.464 17.4608 16.48C17.4807 16.48 17.4956 16.464 17.5156 16.464V16.448C17.5355 16.448 17.5703 16.432 17.5902 16.42V16.392C17.5902 16.392 17.6102 16.392 17.6102 16.376C17.6301 16.376 17.6102 16.36 17.6102 16.36C17.6301 16.344 17.7048 16.316 17.7197 16.332L17.7745 16.316V16.3C17.7745 16.3 17.7944 16.284 17.8093 16.284V16.268L17.8292 16.252V16.208C17.8292 16.208 17.8491 16.208 17.8491 16.192L17.8691 16.176V16.16H17.9039V16.176C17.9039 16.176 17.9238 16.192 17.9238 16.204V16.232C17.9238 16.232 17.9437 16.248 17.9437 16.26C17.9637 16.26 17.9786 16.276 17.9985 16.276V16.304C17.9985 16.32 17.9437 16.364 17.9437 16.364C17.9437 16.364 17.9437 16.38 17.9238 16.38V16.408H17.9039V16.424H17.9238C17.9238 16.424 17.9437 16.424 17.9437 16.44H17.9637C17.9637 16.456 17.9637 16.456 17.9836 16.44H18.0035C18.0383 16.424 18.0782 16.412 18.0981 16.38L18.118 16.364C18.1379 16.364 18.1927 16.32 18.1927 16.348C18.2126 16.348 18.2474 16.332 18.2474 16.332H18.2674C18.2873 16.332 18.3221 16.316 18.342 16.332V16.348L18.3769 16.364C18.3769 16.364 18.4516 16.336 18.4516 16.348L18.4864 16.332C18.5063 16.348 18.5611 16.316 18.596 16.316C18.596 16.332 18.6308 16.3 18.6507 16.316H18.7055C18.7055 16.316 18.7254 16.332 18.7404 16.316L18.7752 16.332C18.7752 16.348 18.8101 16.348 18.83 16.332C18.83 16.348 18.8648 16.332 18.8847 16.332C18.8847 16.332 18.9047 16.348 18.9047 16.332C18.9047 16.348 18.9246 16.348 18.9246 16.348H18.9445C18.9445 16.364 18.9644 16.376 18.9644 16.376C18.9644 16.404 18.9843 16.524 18.9445 16.524C18.9445 16.54 18.9445 16.552 18.9246 16.552V16.568C18.9047 16.568 18.9047 16.584 18.9047 16.584V16.612H18.8847L18.8648 16.64C18.8648 16.64 18.8648 16.656 18.8449 16.668V16.684H18.825C18.825 16.7 18.8051 16.712 18.8051 16.728L18.7702 16.744V16.832C18.7702 16.848 18.7901 16.892 18.7702 16.908C18.7702 16.936 18.7503 16.968 18.7503 16.996C18.7304 17.012 18.7503 17.056 18.7304 17.072V17.088C18.7304 17.088 18.7304 17.104 18.7105 17.104C18.7304 17.088 18.7105 17.104 18.7105 17.12C18.7105 17.12 18.7105 17.136 18.6906 17.136C18.6906 17.152 18.6706 17.152 18.6706 17.164V17.18L18.6507 17.196V17.224L18.6308 17.24C18.6109 17.24 18.6109 17.256 18.6109 17.256C18.591 17.256 18.5014 17.272 18.5014 17.284C18.4815 17.284 18.4466 17.3 18.4466 17.312C18.4267 17.312 18.352 17.34 18.3371 17.356C18.3172 17.356 18.3172 17.372 18.3172 17.384L18.2972 17.4C18.2972 17.4 18.2773 17.416 18.2773 17.428V17.444L18.2574 17.46L18.2375 17.504C18.2375 17.548 18.2574 17.592 18.2375 17.64C18.2176 17.64 18.2176 17.656 18.2176 17.656V17.672C18.1977 17.672 18.1977 17.688 18.1977 17.7C18.1977 17.684 18.1977 17.672 18.1977 17.7V17.728L18.1777 17.744L18.1578 17.76L18.1379 17.776V17.792H18.118V17.764H18.1379V17.748C18.1578 17.748 18.1578 17.732 18.1578 17.732C18.1578 17.716 18.1578 17.716 18.1777 17.704L18.1429 17.72V17.736C18.123 17.736 18.123 17.752 18.123 17.752V17.768H18.1031C18.1031 17.784 18.0831 17.828 18.0831 17.828V17.844C18.0831 17.86 18.0831 17.86 18.0632 17.872L18.0433 17.888V17.86C18.0632 17.86 18.0085 17.816 18.0085 17.816V17.8L17.9736 17.784H17.9238C17.9238 17.768 17.9039 17.768 17.9039 17.768H17.8292C17.8292 17.752 17.8641 17.724 17.8641 17.708C17.884 17.708 17.884 17.692 17.8989 17.692C17.8989 17.692 17.9188 17.692 17.9188 17.676H17.9388V17.66C17.9587 17.66 17.9587 17.616 17.9736 17.616C17.9736 17.616 17.9935 17.6 17.9935 17.588C17.9935 17.588 18.0134 17.588 18.0134 17.572C18.0334 17.572 18.0334 17.556 18.0483 17.556V17.512L18.0284 17.496C18.0085 17.496 17.9935 17.48 17.9935 17.496L17.8641 17.48C17.8442 17.48 17.8292 17.48 17.8093 17.496V17.452H17.7894C17.7894 17.436 17.7695 17.436 17.7695 17.436C17.7695 17.436 17.7496 17.436 17.7496 17.42C17.7296 17.42 17.6948 17.436 17.655 17.436C17.6351 17.408 17.655 17.332 17.6201 17.316C17.6201 17.272 17.5653 17.24 17.5653 17.212L17.5454 17.196H17.5255C17.5056 17.196 17.4907 17.196 17.4508 17.212L17.4309 17.152C17.411 17.152 17.3562 17.168 17.3214 17.168H17.3015C17.3015 17.152 17.2816 17.168 17.2816 17.152C17.2616 17.152 17.2467 17.152 17.2467 17.136C17.2268 17.136 17.172 17.136 17.172 17.12H17.1521L17.1172 17.044V17.028C17.0973 17.028 17.0824 17.028 17.0426 17.044C17.0426 17.044 17.0227 17.06 17.0227 17.072C17.0227 17.072 17.0027 17.072 17.0027 17.088L16.9679 17.116V17.132L16.948 17.148H16.9281C16.9081 17.164 16.8733 17.164 16.8534 17.164H16.8335V17.12L16.7787 17.136L16.7588 17.152C16.7389 17.152 16.7239 17.168 16.7239 17.152H16.6891C16.6891 17.136 16.6891 17.136 16.6692 17.152C16.6692 17.136 16.6692 17.124 16.6492 17.124C16.6393 17.076 16.6194 17.076 16.6194 17.076Z" fill="black"/>
<path fill-rule="evenodd" clip-rule="evenodd" d="M16.4152 18.616V18.84L16.5994 18.66L16.8783 18.72L16.709 18.54L16.8783 18.36L16.6194 18.42L16.4351 18.24L16.4152 18.464L16.1563 18.524L16.4152 18.616ZM15.5041 16.868V17.092L15.6883 16.912L15.9671 16.972L15.7979 16.792L15.9472 16.612L15.6883 16.672L15.5041 16.492L15.4842 16.716L15.2253 16.776L15.5041 16.868ZM19.1685 15.52V15.744L19.3527 15.564L19.6316 15.624L19.4623 15.444L19.6116 15.264L19.3527 15.324L19.1685 15.144L19.1486 15.368L18.8897 15.428L19.1685 15.52ZM19.6913 17.464V17.688L19.8755 17.508L20.1543 17.568L19.9851 17.388L20.1543 17.208L19.8954 17.268L19.7112 17.088L19.6913 17.312L19.4324 17.372L19.6913 17.464Z" fill="white"/>
<path fill-rule="evenodd" clip-rule="evenodd" d="M17.645 26.004C17.6251 25.944 14.6477 18.436 13.8661 16.464L14.5183 16.3C15.4693 18.604 18.5362 26.124 18.6109 26.272C18.4466 26.256 17.6998 26.02 17.645 26.004Z" fill="black"/>
<path fill-rule="evenodd" clip-rule="evenodd" d="M32.6263 19.856C32.5915 19.812 32.5317 19.752 32.4969 19.708L32.3127 19.484H32.2181C32.0886 19.26 32.0339 18.992 32.0339 18.708C32.0339 18.572 32.0538 18.452 32.0538 18.32C32.1085 18.364 32.1633 18.396 32.1633 18.396C32.2728 18.472 32.4073 18.56 32.462 18.636C32.6313 18.892 32.6861 19.128 32.6861 19.368C32.6811 19.528 32.6662 19.692 32.6263 19.856ZM32.3276 21.368C32.4571 21.1 32.6064 20.8 32.6064 20.456C32.6064 20.352 32.5865 20.248 32.5517 20.14C32.4222 20.036 32.3077 19.916 32.1982 19.812C32.0886 20.096 31.994 20.38 31.994 20.636C31.994 20.74 32.0139 20.832 32.0289 20.92C32.0488 20.996 32.0836 21.068 32.1384 21.16L32.2679 21.356C32.2679 21.372 32.2878 21.372 32.2878 21.384C32.3127 21.368 32.3276 21.368 32.3276 21.368ZM31.8646 22.968C31.8646 22.968 31.8447 22.984 31.8447 22.996C31.7501 22.8 31.6754 22.608 31.6604 22.504C31.6604 22.46 31.6405 22.416 31.6405 22.368C31.6405 22.052 31.8098 21.68 32.0139 21.336C32.0687 21.44 32.1434 21.532 32.2181 21.636C32.238 21.68 32.2529 21.712 32.2529 21.74C32.2728 21.8 32.2728 21.86 32.2728 21.936C32.2928 22.34 32.0687 22.668 31.8646 22.968ZM31.0829 24.372C31.3617 24.072 31.6804 23.716 31.6804 23.22C31.6804 23.132 31.6256 23.012 31.5509 22.904C31.5509 22.904 31.531 22.844 31.4961 22.784C31.1974 23.144 30.9385 23.548 30.9385 23.904V23.964C30.9335 23.984 30.9883 24.24 31.0829 24.372ZM30.0224 25.72L30.0025 25.736C30.0025 25.676 29.9826 25.616 29.9826 25.556C29.9826 25.436 30.0025 25.316 30.0174 25.228C30.0921 24.9 30.4108 24.572 30.7643 24.24C30.819 24.344 30.8738 24.42 30.8937 24.612V24.672C30.7642 25.152 30.3759 25.452 30.0224 25.72ZM29.8183 25.196C29.9129 24.776 30.3012 24.388 30.7294 24.016V23.928C30.7294 23.464 31.1028 22.984 31.4364 22.568C31.4364 22.568 31.4563 22.552 31.4563 22.54C31.3816 22.108 31.6405 21.612 31.9193 21.136C31.8845 21.076 31.8646 21.016 31.8447 20.972C31.7152 20.584 31.8646 20.088 32.0488 19.628L32.0289 19.612C31.77 19.224 31.8048 18.296 31.8795 18.132C31.526 17.744 31.4513 17.144 31.4314 16.728L31.3766 16.684C30.9833 16.368 30.7991 15.848 30.6497 15.324C30.6298 15.324 30.6298 15.308 30.6149 15.308C30.1668 15.04 29.9079 14.532 29.6838 14.024C29.6838 14.024 29.5544 13.964 29.4797 13.936C28.9768 13.696 28.6781 13.28 28.4192 12.844C28.3993 12.844 28.3844 12.828 28.3644 12.828C27.8417 12.692 27.3786 12.288 26.9505 11.884H26.9305C26.3928 11.808 25.8701 11.464 25.3871 11.108H25.2925C24.7349 11.108 24.1374 10.84 23.5798 10.54L23.5599 10.524C23.0022 10.584 22.3699 10.36 21.8123 10.152C21.7376 10.168 21.6629 10.196 21.6082 10.212C21.1601 10.3 20.6224 10.212 20.0996 10.076H20.0797C19.5967 10.284 18.9047 10.256 18.2375 10.196L18.2226 10.2C17.7944 10.44 17.1621 10.5 16.5497 10.516C16.5297 10.532 16.5148 10.56 16.4949 10.576C15.8825 11.056 14.7822 11.116 14.7822 11.116C14.7623 11.132 14.7623 11.144 14.7473 11.16C14.4137 11.504 13.7814 11.7 13.1641 11.864C13.1292 11.924 13.1093 11.968 13.0695 12.012C12.7906 12.384 12.2529 12.64 11.7301 12.848C11.7301 12.876 11.7102 12.908 11.7102 12.924C11.3567 13.656 10.5004 14.032 10.5004 14.032C10.5004 14.048 10.4805 14.076 10.4805 14.076C10.3859 14.508 9.9776 14.9 9.56933 15.256V15.344C9.56933 15.792 9.23575 16.256 8.86234 16.704C8.86234 16.704 8.84242 16.72 8.84242 16.732C8.9171 17.18 8.63829 17.688 8.37939 18.136C8.41424 18.196 8.43416 18.256 8.45407 18.3C8.58352 18.72 8.41922 19.228 8.21011 19.72C8.43416 20.108 8.39432 20.632 8.33956 21.14L8.35947 21.156C8.6582 21.516 8.73289 22.04 8.7528 22.56L8.80757 22.604C9.21583 22.932 9.38511 23.488 9.49465 23.98C9.94274 24.248 10.1817 24.756 10.4058 25.264L10.5751 25.352C11.0381 25.56 11.3567 26.008 11.6156 26.428C11.6505 26.428 11.6704 26.444 11.7102 26.444C12.2479 26.58 12.716 26.996 13.1043 27.388H13.1392C13.6968 27.464 14.2196 27.82 14.6677 28.164H14.7224C15.2801 28.164 15.8576 28.432 16.4152 28.732C16.4152 28.732 16.4352 28.748 16.4501 28.748C17.0276 28.688 17.6599 28.912 18.2176 29.136C18.3122 29.108 18.3869 29.092 18.4615 29.076C18.9445 28.972 19.5419 29.092 20.1195 29.24C20.1543 29.224 20.1743 29.212 20.2141 29.196C20.697 28.988 21.3891 29.016 22.0563 29.076C22.0563 29.076 22.0762 29.076 22.0762 29.06C22.5044 28.82 23.1367 28.776 23.7491 28.744C23.769 28.728 23.7839 28.7 23.8038 28.684C24.1972 28.368 24.8643 28.236 25.5166 28.132L25.5514 28.16C25.5713 28.144 25.5713 28.132 25.5863 28.132C25.9398 27.772 26.5721 27.564 27.1496 27.416C27.1845 27.356 27.2044 27.312 27.2442 27.268C27.5031 26.908 27.9711 26.612 28.5835 26.432C28.5835 26.404 28.6034 26.372 28.6034 26.356C28.698 25.748 29.8183 25.196 29.8183 25.196ZM29.7436 25.9C29.5594 26.38 29.1312 26.632 28.7578 26.856C28.703 26.588 28.7777 26.424 28.7777 26.424C28.7777 26.408 28.7777 26.396 28.7976 26.396C28.9271 26.052 29.3204 25.74 29.7486 25.452V25.572C29.7486 25.648 29.7685 25.708 29.7685 25.768C29.7685 25.828 29.7635 25.868 29.7436 25.9ZM27.1745 27.8C27.1546 27.784 27.1745 27.772 27.1745 27.756L27.2492 27.56C27.284 27.472 27.3438 27.396 27.3786 27.336C27.5828 27.052 28.011 26.828 28.4939 26.632C28.5487 26.78 28.5138 26.888 28.459 27.052C28.1255 27.484 27.6226 27.648 27.1745 27.8ZM26.8758 27.948L26.821 28.036C26.4277 28.44 25.9099 28.56 25.4269 28.664C25.4269 28.664 25.407 28.664 25.3921 28.68C25.4867 28.5 25.5962 28.336 25.7107 28.232C25.9696 27.948 26.4725 27.768 26.9953 27.62C26.9903 27.724 26.8758 27.948 26.8758 27.948ZM25.2577 28.428C25.2029 28.548 25.1481 28.652 25.0535 28.728C24.6253 29.072 24.1026 29.148 23.6395 29.208C23.6744 29.18 23.7142 28.968 23.9383 28.804C24.2569 28.564 24.7747 28.432 25.3323 28.34C25.2925 28.368 25.2577 28.428 25.2577 28.428ZM23.2462 29.28C22.7433 29.548 22.2056 29.548 21.7376 29.536H21.7028C21.7376 29.508 21.7575 29.476 21.7974 29.448C21.9268 29.344 22.0563 29.24 22.1708 29.18C22.5044 28.984 23.0271 28.94 23.5499 28.912C23.4902 29.084 23.3757 29.16 23.2462 29.28ZM21.6828 29.28C21.6082 29.34 21.5534 29.4 21.4787 29.46C21.4439 29.476 21.4239 29.504 21.3841 29.52C20.8464 29.744 20.3236 29.684 19.8755 29.624C19.9104 29.608 19.9502 29.58 19.9851 29.548L20.2639 29.4V29.312C20.2639 29.312 20.2838 29.312 20.2838 29.296C20.6771 29.132 21.2348 29.148 21.7924 29.176C21.7376 29.232 21.6828 29.28 21.6828 29.28ZM19.4523 29.608C18.8549 29.712 18.3719 29.564 17.9238 29.412C17.9238 29.412 17.9039 29.396 17.889 29.396C18.0931 29.308 18.3172 29.232 18.4864 29.188C18.8798 29.112 19.3627 29.188 19.8656 29.308C19.7311 29.4 19.5818 29.504 19.4523 29.608ZM17.7944 29.232C17.6649 29.292 17.5156 29.352 17.401 29.368C16.7687 29.444 16.2858 29.22 15.8576 29.024C15.8576 29.024 15.8377 29.008 15.8228 29.008C16.0468 28.948 16.2708 28.888 16.4352 28.872C16.8832 28.828 17.421 28.992 17.9039 29.172L17.7944 29.232ZM15.539 28.888C14.9066 28.888 14.4586 28.62 14.0702 28.396C14.0702 28.396 14.0503 28.396 14.0503 28.38C14.125 28.364 14.1797 28.364 14.2544 28.352L14.5531 28.308H14.6826C15.1307 28.308 15.6136 28.516 16.0767 28.756C16.0219 28.772 15.9472 28.784 15.9472 28.784C15.8028 28.844 15.6535 28.888 15.539 28.888ZM13.7914 28.216C13.1591 28.172 12.7857 27.812 12.4521 27.528L12.4322 27.512C12.5068 27.512 12.5616 27.512 12.6363 27.496H12.8056C12.9002 27.496 12.9749 27.512 13.0495 27.512C13.4777 27.572 13.9059 27.84 14.3142 28.14C14.2196 28.216 13.9408 28.232 13.7914 28.216ZM12.2081 27.336C11.6107 27.188 11.297 26.844 11.0182 26.544C11.1277 26.5 11.5957 26.572 11.5957 26.572C12.0239 26.676 12.4122 27.004 12.7707 27.336C12.6214 27.38 12.3575 27.364 12.2081 27.336ZM10.7941 26.304C10.2564 26.048 10.0473 25.648 9.86308 25.288C9.86308 25.288 9.84317 25.272 9.84317 25.26C10.1021 25.32 10.3062 25.396 10.4406 25.456C10.814 25.636 11.0929 25.98 11.3169 26.352C11.1128 26.408 11.0381 26.376 10.7941 26.304ZM9.56435 24.956C9.06149 24.64 8.91212 24.224 8.78267 23.848V23.832C8.83744 23.86 8.89221 23.876 8.96689 23.892C9.11626 23.952 9.24571 24.012 9.3403 24.072C9.6938 24.28 9.91785 24.684 10.1021 25.12C10.0473 25.104 9.97262 25.092 9.97262 25.092C9.82823 25.032 9.65895 25 9.56435 24.956ZM8.71297 23.58C8.26487 23.22 8.19019 22.788 8.11551 22.4V22.384C8.17028 22.412 8.21011 22.428 8.26487 22.46L8.54369 22.608H8.56361C8.59846 22.624 8.61837 22.652 8.63829 22.668C8.95693 22.924 9.12124 23.372 9.23575 23.788C9.21583 23.772 9.18098 23.772 9.16107 23.76C9.05153 23.716 8.93702 23.672 8.80757 23.624C8.74782 23.612 8.72791 23.596 8.71297 23.58ZM8.04083 22.1C7.76201 21.772 7.70725 21.428 7.70725 21.1V20.816C7.72716 20.832 7.76201 20.844 7.78193 20.876C7.95121 20.996 8.08066 21.116 8.15534 21.192C8.3993 21.476 8.47399 21.908 8.48892 22.344C8.37939 22.268 8.23002 22.208 8.09559 22.136C8.07568 22.132 8.06074 22.116 8.04083 22.1ZM7.51805 19.888C7.51805 20.112 7.57282 20.352 7.72218 20.576C7.7421 20.604 7.75703 20.62 7.79686 20.652C7.87155 20.712 7.94623 20.756 8.02091 20.816C8.09559 20.876 8.07568 20.86 8.13045 20.892C8.15036 20.744 8.1653 20.576 8.1653 20.444C8.1653 20.176 8.13045 19.92 7.99602 19.728H7.9761L7.79189 19.504C7.7172 19.428 7.66244 19.368 7.60767 19.296V19.312C7.57282 19.484 7.51805 19.68 7.51805 19.888ZM7.96614 17.856C7.96614 17.856 7.96614 17.84 7.98606 17.84C7.98606 17.856 8.00598 17.868 8.00598 17.868L8.10057 18.016C8.15534 18.136 8.21011 18.224 8.23002 18.3C8.26488 18.388 8.26487 18.48 8.26487 18.584C8.26487 18.852 8.17028 19.168 8.04083 19.468C7.94623 19.364 7.85661 19.26 7.7421 19.152C7.7421 19.136 7.72218 19.124 7.72218 19.124C7.68733 19.004 7.66741 18.884 7.66741 18.764C7.68733 18.424 7.83669 18.124 7.96614 17.856ZM8.42918 16.24C8.42918 16.24 8.44909 16.224 8.44909 16.212C8.54369 16.392 8.59846 16.572 8.61837 16.704C8.61837 16.748 8.63829 16.792 8.63829 16.84C8.63829 17.168 8.45407 17.544 8.26487 17.872C8.21011 17.768 8.13542 17.664 8.06074 17.572C8.04083 17.544 8.02589 17.496 8.02589 17.468C8.00598 17.408 8.00598 17.332 8.00598 17.272C8.001 16.868 8.22504 16.524 8.42918 16.24ZM9.21085 14.832C9.26562 14.936 9.30545 14.98 9.36022 15.22V15.28C9.36022 15.64 9.10132 16.028 8.80259 16.4C8.74782 16.356 8.63331 16.056 8.63331 15.968C8.61837 15.492 8.93204 15.132 9.21085 14.832ZM10.2564 13.504L10.2763 13.488C10.2763 13.548 10.2962 13.608 10.2962 13.668C10.2962 13.788 10.2763 13.908 10.2614 13.996C10.1867 14.34 9.86806 14.668 9.51456 14.984C9.31043 14.804 9.38511 14.492 9.38511 14.492C9.50958 13.98 9.90291 13.756 10.2564 13.504ZM10.5551 13.324C10.7394 12.844 11.1675 12.592 11.541 12.368C11.6156 12.576 11.521 12.8 11.521 12.8C11.521 12.816 11.521 12.816 11.5011 12.828C11.3717 13.172 10.9783 13.472 10.5502 13.772C10.4605 13.608 10.5352 13.352 10.5551 13.324ZM11.8397 12.156C12.1583 11.724 12.6562 11.556 13.1043 11.408C13.1043 11.408 13.1242 11.408 13.1392 11.392C13.1392 11.408 13.1192 11.42 13.1192 11.436L13.0446 11.616C12.9898 11.72 12.95 11.796 12.9151 11.856C12.696 12.156 12.2479 12.38 11.7999 12.56C11.7799 12.428 11.765 12.38 11.8397 12.156ZM13.3831 11.348L13.418 11.26L13.4727 11.172C13.8661 10.768 14.3839 10.648 14.8519 10.544H14.8867C14.7772 10.74 14.6627 10.904 14.5681 10.992C14.3092 11.276 13.8063 11.456 13.2835 11.604C13.3284 11.5 13.3433 11.468 13.3831 11.348ZM15.0212 10.796C15.0759 10.676 15.1506 10.54 15.2253 10.48C15.6535 10.136 16.231 10.06 16.714 10C16.6194 10.164 16.3953 10.372 16.3953 10.372L16.3605 10.4C16.0418 10.656 15.524 10.772 14.9664 10.88C15.0012 10.84 15.0212 10.796 15.0212 10.796ZM17.0475 9.944C17.5504 9.66 18.0881 9.676 18.5761 9.688H18.6109L18.5362 9.748C18.3869 9.884 18.2375 9.988 18.1429 10.032C17.8093 10.228 17.2865 10.288 16.7638 10.3C16.8633 10.2 16.9579 10.064 17.0475 9.944ZM18.6109 9.928C18.6856 9.868 18.7404 9.808 18.815 9.748C18.8499 9.732 18.8698 9.704 18.9096 9.704C19.3727 9.508 19.8208 9.524 20.229 9.568C20.1743 9.596 20.1344 9.628 20.0797 9.656L19.8008 9.804L19.8208 9.952C19.4473 10.04 18.9843 10.04 18.5163 9.996C18.5213 10.004 18.6109 9.928 18.6109 9.928ZM20.0996 9.868C20.1942 9.824 20.3236 9.748 20.4531 9.66C20.3784 9.688 20.2838 9.748 20.1942 9.796C20.1942 9.796 20.1394 9.824 20.0647 9.856C20.0846 9.856 20.0846 9.856 20.0996 9.868ZM20.8464 9.616L20.8265 9.588C21.3094 9.544 21.7376 9.692 22.1309 9.812H22.1509C22.1309 9.812 22.116 9.828 22.116 9.828L21.8571 9.932C21.7476 9.96 21.653 9.992 21.5783 10.008C21.2248 10.084 20.7966 10.024 20.3485 9.92C20.5278 9.84 20.697 9.72 20.8464 9.616ZM22.594 9.84C23.2263 9.78 23.7092 9.988 24.1374 10.184L24.1573 10.2C23.9134 10.276 23.6943 10.336 23.5449 10.348C23.0968 10.392 22.579 10.228 22.0911 10.048C22.2206 10.004 22.4645 9.884 22.4645 9.884C22.5193 9.856 22.5591 9.84 22.594 9.84ZM24.4361 10.316C25.0685 10.316 25.5166 10.584 25.9049 10.808C25.9049 10.808 25.9248 10.824 25.9398 10.824C25.6809 10.868 25.4568 10.9 25.3074 10.9C24.8593 10.9 24.3764 10.692 23.8935 10.452C23.9482 10.436 24.0229 10.408 24.0229 10.408C24.1972 10.376 24.3266 10.316 24.4361 10.316ZM26.0592 10.992C26.1339 10.976 26.1887 10.976 26.2435 10.992C26.8758 11.08 27.2492 11.396 27.6027 11.68L27.6226 11.696C27.5479 11.696 27.4732 11.696 27.3986 11.712H27.2293C27.1546 11.712 27.0799 11.696 27.0052 11.696C26.577 11.636 26.129 11.368 25.7008 11.052C25.8153 11.036 25.9248 11.02 26.0592 10.992ZM27.7869 11.872H27.8218C28.4342 12.02 28.7727 12.38 29.0515 12.708V12.724H28.8275C28.6582 12.708 28.5287 12.696 28.4342 12.664C28.006 12.56 27.6176 12.244 27.2591 11.9C27.4334 11.888 27.6027 11.888 27.7869 11.872ZM29.2407 12.92C29.7984 13.176 30.0224 13.576 30.2066 13.936C30.2066 13.936 30.2265 13.952 30.2265 13.964C30.0025 13.904 29.7784 13.844 29.6291 13.768C29.2208 13.572 28.9569 13.228 28.7179 12.872H28.7528C28.8822 12.888 29.0316 12.9 29.181 12.9C29.2009 12.904 29.2208 12.92 29.2407 12.92ZM30.5253 14.264C31.0281 14.58 31.1974 14.996 31.3269 15.372V15.388C31.2721 15.36 31.1974 15.344 31.1426 15.328L30.9933 15.268C30.8987 15.224 30.824 15.192 30.7692 15.164C30.4157 14.956 30.1718 14.552 29.9876 14.116C30.0622 14.132 30.1369 14.16 30.1369 14.16C30.2813 14.176 30.4307 14.204 30.5253 14.264ZM31.4364 15.628C31.8994 15.988 31.9741 16.436 32.0488 16.808C32.0139 16.792 31.9542 16.764 31.9193 16.748L31.6206 16.6C31.5858 16.584 31.5658 16.556 31.526 16.54C31.2074 16.284 31.0431 15.868 30.9136 15.432C31.063 15.492 31.2123 15.552 31.3766 15.612C31.4015 15.612 31.4165 15.628 31.4364 15.628ZM32.1633 17.108C32.1633 17.092 32.1434 17.092 32.1285 17.08C31.9592 17.004 31.8098 16.932 31.6804 16.856C31.7152 17.244 31.7899 17.708 32.0737 18.024C32.1683 18.128 32.3326 18.264 32.5218 18.396V18.188C32.5168 17.84 32.477 17.464 32.1633 17.108ZM32.8305 19.932C32.9052 19.56 32.9798 19.08 32.6811 18.588L32.7359 18.364C32.7359 18.288 32.7558 17.48 32.3425 17.02C32.3425 17.004 32.3226 17.004 32.3077 16.992L32.2728 16.812C32.1982 16.424 32.1036 15.944 31.6007 15.54L31.526 15.344C31.3766 14.972 31.2074 14.492 30.6497 14.148C30.6149 14.12 30.5751 14.104 30.5203 14.06L30.4655 13.972L30.4108 13.884C30.2066 13.512 29.9826 13.092 29.3851 12.808L29.2357 12.628C28.9569 12.312 28.5835 11.924 27.9313 11.744L27.7471 11.58C27.4135 11.296 26.9853 10.936 26.2783 10.832H26.2584L26.0543 10.696C25.6609 10.456 25.178 10.172 24.471 10.172L24.2469 10.052C23.8188 9.856 23.2811 9.62 22.5741 9.692C22.5193 9.692 22.4645 9.708 22.4048 9.736L22.2206 9.676C21.7725 9.528 21.2348 9.36 20.5825 9.468H20.5278C20.0448 9.408 19.4473 9.332 18.835 9.572L18.5761 9.556C18.0931 9.54 17.4757 9.528 16.8832 9.856C16.8832 9.856 16.8633 9.856 16.8633 9.872L16.6791 9.9C16.1962 9.96 15.5788 10.02 15.0809 10.424C15.0809 10.424 14.8569 10.44 14.7473 10.452C14.3938 10.54 13.7217 10.676 13.2935 11.124C13.2587 11.152 13.2387 11.2 13.2188 11.228L13.0346 11.256C12.5865 11.404 12.0289 11.6 11.6754 12.08L11.4912 12.184C11.0978 12.408 10.6 12.708 10.3908 13.244C10.3908 13.244 10.3709 13.244 10.1469 13.38C9.92283 13.516 9.34528 13.992 9.21583 14.548V14.576L9.1063 14.696C8.80757 15.012 8.45407 15.4 8.43416 15.968C8.43416 15.968 8.43416 15.94 8.28479 16.148C8.11551 16.356 7.74708 16.924 7.83669 17.492C7.83669 17.536 7.85661 17.58 7.89146 17.628L7.81678 17.792C7.6475 18.136 7.44337 18.556 7.55788 19.064C7.55788 19.064 7.4832 19.124 7.44835 19.288C7.41349 19.452 7.27906 20.156 7.57779 20.648L7.55788 20.856C7.53796 21.244 7.52303 21.74 7.93129 22.216L7.96614 22.424C8.04083 22.812 8.11551 23.276 8.59846 23.68L8.65322 23.888C8.78267 24.276 8.95195 24.74 9.50958 25.084C9.54444 25.112 9.61912 25.16 9.61912 25.16L9.71372 25.356C9.89793 25.716 10.1419 26.164 10.7394 26.448L10.8887 26.612C11.1675 26.928 11.521 27.316 12.1932 27.496L12.3774 27.644C12.711 27.928 13.1242 28.288 13.8113 28.392L14.1648 28.632C14.5581 28.872 14.8917 29.064 15.5987 29.064L15.8228 29.2C16.2509 29.396 16.7886 29.632 17.4956 29.56C17.5703 29.56 17.6251 29.532 17.6998 29.516L17.9238 29.592C18.3719 29.74 18.9495 29.92 19.6365 29.788H19.6565L19.8407 29.816C20.3236 29.876 20.9012 29.952 21.5335 29.712L21.8123 29.728C22.2952 29.744 22.9126 29.756 23.4852 29.428C23.4852 29.428 23.5051 29.428 23.5051 29.412L23.6893 29.396C24.1723 29.336 24.7896 29.276 25.2875 28.872C25.2875 28.872 25.3224 28.888 25.5663 28.856C25.8252 28.828 26.6268 28.616 27.0749 28.168C27.1098 28.14 27.1297 28.092 27.1496 28.064L27.3338 28.004C27.7819 27.856 28.3396 27.66 28.6931 27.18L28.8972 27.06C29.2905 26.836 29.7884 26.536 29.9975 26.012L30.2415 25.892C30.595 25.624 31.058 25.28 31.1725 24.724V24.696L31.282 24.56C31.5808 24.244 31.9343 23.856 31.9343 23.288L32.1036 23.092C32.3475 22.748 32.6413 22.316 32.5517 21.76C32.5517 21.716 32.5317 21.672 32.4969 21.624L32.5716 21.476C32.7408 21.132 32.9649 20.7 32.8305 20.192V19.932Z" fill="black"/>
<path fill-rule="evenodd" clip-rule="evenodd" d="M18.5761 30.236V28.952C18.5761 28.728 18.7453 28.564 18.9694 28.564H18.9893C19.2133 28.564 19.3826 28.728 19.3826 28.952V30.236C19.3826 30.46 19.2133 30.608 18.9893 30.608H18.9694C18.7404 30.624 18.5761 30.46 18.5761 30.236ZM20.6771 30.236V28.952C20.6771 28.728 20.8464 28.564 21.0704 28.564H21.0904C21.3144 28.564 21.4837 28.728 21.4837 28.952V30.236C21.4837 30.46 21.3144 30.608 21.0904 30.608H21.0704C20.8464 30.624 20.6771 30.46 20.6771 30.236ZM19.6365 30.236V28.952C19.6365 28.728 19.8058 28.564 20.0299 28.564H20.0498C20.2738 28.564 20.4431 28.728 20.4431 28.952V30.236C20.4431 30.46 20.2738 30.608 20.0498 30.608H20.0299C19.8058 30.624 19.6365 30.46 19.6365 30.236ZM33.3732 20.816H31.775C31.4961 20.816 31.292 20.68 31.292 20.5V20.484C31.292 20.304 31.4961 20.168 31.775 20.168H33.3732C33.652 20.168 33.8362 20.304 33.8362 20.484V20.5C33.8362 20.68 33.652 20.816 33.3732 20.816ZM33.3732 19.124H31.775C31.4961 19.124 31.292 18.988 31.292 18.808V18.792C31.292 18.612 31.4961 18.476 31.775 18.476H33.3732C33.652 18.476 33.8362 18.612 33.8362 18.792V18.808C33.8362 18.992 33.652 19.124 33.3732 19.124ZM33.3732 19.964H31.775C31.4961 19.964 31.292 19.828 31.292 19.648V19.632C31.292 19.452 31.4961 19.316 31.775 19.316H33.3732C33.652 19.316 33.8362 19.452 33.8362 19.632V19.648C33.8362 19.828 33.652 19.964 33.3732 19.964ZM21.4239 8.972V10.256C21.4239 10.496 21.2547 10.66 21.0306 10.66H21.0107C20.7867 10.66 20.6174 10.496 20.6174 10.256V8.972C20.6174 8.748 20.7867 8.584 21.0107 8.584H21.0306C21.2547 8.584 21.4239 8.748 21.4239 8.972ZM18.9096 8.584C19.1536 8.584 19.3179 8.748 19.3179 8.972V10.256C19.3179 10.496 19.1486 10.66 18.9246 10.66H18.9047C18.6806 10.66 18.5113 10.496 18.5113 10.256V8.972C18.5213 8.748 18.6856 8.584 18.9096 8.584ZM20.3784 8.972V10.256C20.3784 10.496 20.2091 10.66 19.9851 10.66H19.9651C19.7411 10.66 19.5718 10.496 19.5718 10.256V8.972C19.5718 8.748 19.7411 8.584 19.9651 8.584H19.9851C20.2141 8.584 20.3784 8.748 20.3784 8.972ZM6.9405 18.408H8.53871C8.83744 18.408 9.02166 18.544 9.02166 18.724V18.74C9.02166 18.92 8.81752 19.056 8.53871 19.056H6.9405C6.66169 19.056 6.45755 18.92 6.45755 18.74V18.72C6.45755 18.556 6.66169 18.408 6.9405 18.408ZM6.9405 20.096H8.53871C8.83744 20.096 9.02166 20.232 9.02166 20.412V20.428C9.02166 20.608 8.81752 20.744 8.53871 20.744H6.9405C6.66169 20.744 6.45755 20.608 6.45755 20.428V20.412C6.45755 20.248 6.66169 20.096 6.9405 20.096ZM6.9405 19.26H8.53871C8.83744 19.26 9.02166 19.396 9.02166 19.576V19.592C9.02166 19.772 8.81752 19.908 8.53871 19.908H6.9405C6.66169 19.908 6.45755 19.772 6.45755 19.592V19.576C6.45755 19.396 6.66169 19.26 6.9405 19.26Z" fill="white"/>
<path fill-rule="evenodd" clip-rule="evenodd" d="M20.3236 29.876V30.248C20.3236 30.412 20.2141 30.548 20.0448 30.548C19.8606 30.548 19.7461 30.428 19.7461 30.248V28.964C19.7461 28.784 19.8556 28.648 20.0249 28.648C20.2091 28.648 20.3236 28.784 20.3236 28.964V29.876ZM21.3692 29.908V30.236C21.3692 30.4 21.2397 30.536 21.0904 30.536C20.9061 30.536 20.7916 30.416 20.7916 30.236V28.952C20.7916 28.772 20.9012 28.636 21.0705 28.636C21.2547 28.636 21.3692 28.772 21.3692 28.952V29.908ZM18.6308 9.272V8.972C18.6308 8.808 18.7603 8.672 18.9096 8.672C19.0939 8.672 19.2084 8.808 19.2084 8.972V10.256C19.2084 10.436 19.0988 10.572 18.9295 10.572C18.7453 10.572 18.6308 10.436 18.6308 10.256V9.272ZM19.6913 9.256V8.972C19.6913 8.808 19.8208 8.672 19.9701 8.672C20.1543 8.672 20.2689 8.808 20.2689 8.972V10.256C20.2689 10.436 20.1593 10.572 19.99 10.572C19.8058 10.572 19.6913 10.436 19.6913 10.256V9.256ZM20.7319 9.272V8.972C20.7319 8.808 20.8613 8.672 21.0107 8.672C21.1949 8.672 21.3094 8.808 21.3094 8.972V10.256C21.3094 10.436 21.1999 10.572 21.0306 10.572C20.8464 10.572 20.7319 10.436 20.7319 10.256V9.272ZM32.8902 20.26H33.3732C33.5773 20.26 33.7466 20.364 33.7466 20.484C33.7466 20.632 33.5972 20.724 33.3732 20.724H31.775C31.5509 20.724 31.3816 20.636 31.3816 20.5C31.3816 20.352 31.5509 20.26 31.775 20.26H32.8902ZM32.9251 19.408H33.3732C33.5773 19.408 33.7466 19.512 33.7466 19.632C33.7466 19.78 33.5972 19.872 33.3732 19.872H31.775C31.5509 19.872 31.3816 19.784 31.3816 19.648C31.3816 19.5 31.5509 19.408 31.775 19.408H32.9251ZM32.945 18.572H33.3732C33.5773 18.572 33.7466 18.66 33.7466 18.796C33.7466 18.932 33.5972 19.036 33.3732 19.036H31.775C31.5509 19.036 31.3816 18.948 31.3816 18.812C31.3816 18.664 31.5509 18.572 31.775 18.572H32.945ZM7.35375 20.664H6.94548C6.74135 20.664 6.57207 20.56 6.57207 20.44C6.57207 20.292 6.74135 20.2 6.94548 20.2H8.54369C8.76774 20.2 8.93702 20.288 8.93702 20.424C8.93702 20.572 8.76774 20.664 8.54369 20.664H7.35375ZM7.3886 19.812H6.9405C6.73637 19.812 6.56709 19.708 6.56709 19.588C6.56709 19.44 6.73637 19.348 6.9405 19.348H8.53871C8.76276 19.348 8.93204 19.436 8.93204 19.572C8.93204 19.72 8.76276 19.812 8.53871 19.812H7.3886ZM7.42843 18.96H6.94548C6.74135 18.96 6.57207 18.856 6.57207 18.736C6.57207 18.588 6.74135 18.496 6.94548 18.496H8.54369C8.76774 18.496 8.93702 18.584 8.93702 18.72C8.93702 18.868 8.76774 18.96 8.54369 18.96H7.42843ZM19.2631 29.848V30.236C19.2631 30.4 19.1337 30.536 18.9843 30.536C18.8001 30.536 18.6856 30.416 18.6856 30.236V28.952C18.6856 28.772 18.7951 28.636 18.9644 28.636C19.1486 28.636 19.2631 28.772 19.2631 28.952V29.848ZM20.5477 29.952C20.5477 29.924 20.5477 29.908 20.5278 29.876V28.948C20.5278 28.68 20.3037 28.468 20.0249 28.468C19.7262 28.468 19.5021 28.676 19.5021 28.948V30.232C19.5021 30.5 19.7262 30.696 20.005 30.696C20.3037 30.696 20.5278 30.488 20.5278 30.232L20.5477 29.952ZM21.5882 29.952V28.964C21.5882 28.696 21.3642 28.484 21.0854 28.484C20.7867 28.484 20.5626 28.692 20.5626 28.964V30.248C20.5626 30.516 20.7867 30.712 21.0655 30.712C21.3642 30.712 21.5882 30.504 21.5882 30.248V29.952ZM18.9295 8.508C18.6308 8.508 18.4068 8.716 18.4068 8.972V10.256C18.4068 10.524 18.6308 10.736 18.9096 10.736C19.2084 10.736 19.4324 10.528 19.4324 10.256V8.972C19.4324 8.704 19.2283 8.508 18.9295 8.508ZM19.99 8.508C19.6913 8.508 19.4673 8.716 19.4673 8.972V10.256C19.4673 10.524 19.6913 10.736 19.9701 10.736C20.2689 10.736 20.4929 10.528 20.4929 10.256V8.972C20.4929 8.704 20.2689 8.508 19.99 8.508ZM21.0306 8.508C20.7319 8.508 20.5078 8.716 20.5078 8.972V10.256C20.5078 10.524 20.7319 10.736 21.0107 10.736C21.3094 10.736 21.5335 10.528 21.5335 10.256V8.972C21.5335 8.704 21.3293 8.508 21.0306 8.508ZM33.3732 20.084H31.775C31.4414 20.084 31.1775 20.264 31.1775 20.488C31.1775 20.728 31.4364 20.908 31.775 20.908H33.3732C33.7067 20.908 33.9507 20.728 33.9507 20.504C33.9507 20.26 33.7067 20.084 33.3732 20.084ZM33.3732 19.244H31.775C31.4414 19.244 31.1775 19.408 31.1775 19.648C31.1775 19.888 31.4364 20.068 31.775 20.068H33.3732C33.7067 20.068 33.9507 19.888 33.9507 19.664C33.9507 19.408 33.7067 19.244 33.3732 19.244ZM33.3732 18.392H31.775C31.4414 18.392 31.1775 18.556 31.1775 18.796C31.1775 19.036 31.4364 19.216 31.775 19.216H33.3732C33.7067 19.216 33.9507 19.052 33.9507 18.812C33.9507 18.572 33.7067 18.392 33.3732 18.392ZM8.54369 20.024H6.94548C6.6119 20.024 6.36794 20.204 6.36794 20.428C6.36794 20.668 6.62683 20.848 6.94548 20.848H8.54369C8.87727 20.848 9.14115 20.668 9.14115 20.444C9.14115 20.188 8.87727 20.024 8.54369 20.024ZM8.54369 19.172H6.94548C6.6119 19.172 6.36794 19.352 6.36794 19.576C6.36794 19.816 6.6119 19.996 6.94548 19.996H8.54369C8.87727 19.996 9.14115 19.816 9.14115 19.592C9.14115 19.348 8.87727 19.172 8.54369 19.172ZM8.54369 18.332H6.94548C6.6119 18.332 6.36794 18.496 6.36794 18.736C6.36794 18.976 6.6119 19.156 6.94548 19.156H8.54369C8.89719 19.156 9.14115 18.992 9.14115 18.752C9.14115 18.496 8.87727 18.332 8.54369 18.332ZM19.5071 29.952C19.5071 29.924 19.4872 29.876 19.4872 29.848V28.964C19.4872 28.696 19.283 28.484 18.9843 28.484C18.6856 28.484 18.4615 28.692 18.4615 28.964V30.248C18.4615 30.516 18.6856 30.712 18.9644 30.712C19.2631 30.712 19.4872 30.504 19.4872 30.248V29.964L19.5071 29.952ZM13.642 15.164L13.5673 16.704L14.9614 16.196L13.642 15.164Z" fill="black"/>
<path fill-rule="evenodd" clip-rule="evenodd" d="M13.6619 16.6L14.7971 16.18L13.6968 15.328L13.6619 16.6ZM13.5474 15.164V15L15.1108 16.212L13.4727 16.812L13.5474 15.164Z" fill="black"/>
<path fill-rule="evenodd" clip-rule="evenodd" d="M17.0475 24.388L17.8641 24.628L18.2723 25.66L17.4558 25.42L17.0475 24.388ZM16.1165 21.98L15.7232 20.992L16.4501 21.2L16.8584 22.216L16.1165 21.98ZM14.7423 18.544L14.3689 17.544L15.0212 17.752L15.4493 18.768L14.7423 18.544Z" fill="white"/>
</g>
<defs>
<clipPath id="clip0_2_5">
<rect width="40" height="40" fill="white"/>
</clipPath>
</defs>
</svg>
